<?xml version="1.0" encoding="UTF-8" standalone="no"?>
<!DOCTYPE svg PUBLIC "-//W3C//DTD SVG 1.1//EN" "http://www.w3.org/Graphics/SVG/1.1/DTD/svg11.dtd">
<!-- Created with Vectornator (http://vectornator.io/) -->
<svg height="100%" stroke-miterlimit="10" style="fill-rule:nonzero;clip-rule:evenodd;stroke-linecap:round;stroke-linejoin:round;" version="1.1" viewBox="0 0 3370.82 2384.24" width="100%" xml:space="preserve" xmlns="http://www.w3.org/2000/svg" xmlns:vectornator="http://vectornator.io" xmlns:xlink="http://www.w3.org/1999/xlink">
<defs>
<filter color-interpolation-filters="sRGB" filterUnits="userSpaceOnUse" height="2185.82" id="Filter" width="1591.42" x="1733.81" y="88.045">
<feDropShadow dx="12.6192" dy="26.6175" flood-color="#000000" flood-opacity="0.333" in="SourceGraphic" result="Shadow" stdDeviation="12.4612"/>
</filter>
<path d="M1868.32 416.4L3173.93 416.4L3173.93 1202.1L1868.32 1202.1L1868.32 416.4Z" id="Fill"/>
</defs>
<g id="Capa-4-copiar" vectornator:layerName="Capa 4 copiar">
<path d="M1755.34 95.5806L3278.46 95.5806L3278.46 2213.09L1755.34 2213.09L1755.34 95.5806Z" fill="#ffffff" fill-rule="nonzero" filter="url(#Filter)" stroke="#303030" stroke-linecap="round" stroke-linejoin="round" stroke-width="6" vectornator:shadowAngle="1.12809" vectornator:shadowColor="#000000" vectornator:shadowOffset="29.4574" vectornator:shadowOpacity="0.333" vectornator:shadowRadius="24.9225"/>
<g opacity="1">
<g fill="#303030" opacity="1" stroke="none">
<path d="M1883.81 245.928L1933.37 245.928L1933.37 234.288L1898.57 234.288L1898.57 163.608L1883.81 163.608L1883.81 245.928Z"/>
<path d="M1972.61 247.008C1983.05 247.008 1990.25 244.008 1994.45 241.248L1994.45 231.648C1989.05 234.408 1983.29 236.208 1975.37 236.208C1963.61 236.208 1957.01 231.648 1956.17 218.808L1996.49 218.808L1996.49 213.048C1996.49 193.368 1988.57 183.168 1970.33 183.168C1954.61 183.168 1942.01 193.368 1942.01 214.128L1942.01 215.808C1942.01 235.368 1952.09 247.008 1972.61 247.008ZM1970.09 193.368C1978.13 193.368 1982.45 197.688 1982.45 209.328L1956.17 209.328C1957.13 196.728 1963.73 193.368 1970.09 193.368Z"/>
<path d="M2009.21 263.808L2023.01 263.808L2023.01 243.528C2026.01 245.208 2030.57 247.008 2037.41 247.008C2054.21 247.008 2065.37 237.888 2065.37 214.728L2065.37 213.168C2065.37 190.488 2053.73 183.048 2040.89 183.048C2033.09 183.048 2026.73 185.688 2023.01 189.408L2022.53 189.408L2022.53 184.128L2009.21 184.128L2009.21 263.808ZM2035.49 236.568C2030.09 236.568 2025.41 234.888 2023.01 232.968L2023.01 197.928C2025.41 196.248 2030.09 194.328 2035.97 194.328C2045.69 194.328 2050.97 198.768 2050.97 214.008L2050.97 216.528C2050.97 231.528 2045.33 236.568 2035.49 236.568Z"/>
<path d="M2078.45 245.928L2092.25 245.928L2092.25 199.968C2096.21 197.448 2101.73 195.888 2107.25 195.888C2108.69 195.888 2110.73 196.008 2112.29 196.248L2112.29 184.008C2111.69 183.768 2110.13 183.648 2108.45 183.648C2101.97 183.648 2095.61 186.888 2092.25 191.328L2091.77 191.328L2091.77 184.128L2078.45 184.128L2078.45 245.928Z"/>
<path d="M2150.81 247.008C2161.25 247.008 2168.45 244.008 2172.65 241.248L2172.65 231.648C2167.25 234.408 2161.49 236.208 2153.57 236.208C2141.81 236.208 2135.21 231.648 2134.37 218.808L2174.69 218.808L2174.69 213.048C2174.69 193.368 2166.77 183.168 2148.53 183.168C2132.81 183.168 2120.21 193.368 2120.21 214.128L2120.21 215.808C2120.21 235.368 2130.29 247.008 2150.81 247.008ZM2148.29 193.368C2156.33 193.368 2160.65 197.688 2160.65 209.328L2134.37 209.328C2135.33 196.728 2141.93 193.368 2148.29 193.368Z"/>
<path d="M2213.45 247.008C2221.97 247.008 2227.73 244.728 2231.69 242.208L2231.69 232.128C2228.57 233.568 2223.41 235.968 2215.85 235.968C2204.09 235.968 2198.21 229.968 2198.21 215.808L2198.21 213.048C2198.21 200.688 2204.57 194.208 2214.89 194.208C2222.21 194.208 2225.93 195.528 2231.09 197.568L2231.09 186.768C2227.13 184.608 2222.21 183.048 2214.05 183.048C2196.89 183.048 2183.93 193.128 2183.93 214.488L2183.93 216.408C2183.93 236.808 2195.21 247.008 2213.45 247.008Z"/>
<path d="M2243.69 245.928L2257.49 245.928L2257.49 197.928C2261.21 196.128 2266.61 194.568 2271.41 194.568C2279.81 194.568 2281.85 197.088 2281.85 203.328L2281.85 245.928L2295.77 245.928L2295.77 200.088C2295.77 187.848 2289.65 183.048 2277.77 183.048C2270.33 183.048 2263.13 185.688 2258.09 189.408L2257.49 189.408L2257.49 158.208L2243.69 158.208L2243.69 245.928Z"/>
<path d="M2327.21 247.008C2335.25 247.008 2340.17 244.368 2343.17 240.888L2343.89 240.888L2344.97 245.928L2356.37 245.928L2356.37 201.528C2356.37 188.688 2348.09 183.168 2333.81 183.168C2325.77 183.168 2319.17 184.248 2313.41 186.528L2313.41 196.008C2317.13 195.168 2322.41 194.328 2328.41 194.328C2338.85 194.328 2342.57 196.248 2342.57 204.648L2342.57 209.328L2328.05 211.008C2315.81 212.808 2308.25 218.088 2308.25 229.488C2308.25 241.368 2316.05 247.008 2327.21 247.008ZM2331.41 237.288C2325.77 237.288 2321.81 234.648 2321.81 228.768C2321.81 222.528 2325.05 220.008 2331.17 219.528L2342.57 218.328L2342.57 233.568C2340.29 235.728 2335.85 237.288 2331.41 237.288Z"/>
<path d="M2390.81 247.008C2398.61 247.008 2404.61 244.248 2409.77 240.528L2410.37 240.528L2411.57 245.928L2423.57 245.928L2423.57 184.128L2409.77 184.128L2409.77 232.128C2405.81 233.928 2401.37 235.848 2395.97 235.848C2388.29 235.848 2385.89 233.088 2385.89 226.368L2385.89 184.128L2372.09 184.128L2372.09 229.008C2372.09 241.128 2378.81 247.008 2390.81 247.008Z"/>
<path d="M2439.77 245.928L2453.57 245.928L2453.57 197.928C2457.29 196.128 2462.69 194.568 2467.49 194.568C2475.89 194.568 2477.93 197.088 2477.93 203.328L2477.93 245.928L2491.85 245.928L2491.85 200.088C2491.85 187.848 2485.73 183.048 2473.85 183.048C2466.41 183.048 2458.85 185.808 2453.57 189.648L2453.09 189.648L2453.09 184.128L2439.77 184.128L2439.77 245.928Z"/>
</g>
<path d="M3271.66 264.179L1871.17 265.584" fill="none" opacity="1" stroke="#303030" stroke-linecap="square" stroke-linejoin="round" stroke-width="6"/>
<path d="M2990.99 101.397L2989.58 260.157" fill="none" opacity="1" stroke="#303030" stroke-linecap="square" stroke-linejoin="round" stroke-width="6"/>
<path d="M3012.14 99.1192L3275 99.1192L3275 263.695L3012.14 263.695L3012.14 99.1192Z" fill="#ffffff" fill-rule="nonzero" opacity="0" stroke="none"/>
<g fill="#303030" opacity="1" stroke="none">
<path d="M3086.12 214.2C3099.8 214.2 3108.35 207 3108.35 196.02C3108.35 186.75 3102.68 182.43 3094.94 180.9C3101.78 178.56 3106.19 173.97 3106.19 166.59C3106.19 156.87 3098.81 151.38 3087.65 151.38C3081.89 151.38 3074.96 153.27 3071.18 155.61L3072.35 162.72C3076.04 160.92 3080.63 159.03 3085.31 159.03C3092.33 159.03 3096.65 161.46 3096.65 168.21C3096.65 174.33 3091.88 177.93 3084.41 178.02L3079.1 178.11L3079.1 185.22L3085.04 185.31C3093.41 185.4 3098.63 188.55 3098.63 195.66C3098.63 202.77 3093.68 206.64 3084.59 206.64C3080 206.64 3073.97 205.02 3070.73 202.95L3069.02 209.88C3072.44 212.22 3078.83 214.2 3086.12 214.2Z"/>
<path d="M3141.65 214.38C3154.34 214.38 3164.51 206.19 3164.51 185.04L3164.51 180.45C3164.51 159.12 3154.16 151.38 3141.83 151.38C3129.41 151.38 3118.52 159.03 3118.52 180.81L3118.52 185.13C3118.52 205.92 3128.69 214.38 3141.65 214.38ZM3141.65 207C3132.92 207 3128.42 200.07 3128.42 185.4L3128.42 179.82C3128.42 165.24 3133.01 158.76 3141.74 158.76C3150.38 158.76 3154.88 165.51 3154.88 180.36L3154.88 185.94C3154.88 200.97 3150.38 207 3141.65 207Z"/>
</g>
</g>
<g opacity="1">
<g fill="#303030" opacity="1" stroke="none">
<path d="M2358.03 1588.7L2374.83 1588.7C2393.15 1588.7 2401.38 1578.37 2401.38 1560.65L2401.38 1559.05C2401.38 1541.07 2391.89 1532.34 2374.75 1532.34L2358.03 1532.34L2358.03 1588.7ZM2364.67 1582.99L2364.67 1538.05L2374.08 1538.05C2387.01 1538.05 2394.15 1543.43 2394.15 1559.05L2394.15 1561.57C2394.15 1576.61 2388.27 1582.99 2375 1582.99L2364.67 1582.99Z"/>
<path d="M2411.54 1588.7L2418.01 1588.7L2418.01 1555.94C2420.95 1553.84 2424.98 1552.33 2429.18 1552.33C2429.85 1552.33 2431.11 1552.41 2432.21 1552.58L2432.21 1546.79C2431.79 1546.7 2430.61 1546.62 2429.69 1546.62C2424.98 1546.62 2420.45 1549.05 2418.09 1551.74L2417.67 1551.74L2417.67 1547.04L2411.54 1547.04L2411.54 1588.7Z"/>
<path d="M2449.85 1589.46C2455.47 1589.46 2459 1587.44 2460.93 1585.09L2461.35 1585.09L2462.03 1588.7L2467.23 1588.7L2467.23 1558.55C2467.23 1550.06 2462.11 1546.28 2452.95 1546.28C2448.17 1546.28 2444.13 1547.04 2440.52 1548.55L2440.52 1553.17C2443.13 1552.41 2446.4 1551.83 2450.43 1551.83C2457.91 1551.83 2460.77 1553.51 2460.77 1559.97L2460.77 1564.34L2449.51 1565.69C2441.53 1566.61 2436.83 1570.47 2436.83 1577.78C2436.83 1585.59 2442.29 1589.46 2449.85 1589.46ZM2451.44 1584.42C2446.65 1584.42 2443.55 1582.15 2443.55 1577.61C2443.55 1572.83 2446.07 1570.73 2451.19 1570.22L2460.77 1569.13L2460.77 1581.39C2459 1583.16 2455.31 1584.42 2451.44 1584.42Z"/>
<path d="M2486.97 1588.7L2493.53 1588.7L2503.35 1556.95L2503.61 1556.95L2513.27 1588.7L2519.73 1588.7L2531.58 1547.04L2525.45 1547.04L2516.88 1580.39L2516.54 1580.39L2506.46 1547.04L2500.92 1547.04L2490.92 1580.39L2490.59 1580.39L2482.02 1547.04L2475.13 1547.04L2486.97 1588.7Z"/>
<path d="M2572.32 1589.46C2577.95 1589.46 2581.47 1587.44 2583.41 1585.09L2583.83 1585.09L2584.5 1588.7L2589.71 1588.7L2589.71 1558.55C2589.71 1550.06 2584.58 1546.28 2575.43 1546.28C2570.64 1546.28 2566.61 1547.04 2562.99 1548.55L2562.99 1553.17C2565.6 1552.41 2568.87 1551.83 2572.91 1551.83C2580.38 1551.83 2583.24 1553.51 2583.24 1559.97L2583.24 1564.34L2571.98 1565.69C2564 1566.61 2559.3 1570.47 2559.3 1577.78C2559.3 1585.59 2564.76 1589.46 2572.32 1589.46ZM2573.91 1584.42C2569.13 1584.42 2566.02 1582.15 2566.02 1577.61C2566.02 1572.83 2568.54 1570.73 2573.66 1570.22L2583.24 1569.13L2583.24 1581.39C2581.47 1583.16 2577.78 1584.42 2573.91 1584.42Z"/>
<path d="M2640.53 1589.46C2646.32 1589.46 2650.02 1587.78 2652.71 1586.18L2652.71 1580.97C2650.61 1582.15 2646.91 1583.91 2641.28 1583.91C2632.38 1583.91 2627.93 1579.13 2627.93 1568.46L2627.93 1566.44C2627.93 1556.87 2632.88 1551.74 2640.44 1551.74C2645.9 1551.74 2648.59 1552.75 2652.29 1554.43L2652.29 1549.05C2649.51 1547.29 2646.24 1546.28 2640.78 1546.28C2630.03 1546.28 2621.29 1552.67 2621.29 1567.45L2621.29 1568.71C2621.29 1582.4 2628.6 1589.46 2640.53 1589.46Z"/>
<path d="M2671.86 1589.46C2677.49 1589.46 2681.01 1587.44 2682.95 1585.09L2683.37 1585.09L2684.04 1588.7L2689.25 1588.7L2689.25 1558.55C2689.25 1550.06 2684.12 1546.28 2674.97 1546.28C2670.18 1546.28 2666.15 1547.04 2662.53 1548.55L2662.53 1553.17C2665.14 1552.41 2668.41 1551.83 2672.45 1551.83C2679.92 1551.83 2682.78 1553.51 2682.78 1559.97L2682.78 1564.34L2671.52 1565.69C2663.54 1566.61 2658.84 1570.47 2658.84 1577.78C2658.84 1585.59 2664.3 1589.46 2671.86 1589.46ZM2673.45 1584.42C2668.67 1584.42 2665.56 1582.15 2665.56 1577.61C2665.56 1572.83 2668.08 1570.73 2673.2 1570.22L2682.78 1569.13L2682.78 1581.39C2681.01 1583.16 2677.32 1584.42 2673.45 1584.42Z"/>
<path d="M2701.34 1588.7L2707.81 1588.7L2707.81 1555.94C2710.75 1553.84 2714.78 1552.33 2718.98 1552.33C2719.65 1552.33 2720.91 1552.41 2722.01 1552.58L2722.01 1546.79C2721.59 1546.7 2720.41 1546.62 2719.49 1546.62C2714.78 1546.62 2710.25 1549.05 2707.89 1551.74L2707.47 1551.74L2707.47 1547.04L2701.34 1547.04L2701.34 1588.7Z"/>
<path d="M2745.27 1589.46C2750.9 1589.46 2754.93 1587.69 2757.45 1585.26L2757.79 1585.26L2758.55 1588.7L2763.92 1588.7L2763.92 1528.56L2757.45 1528.56L2757.45 1549.05C2755.19 1547.71 2751.66 1546.28 2746.53 1546.28C2735.78 1546.28 2727.97 1552.83 2727.97 1567.95L2727.97 1569.05C2727.97 1584.42 2736.96 1589.46 2745.27 1589.46ZM2747.21 1584.17C2739.73 1584.17 2734.69 1580.47 2734.69 1568.79L2734.69 1567.11C2734.69 1555.86 2739.48 1551.74 2747.37 1551.74C2751.66 1551.74 2755.52 1552.92 2757.45 1554.43L2757.45 1580.64C2755.35 1582.32 2752.08 1584.17 2747.21 1584.17Z"/>
<path d="M2773.58 1590.8L2780.89 1590.8L2780.89 1583.33L2773.58 1583.33L2773.58 1590.8Z"/>
<path d="M2818.69 1588.7L2825.33 1588.7L2825.33 1532.34L2818.69 1532.34L2818.69 1588.7Z"/>
<path d="M2841.45 1588.7L2847.92 1588.7L2847.92 1552.41L2857.5 1552.41L2857.5 1547.12L2847.92 1547.12L2847.92 1541.49C2847.92 1535.7 2850.69 1533.35 2855.65 1533.35C2858.51 1533.35 2860.27 1533.68 2861.53 1533.93L2861.53 1529.4C2860.02 1528.64 2857.75 1527.97 2854.47 1527.97C2846.91 1527.97 2841.45 1531.92 2841.45 1541.07L2841.45 1547.12L2835.32 1547.12L2835.32 1552.41L2841.45 1552.41L2841.45 1588.7Z"/>
<path d="M2888.49 1588.7L2894.88 1588.7L2894.88 1547.12L2888.49 1547.12L2888.49 1588.7ZM2888.41 1538.72L2894.96 1538.72L2894.96 1532L2888.41 1532L2888.41 1538.72Z"/>
<path d="M2920.5 1589.21C2924.11 1589.21 2925.87 1588.28 2927.55 1587.53L2927.55 1583.16C2925.87 1583.66 2923.94 1583.91 2922.18 1583.91C2917.39 1583.91 2916.05 1582.32 2916.05 1578.29L2916.05 1552.41L2926.71 1552.41L2926.71 1547.12L2916.05 1547.12L2916.05 1537.21L2909.66 1537.21L2909.66 1547.12L2903.7 1547.12L2903.7 1552.41L2909.66 1552.41L2909.66 1579.29C2909.66 1586.35 2913.95 1589.21 2920.5 1589.21Z"/>
<path d="M2959.05 1588.7L2965.44 1588.7L2965.44 1547.12L2959.05 1547.12L2959.05 1588.7ZM2958.97 1538.72L2965.52 1538.72L2965.52 1532L2958.97 1532L2958.97 1538.72Z"/>
<path d="M2988.45 1589.37C2997.61 1589.37 3003.15 1585.01 3003.15 1577.11C3003.15 1569.89 2999.88 1567.2 2991.9 1565.1L2987.7 1563.92C2983.25 1562.66 2981.48 1561.15 2981.48 1557.54C2981.48 1553.67 2984.25 1551.74 2989.88 1551.74C2994.5 1551.74 2998.7 1552.83 3000.89 1553.93L3000.89 1548.72C2998.7 1547.54 2995.09 1546.28 2989.55 1546.28C2979.97 1546.28 2975.35 1551.07 2975.35 1558.13C2975.35 1565.18 2979.47 1567.95 2985.51 1569.63L2989.63 1570.73C2994.92 1572.24 2996.85 1573.92 2996.85 1577.78C2996.85 1581.56 2994.17 1583.91 2987.53 1583.91C2981.65 1583.91 2978.63 1582.65 2975.01 1581.31L2975.01 1586.43C2978.46 1588.37 2982.99 1589.37 2988.45 1589.37Z"/>
<path d="M3034.82 1588.7L3041.21 1588.7L3041.21 1554.85C3044.65 1553.25 3049.02 1551.83 3052.97 1551.83C3059.6 1551.83 3061.37 1553.93 3061.37 1558.97L3061.37 1588.7L3067.75 1588.7L3067.75 1557.62C3067.75 1549.56 3063.8 1546.28 3055.65 1546.28C3050.53 1546.28 3045.15 1548.13 3041.29 1550.65L3040.95 1550.65L3040.95 1547.04L3034.82 1547.04L3034.82 1588.7Z"/>
<path d="M3096.06 1589.46C3107.31 1589.46 3115.04 1581.56 3115.04 1568.29L3115.04 1567.11C3115.04 1553.93 3107.9 1546.28 3096.14 1546.28C3084.89 1546.28 3077.24 1554.18 3077.24 1567.37L3077.24 1568.63C3077.24 1581.9 3084.3 1589.46 3096.06 1589.46ZM3096.23 1584.17C3089.25 1584.17 3083.79 1580.39 3083.79 1568.79L3083.79 1566.69C3083.79 1556.95 3088.5 1551.57 3096.06 1551.57C3102.86 1551.57 3108.49 1555.35 3108.49 1566.95L3108.49 1569.05C3108.49 1578.87 3103.79 1584.17 3096.23 1584.17Z"/>
<path d="M3137.89 1589.21C3141.5 1589.21 3143.27 1588.28 3144.95 1587.53L3144.95 1583.16C3143.27 1583.66 3141.33 1583.91 3139.57 1583.91C3134.78 1583.91 3133.44 1582.32 3133.44 1578.29L3133.44 1552.41L3144.11 1552.41L3144.11 1547.12L3133.44 1547.12L3133.44 1537.21L3127.05 1537.21L3127.05 1547.12L3121.09 1547.12L3121.09 1552.41L3127.05 1552.41L3127.05 1579.29C3127.05 1586.35 3131.34 1589.21 3137.89 1589.21Z"/>
<path d="M2367.11 1690.26C2372.73 1690.26 2376.26 1688.24 2378.19 1685.89L2378.61 1685.89L2379.29 1689.5L2384.49 1689.5L2384.49 1659.35C2384.49 1650.86 2379.37 1647.08 2370.21 1647.08C2365.43 1647.08 2361.39 1647.84 2357.78 1649.35L2357.78 1653.97C2360.39 1653.21 2363.66 1652.63 2367.69 1652.63C2375.17 1652.63 2378.03 1654.31 2378.03 1660.77L2378.03 1665.14L2366.77 1666.49C2358.79 1667.41 2354.09 1671.27 2354.09 1678.58C2354.09 1686.39 2359.55 1690.26 2367.11 1690.26ZM2368.7 1685.22C2363.91 1685.22 2360.81 1682.95 2360.81 1678.41C2360.81 1673.63 2363.33 1671.53 2368.45 1671.02L2378.03 1669.93L2378.03 1682.19C2376.26 1683.96 2372.57 1685.22 2368.7 1685.22Z"/>
<path d="M2419.77 1689.5L2426.49 1689.5L2426.49 1666.91L2438 1666.91C2448.75 1666.91 2455.98 1660.86 2455.98 1649.77C2455.98 1639.19 2449.85 1633.14 2437.16 1633.14L2419.77 1633.14L2419.77 1689.5ZM2426.49 1661.36L2426.49 1638.77L2436.49 1638.77C2445.65 1638.77 2448.84 1642.21 2448.84 1650.19C2448.84 1657.75 2445.39 1661.36 2436.66 1661.36L2426.49 1661.36Z"/>
<path d="M2481.35 1690.26C2492.6 1690.26 2500.33 1682.36 2500.33 1669.09L2500.33 1667.91C2500.33 1654.73 2493.19 1647.08 2481.43 1647.08C2470.17 1647.08 2462.53 1654.98 2462.53 1668.17L2462.53 1669.43C2462.53 1682.7 2469.59 1690.26 2481.35 1690.26ZM2481.51 1684.97C2474.54 1684.97 2469.08 1681.19 2469.08 1669.59L2469.08 1667.49C2469.08 1657.75 2473.79 1652.37 2481.35 1652.37C2488.15 1652.37 2493.78 1656.15 2493.78 1667.75L2493.78 1669.85C2493.78 1679.67 2489.07 1684.97 2481.51 1684.97Z"/>
<path d="M2518.05 1689.5L2524.61 1689.5L2534.43 1657.75L2534.69 1657.75L2544.35 1689.5L2550.81 1689.5L2562.66 1647.84L2556.53 1647.84L2547.96 1681.19L2547.62 1681.19L2537.54 1647.84L2532 1647.84L2522 1681.19L2521.67 1681.19L2513.1 1647.84L2506.21 1647.84L2518.05 1689.5Z"/>
<path d="M2588.28 1690.26C2595 1690.26 2599.79 1688.16 2602.31 1686.39L2602.31 1681.61C2598.53 1683.37 2594.83 1684.71 2589.29 1684.71C2580.38 1684.71 2575.43 1680.68 2575.09 1670.27L2603.48 1670.27L2603.48 1666.65C2603.48 1653.72 2598.11 1647.08 2586.68 1647.08C2577.11 1647.08 2568.54 1653.55 2568.54 1668.08L2568.54 1669.26C2568.54 1682.28 2575.17 1690.26 2588.28 1690.26ZM2586.51 1652.29C2593.32 1652.29 2596.76 1656.07 2596.76 1665.14L2575.09 1665.14C2575.76 1655.31 2581.31 1652.29 2586.51 1652.29Z"/>
<path d="M2613.14 1689.5L2619.61 1689.5L2619.61 1656.74C2622.55 1654.64 2626.58 1653.13 2630.78 1653.13C2631.45 1653.13 2632.71 1653.21 2633.81 1653.38L2633.81 1647.59C2633.39 1647.5 2632.21 1647.42 2631.29 1647.42C2626.58 1647.42 2622.05 1649.85 2619.69 1652.54L2619.27 1652.54L2619.27 1647.84L2613.14 1647.84L2613.14 1689.5Z"/>
<path d="M2680.93 1690.26C2686.73 1690.26 2690.42 1688.58 2693.11 1686.98L2693.11 1681.77C2691.01 1682.95 2687.31 1684.71 2681.69 1684.71C2672.78 1684.71 2668.33 1679.93 2668.33 1669.26L2668.33 1667.24C2668.33 1657.67 2673.29 1652.54 2680.85 1652.54C2686.31 1652.54 2688.99 1653.55 2692.69 1655.23L2692.69 1649.85C2689.92 1648.09 2686.64 1647.08 2681.18 1647.08C2670.43 1647.08 2661.69 1653.47 2661.69 1668.25L2661.69 1669.51C2661.69 1683.2 2669 1690.26 2680.93 1690.26Z"/>
<path d="M2712.26 1690.26C2717.89 1690.26 2721.42 1688.24 2723.35 1685.89L2723.77 1685.89L2724.44 1689.5L2729.65 1689.5L2729.65 1659.35C2729.65 1650.86 2724.53 1647.08 2715.37 1647.08C2710.58 1647.08 2706.55 1647.84 2702.94 1649.35L2702.94 1653.97C2705.54 1653.21 2708.82 1652.63 2712.85 1652.63C2720.33 1652.63 2723.18 1654.31 2723.18 1660.77L2723.18 1665.14L2711.93 1666.49C2703.95 1667.41 2699.24 1671.27 2699.24 1678.58C2699.24 1686.39 2704.7 1690.26 2712.26 1690.26ZM2713.86 1685.22C2709.07 1685.22 2705.96 1682.95 2705.96 1678.41C2705.96 1673.63 2708.48 1671.53 2713.61 1671.02L2723.18 1669.93L2723.18 1682.19C2721.42 1683.96 2717.72 1685.22 2713.86 1685.22Z"/>
<path d="M2741.75 1689.5L2748.21 1689.5L2748.21 1656.74C2751.15 1654.64 2755.19 1653.13 2759.39 1653.13C2760.06 1653.13 2761.32 1653.21 2762.41 1653.38L2762.41 1647.59C2761.99 1647.5 2760.81 1647.42 2759.89 1647.42C2755.19 1647.42 2750.65 1649.85 2748.3 1652.54L2747.88 1652.54L2747.88 1647.84L2741.75 1647.84L2741.75 1689.5Z"/>
<path d="M2785.68 1690.26C2791.31 1690.26 2795.34 1688.49 2797.86 1686.06L2798.19 1686.06L2798.95 1689.5L2804.33 1689.5L2804.33 1629.36L2797.86 1629.36L2797.86 1649.85C2795.59 1648.51 2792.06 1647.08 2786.94 1647.08C2776.19 1647.08 2768.37 1653.63 2768.37 1668.75L2768.37 1669.85C2768.37 1685.22 2777.36 1690.26 2785.68 1690.26ZM2787.61 1684.97C2780.13 1684.97 2775.09 1681.27 2775.09 1669.59L2775.09 1667.91C2775.09 1656.66 2779.88 1652.54 2787.78 1652.54C2792.06 1652.54 2795.93 1653.72 2797.86 1655.23L2797.86 1681.44C2795.76 1683.12 2792.48 1684.97 2787.61 1684.97Z"/>
<path d="M2812.05 1700.42L2816.59 1700.42L2822.81 1684.04L2815.16 1684.04L2812.05 1700.42Z"/>
<path d="M2872.53 1690.26C2878.16 1690.26 2882.19 1688.49 2884.71 1686.06L2885.05 1686.06L2885.81 1689.5L2891.18 1689.5L2891.18 1629.36L2884.71 1629.36L2884.71 1649.85C2882.45 1648.51 2878.92 1647.08 2873.79 1647.08C2863.04 1647.08 2855.23 1653.63 2855.23 1668.75L2855.23 1669.85C2855.23 1685.22 2864.22 1690.26 2872.53 1690.26ZM2874.47 1684.97C2866.99 1684.97 2861.95 1681.27 2861.95 1669.59L2861.95 1667.91C2861.95 1656.66 2866.74 1652.54 2874.63 1652.54C2878.92 1652.54 2882.78 1653.72 2884.71 1655.23L2884.71 1681.44C2882.61 1683.12 2879.34 1684.97 2874.47 1684.97Z"/>
<path d="M2903.7 1689.5L2910.08 1689.5L2910.08 1647.92L2903.7 1647.92L2903.7 1689.5ZM2903.61 1639.52L2910.17 1639.52L2910.17 1632.8L2903.61 1632.8L2903.61 1639.52Z"/>
<path d="M2933.1 1690.17C2942.25 1690.17 2947.8 1685.81 2947.8 1677.91C2947.8 1670.69 2944.52 1668 2936.54 1665.9L2932.34 1664.72C2927.89 1663.46 2926.13 1661.95 2926.13 1658.34C2926.13 1654.47 2928.9 1652.54 2934.53 1652.54C2939.15 1652.54 2943.35 1653.63 2945.53 1654.73L2945.53 1649.52C2943.35 1648.34 2939.73 1647.08 2934.19 1647.08C2924.61 1647.08 2919.99 1651.87 2919.99 1658.93C2919.99 1665.98 2924.11 1668.75 2930.16 1670.43L2934.27 1671.53C2939.57 1673.04 2941.5 1674.72 2941.5 1678.58C2941.5 1682.36 2938.81 1684.71 2932.17 1684.71C2926.29 1684.71 2923.27 1683.45 2919.66 1682.11L2919.66 1687.23C2923.1 1689.17 2927.64 1690.17 2933.1 1690.17Z"/>
<path d="M2974.01 1690.26C2979.8 1690.26 2983.5 1688.58 2986.19 1686.98L2986.19 1681.77C2984.09 1682.95 2980.39 1684.71 2974.76 1684.71C2965.86 1684.71 2961.41 1679.93 2961.41 1669.26L2961.41 1667.24C2961.41 1657.67 2966.36 1652.54 2973.92 1652.54C2979.38 1652.54 2982.07 1653.55 2985.77 1655.23L2985.77 1649.85C2982.99 1648.09 2979.72 1647.08 2974.26 1647.08C2963.51 1647.08 2954.77 1653.47 2954.77 1668.25L2954.77 1669.51C2954.77 1683.2 2962.08 1690.26 2974.01 1690.26Z"/>
<path d="M3005.34 1690.26C3010.97 1690.26 3014.49 1688.24 3016.43 1685.89L3016.85 1685.89L3017.52 1689.5L3022.73 1689.5L3022.73 1659.35C3022.73 1650.86 3017.6 1647.08 3008.45 1647.08C3003.66 1647.08 2999.63 1647.84 2996.01 1649.35L2996.01 1653.97C2998.62 1653.21 3001.89 1652.63 3005.93 1652.63C3013.4 1652.63 3016.26 1654.31 3016.26 1660.77L3016.26 1665.14L3005 1666.49C2997.02 1667.41 2992.32 1671.27 2992.32 1678.58C2992.32 1686.39 2997.78 1690.26 3005.34 1690.26ZM3006.93 1685.22C3002.15 1685.22 2999.04 1682.95 2999.04 1678.41C2999.04 1673.63 3001.56 1671.53 3006.68 1671.02L3016.26 1669.93L3016.26 1682.19C3014.49 1683.96 3010.8 1685.22 3006.93 1685.22Z"/>
<path d="M3034.82 1689.5L3041.29 1689.5L3041.29 1656.74C3044.23 1654.64 3048.26 1653.13 3052.46 1653.13C3053.13 1653.13 3054.39 1653.21 3055.49 1653.38L3055.49 1647.59C3055.07 1647.5 3053.89 1647.42 3052.97 1647.42C3048.26 1647.42 3043.73 1649.85 3041.37 1652.54L3040.95 1652.54L3040.95 1647.84L3034.82 1647.84L3034.82 1689.5Z"/>
<path d="M3078.75 1690.26C3084.38 1690.26 3088.41 1688.49 3090.93 1686.06L3091.27 1686.06L3092.03 1689.5L3097.4 1689.5L3097.4 1629.36L3090.93 1629.36L3090.93 1649.85C3088.67 1648.51 3085.14 1647.08 3080.01 1647.08C3069.26 1647.08 3061.45 1653.63 3061.45 1668.75L3061.45 1669.85C3061.45 1685.22 3070.44 1690.26 3078.75 1690.26ZM3080.69 1684.97C3073.21 1684.97 3068.17 1681.27 3068.17 1669.59L3068.17 1667.91C3068.17 1656.66 3072.96 1652.54 3080.85 1652.54C3085.14 1652.54 3089 1653.72 3090.93 1655.23L3090.93 1681.44C3088.83 1683.12 3085.56 1684.97 3080.69 1684.97Z"/>
<path d="M3132.01 1689.5L3138.39 1689.5L3138.39 1647.92L3132.01 1647.92L3132.01 1689.5ZM3131.93 1639.52L3138.48 1639.52L3138.48 1632.8L3131.93 1632.8L3131.93 1639.52Z"/>
<path d="M3164.01 1690.01C3167.63 1690.01 3169.39 1689.08 3171.07 1688.33L3171.07 1683.96C3169.39 1684.46 3167.46 1684.71 3165.69 1684.71C3160.91 1684.71 3159.56 1683.12 3159.56 1679.09L3159.56 1653.21L3170.23 1653.21L3170.23 1647.92L3159.56 1647.92L3159.56 1638.01L3153.18 1638.01L3153.18 1647.92L3147.21 1647.92L3147.21 1653.21L3153.18 1653.21L3153.18 1680.09C3153.18 1687.15 3157.46 1690.01 3164.01 1690.01Z"/>
</g>
<path d="M2348.87 1461.22L3142.67 1463.14" fill="#f9f9f9" fill-rule="nonzero" opacity="1" stroke="#303030" stroke-linecap="round" stroke-linejoin="round" stroke-width="6"/>
<g fill="#303030" opacity="1" stroke="none">
<path d="M2371.87 1441.62L2383.68 1441.62L2383.68 1385.08L2402.4 1385.08L2402.4 1375.77L2352.96 1375.77L2352.96 1385.08L2371.87 1385.08L2371.87 1441.62Z"/>
<path d="M2411.71 1441.62L2422.75 1441.62L2422.75 1404.86C2425.92 1402.84 2430.33 1401.59 2434.75 1401.59C2435.9 1401.59 2437.53 1401.69 2438.78 1401.88L2438.78 1392.09C2438.3 1391.9 2437.05 1391.8 2435.71 1391.8C2430.53 1391.8 2425.44 1394.39 2422.75 1397.94L2422.37 1397.94L2422.37 1392.18L2411.71 1392.18L2411.71 1441.62Z"/>
<path d="M2469.6 1442.49C2477.95 1442.49 2483.71 1440.09 2487.07 1437.88L2487.07 1430.2C2482.75 1432.41 2478.14 1433.85 2471.81 1433.85C2462.4 1433.85 2457.12 1430.2 2456.45 1419.93L2488.7 1419.93L2488.7 1415.32C2488.7 1399.58 2482.37 1391.42 2467.77 1391.42C2455.2 1391.42 2445.12 1399.58 2445.12 1416.18L2445.12 1417.53C2445.12 1433.18 2453.18 1442.49 2469.6 1442.49ZM2467.58 1399.58C2474.01 1399.58 2477.47 1403.03 2477.47 1412.34L2456.45 1412.34C2457.21 1402.26 2462.49 1399.58 2467.58 1399.58Z"/>
<path d="M2511.26 1442.49C2517.69 1442.49 2521.63 1440.38 2524.03 1437.59L2524.61 1437.59L2525.47 1441.62L2534.59 1441.62L2534.59 1406.1C2534.59 1395.83 2527.97 1391.42 2516.54 1391.42C2510.11 1391.42 2504.83 1392.28 2500.22 1394.1L2500.22 1401.69C2503.2 1401.02 2507.42 1400.34 2512.22 1400.34C2520.57 1400.34 2523.55 1401.88 2523.55 1408.6L2523.55 1412.34L2511.93 1413.69C2502.14 1415.13 2496.09 1419.35 2496.09 1428.47C2496.09 1437.98 2502.33 1442.49 2511.26 1442.49ZM2514.62 1434.71C2510.11 1434.71 2506.94 1432.6 2506.94 1427.9C2506.94 1422.9 2509.53 1420.89 2514.43 1420.5L2523.55 1419.54L2523.55 1431.74C2521.73 1433.46 2518.17 1434.71 2514.62 1434.71Z"/>
<path d="M2560.99 1442.39C2573.09 1442.39 2579.9 1437.3 2579.9 1427.03C2579.9 1418.49 2576.16 1414.65 2566.46 1412.44L2561.76 1411.38C2557.05 1410.23 2555.13 1408.98 2555.13 1405.53C2555.13 1401.69 2558.21 1399.77 2563.97 1399.77C2569.53 1399.77 2574.33 1401.21 2577.21 1402.46L2577.21 1394.1C2573.95 1392.66 2569.73 1391.42 2563.01 1391.42C2550.53 1391.42 2544.67 1397.27 2544.67 1406.39C2544.67 1415.22 2549.66 1419.06 2557.25 1420.6L2561.85 1421.66C2567.23 1422.81 2569.15 1424.54 2569.15 1428.09C2569.15 1431.74 2566.27 1434.04 2559.36 1434.04C2552.45 1434.04 2548.8 1432.6 2544.67 1430.97L2544.67 1439.03C2548.8 1441.24 2554.56 1442.39 2560.99 1442.39Z"/>
<path d="M2604.86 1442.49C2611.1 1442.49 2615.9 1440.28 2620.03 1437.3L2620.51 1437.3L2621.47 1441.62L2631.07 1441.62L2631.07 1392.18L2620.03 1392.18L2620.03 1430.58C2616.86 1432.02 2613.31 1433.56 2608.99 1433.56C2602.85 1433.56 2600.93 1431.35 2600.93 1425.98L2600.93 1392.18L2589.89 1392.18L2589.89 1428.09C2589.89 1437.78 2595.26 1442.49 2604.86 1442.49Z"/>
<path d="M2644.03 1441.62L2655.07 1441.62L2655.07 1404.86C2658.24 1402.84 2662.65 1401.59 2667.07 1401.59C2668.22 1401.59 2669.85 1401.69 2671.1 1401.88L2671.1 1392.09C2670.62 1391.9 2669.37 1391.8 2668.03 1391.8C2662.85 1391.8 2657.76 1394.39 2655.07 1397.94L2654.69 1397.94L2654.69 1392.18L2644.03 1392.18L2644.03 1441.62Z"/>
<path d="M2701.92 1442.49C2710.27 1442.49 2716.03 1440.09 2719.39 1437.88L2719.39 1430.2C2715.07 1432.41 2710.46 1433.85 2704.13 1433.85C2694.72 1433.85 2689.44 1430.2 2688.77 1419.93L2721.02 1419.93L2721.02 1415.32C2721.02 1399.58 2714.69 1391.42 2700.09 1391.42C2687.52 1391.42 2677.44 1399.58 2677.44 1416.18L2677.44 1417.53C2677.44 1433.18 2685.5 1442.49 2701.92 1442.49ZM2699.9 1399.58C2706.33 1399.58 2709.79 1403.03 2709.79 1412.34L2688.77 1412.34C2689.53 1402.26 2694.81 1399.58 2699.9 1399.58Z"/>
<path d="M2756.45 1441.62L2767.49 1441.62L2767.49 1403.22C2770.46 1401.78 2774.78 1400.54 2778.62 1400.54C2785.34 1400.54 2786.97 1402.55 2786.97 1407.54L2786.97 1441.62L2798.11 1441.62L2798.11 1404.95C2798.11 1395.16 2793.21 1391.32 2783.71 1391.32C2777.76 1391.32 2772 1393.43 2767.97 1396.41L2767.49 1396.41L2767.49 1371.45L2756.45 1371.45L2756.45 1441.62Z"/>
<path d="M2825.57 1442.49C2831.81 1442.49 2836.61 1440.28 2840.73 1437.3L2841.21 1437.3L2842.17 1441.62L2851.77 1441.62L2851.77 1392.18L2840.73 1392.18L2840.73 1430.58C2837.57 1432.02 2834.01 1433.56 2829.69 1433.56C2823.55 1433.56 2821.63 1431.35 2821.63 1425.98L2821.63 1392.18L2810.59 1392.18L2810.59 1428.09C2810.59 1437.78 2815.97 1442.49 2825.57 1442.49Z"/>
<path d="M2864.73 1441.62L2875.77 1441.62L2875.77 1403.22C2878.75 1401.78 2883.07 1400.54 2886.91 1400.54C2893.63 1400.54 2895.26 1402.55 2895.26 1407.54L2895.26 1441.62L2906.4 1441.62L2906.4 1404.95C2906.4 1395.16 2901.5 1391.32 2892 1391.32C2886.05 1391.32 2880 1393.53 2875.77 1396.6L2875.39 1396.6L2875.39 1392.18L2864.73 1392.18L2864.73 1441.62Z"/>
<path d="M2936.06 1442.2C2940.67 1442.2 2943.36 1441.14 2945.28 1440.18L2945.28 1432.79C2943.55 1433.27 2941.53 1433.56 2939.61 1433.56C2934.43 1433.56 2932.89 1432.02 2932.89 1427.9L2932.89 1400.82L2944.7 1400.82L2944.7 1392.18L2932.89 1392.18L2932.89 1380.57L2922.05 1380.57L2922.05 1392.18L2915.13 1392.18L2915.13 1400.82L2922.05 1400.82L2922.05 1429.43C2922.05 1438.74 2927.52 1442.2 2936.06 1442.2Z"/>
</g>
<path d="M1902.49 1337.05L2072.59 1337.05L2072.59 1507.15L1902.49 1507.15L1902.49 1337.05Z" fill="none" opacity="1" stroke="#303030" stroke-linecap="round" stroke-linejoin="round" stroke-width="6"/>
</g>
<g fill="#5e5e5e" opacity="1" stroke="none">
<path d="M2385.13 2152.47L2396.2 2152.47L2396.2 2091.22L2385.13 2091.22L2385.13 2152.47Z"/>
<path d="M2410.93 2152.47L2431.11 2152.47C2450.76 2152.47 2460.31 2141.67 2460.31 2122.02L2460.31 2120.24C2460.31 2100.24 2449.78 2091.22 2431.02 2091.22L2410.93 2091.22L2410.93 2152.47ZM2421.92 2143.81L2421.92 2099.88L2430.4 2099.88C2442.01 2099.88 2448.7 2104.7 2448.7 2120.15L2448.7 2123.1C2448.7 2137.92 2443.17 2143.81 2431.2 2143.81L2421.92 2143.81Z"/>
<path d="M2471.2 2115.95L2482.1 2115.95L2482.1 2105.42L2471.2 2105.42L2471.2 2115.95ZM2471.2 2148.28L2482.1 2148.28L2482.1 2137.74L2471.2 2137.74L2471.2 2148.28Z"/>
<path d="M2513.53 2152.47L2523.71 2152.47L2529.24 2136.94L2552.01 2136.94L2557.55 2152.47L2568.89 2152.47L2547.1 2091.22L2535.85 2091.22L2513.53 2152.47ZM2540.4 2104.26L2540.67 2104.26L2549.24 2128.72L2531.83 2128.72L2540.4 2104.26Z"/>
<path d="M2572.46 2132.02L2597.01 2132.02L2597.01 2123.45L2572.46 2123.45L2572.46 2132.02Z"/>
<path d="M2609.6 2152.83L2620.68 2152.83L2620.68 2091.13L2614.87 2091.13L2599.34 2098.09L2599.34 2104.52L2609.6 2102.47L2609.6 2152.83Z"/>
<path d="M2638.27 2152.47L2650.41 2152.47L2672.46 2098.18L2672.46 2091.67L2632.82 2091.67L2632.82 2100.33L2660.59 2100.33L2638.27 2152.47Z"/>
</g>
<g opacity="1">
<use fill="none" opacity="1" stroke="#000000" stroke-linecap="round" stroke-linejoin="round" stroke-width="6" xlink:href="#Fill"/>
<clipPath id="ClipPath">
<use xlink:href="#Fill"/>
</clipPath>
<g clip-path="url(#ClipPath)">
<g opacity="1" vectornator:layerName="(curve)">
<path d="M2347.14 1204.4C2378.56 962.397 2394.12 853.251 2412.5 763.791C2412.5 763.791 2429.32 700.79 2448.36 699.592C2466.57 698.446 2476.55 705.107 2515.47 802.663C2585.93 810.004 2660.7 817.773 2716.55 825.704C2719.38 821.449 2779.78 737.079 2802.13 734.395C2844.26 716.255 2828.5 1129.02 2841.2 1322.04" fill="#ffffff" fill-rule="nonzero" opacity="1" stroke="#000000" stroke-linecap="round" stroke-linejoin="round" stroke-width="6.07544"/>
<path d="M2683.26 1091.77C2668.18 1061.13 2680.04 1015.18 2714.51 996.641C2748.98 978.099 2794.26 998.496 2809.34 1029.14C2820.87 1052.56 2821.36 1079.98 2801.26 1103.1C2795.07 1110.23 2787.79 1116.3 2779.67 1120.66C2745.2 1139.21 2698.34 1122.41 2683.26 1091.77Z" fill="#ffc4cc" fill-rule="nonzero" opacity="1" stroke="none"/>
<path d="M2385.3 1060.66C2370.22 1030.02 2382.08 984.075 2416.55 965.533C2451.02 946.991 2496.3 967.388 2511.38 998.029C2522.91 1021.45 2523.4 1048.87 2503.31 1071.99C2497.11 1079.12 2489.83 1085.19 2481.71 1089.56C2447.24 1108.1 2400.38 1091.3 2385.3 1060.66Z" fill="#ffc4cc" fill-rule="nonzero" opacity="1" stroke="none"/>
<path d="M2663.1 1040.03C2632.15 989.756 2644.12 908.324 2693.5 880.475C2742.87 852.626 2825.19 866.998 2856.14 917.273C2887.09 967.547 2873.45 1050.68 2824.08 1078.53C2774.7 1106.38 2694.05 1090.31 2663.1 1040.03Z" fill="none" opacity="1" stroke="#000000" stroke-linecap="round" stroke-linejoin="round" stroke-width="6.07544" vectornator:layerName="(rectangle)"/>
<path d="M2359.52 1007.22C2324.16 961.418 2331.52 866.163 2380.4 839.568C2442.77 805.64 2534.3 835.478 2555.72 888.6C2580.43 949.88 2547.74 1029.63 2502.96 1041.89C2449.29 1056.58 2396.05 1054.54 2359.52 1007.22Z" fill="none" opacity="1" stroke="#000000" stroke-linecap="round" stroke-linejoin="round" stroke-width="6.07544" vectornator:layerName="(rectangle)"/>
<path d="M2563.91 930.566C2591.57 929.067 2613.46 927.719 2652.5 933.464" fill="none" opacity="1" stroke="#000000" stroke-linecap="round" stroke-linejoin="round" stroke-width="6.07544"/>
<path d="M2604.38 964.736C2617.67 964.736 2631.29 969.349 2631.39 978.417L2631.39 978.417C2630.93 988.789 2617.65 992.099 2604.35 992.099C2591.06 992.099 2578.12 987.533 2578.2 978.417L2578.2 978.417C2578.63 968.75 2591.08 964.736 2604.38 964.736Z" fill="#000000" fill-rule="nonzero" opacity="1" stroke="#000000" stroke-linecap="round" stroke-linejoin="round" stroke-width="6.07544"/>
</g>
<path d="M1909.98 1031.79C1909.98 1008.63 2085.01 990.796 2217.97 990.796C2350.94 990.796 2501.84 1011.47 2501.84 1034.63C2501.84 1057.79 2350.94 1078.46 2217.97 1078.46C2085.01 1078.46 1909.98 1054.95 1909.98 1031.79Z" fill="#fcfcfc" fill-rule="nonzero" opacity="1" stroke="#000000" stroke-linecap="butt" stroke-linejoin="round" stroke-width="6.07544"/>
<path d="M2134.54 858.797C2136.78 858.363 2275.23 1102.39 2278.79 1102.21C2280.38 1102.13 2304.05 1084.41 2304.57 1078.73C2304.9 1075.18 2132.74 857.031 2133.92 858.1C2137.81 861.623 2240.24 950.191 2270.23 940.72C2293.14 936.057 2265.54 867.232 2263.98 843.439C2266.43 826.396 2288.82 781.872 2265.23 746.116C2248.46 724.114 2132.02 831.325 2129.52 837.024C2129.38 837.335 2193.86 672.421 2175.72 649.457C2151.35 633.447 2103.9 679.454 2091.86 684.107C2079.05 683.778 2007.34 670.671 1995.48 709.42C2000.32 735.002 2111.25 844.349 2113.16 846.073C2114.22 847.03 1961.24 779.352 1944.46 803.512C1938.21 841.22 1951.36 862.169 1955.99 881.804C1958.95 908.009 1950.59 942.993 1971.53 960.708C2002.28 969.329 2113.27 860.711 2116.77 861.688C2120.54 862.742 2024.59 987.819 2043.69 1018.96C2061.77 1034 2113.85 1019.92 2129.14 1016.87C2148.53 1021.2 2179.28 1029.64 2198.28 1013.78C2211.51 995.886 2133.1 859.077 2134.54 858.797Z" fill="#fcfcfc" fill-rule="nonzero" opacity="1" stroke="#000000" stroke-linecap="round" stroke-linejoin="round" stroke-width="6.08"/>
<path d="M1910.46 1027.86C1916.19 1052.26 2079.1 1074.61 2209.78 1074.71C2315.3 1074.78 2403.71 1074.18 2501.53 1034.72C2499.47 1066.96 2485.26 1074.41 2481.72 1083.23C2476.95 1095.09 2478.71 1102.56 2481.32 1109.18C2484.64 1117.59 2513.72 1190.69 2504.32 1246.6C2491.08 1325.42 2281.4 1327.15 2199.75 1326.32C2007.98 1324.39 1893.4 1295.13 1894.09 1239.28C1894.73 1187.11 1926.89 1137.25 1928.5 1099.12C1928.7 1094.26 1926.18 1076.19 1922.18 1072.18C1918.8 1068.81 1902.88 1057.06 1910.46 1027.86Z" fill="#000000" fill-rule="nonzero" opacity="1" stroke="#000000" stroke-linecap="round" stroke-linejoin="round" stroke-width="6.07544"/>
</g>
</g>
<path d="M1868.32 416.4L3173.93 416.4L3173.93 1202.1L1868.32 1202.1L1868.32 416.4Z" fill="none" opacity="1" stroke="#000000" stroke-linecap="round" stroke-linejoin="round" stroke-width="6"/>
</g>
</svg>
