<?xml version="1.0" encoding="UTF-8" standalone="no"?>
<!DOCTYPE svg PUBLIC "-//W3C//DTD SVG 1.1//EN" "http://www.w3.org/Graphics/SVG/1.1/DTD/svg11.dtd">
<!-- Created with Vectornator (http://vectornator.io/) -->
<svg height="100%" stroke-miterlimit="10" style="fill-rule:nonzero;clip-rule:evenodd;stroke-linecap:round;stroke-linejoin:round;" version="1.1" viewBox="0 0 3370.82 2384.24" width="100%" xml:space="preserve" xmlns="http://www.w3.org/2000/svg" xmlns:vectornator="http://vectornator.io" xmlns:xlink="http://www.w3.org/1999/xlink">
<defs>
<filter color-interpolation-filters="sRGB" filterUnits="userSpaceOnUse" height="2185.82" id="Filter" width="1591.42" x="122.043" y="88.045">
<feDropShadow dx="12.6192" dy="26.6175" flood-color="#000000" flood-opacity="0.333" in="SourceGraphic" result="Shadow" stdDeviation="12.4612"/>
</filter>
<linearGradient gradientTransform="matrix(0.338643 0 0 0.338643 144.487 949.429)" gradientUnits="userSpaceOnUse" id="LinearGradient" x1="410.499" x2="811.333" y1="1963.39" y2="1963.39">
<stop offset="0" stop-color="#11256b"/>
<stop offset="0.704545" stop-color="#2a57fa"/>
<stop offset="1" stop-color="#8ba0ef"/>
</linearGradient>
<radialGradient cx="496.217" cy="1606.08" gradientTransform="matrix(1 0 0 1 -131.763 1.0416)" gradientUnits="userSpaceOnUse" id="RadialGradient" r="80.328">
<stop offset="0.818182" stop-color="#1c0740" stop-opacity="0.00224663"/>
<stop offset="1" stop-color="#000000"/>
</radialGradient>
<linearGradient gradientTransform="matrix(0.338643 0 0 0.338643 276.4 949.429)" gradientUnits="userSpaceOnUse" id="LinearGradient_2" x1="410.499" x2="811.333" y1="1963.39" y2="1963.39">
<stop offset="0" stop-color="#11256b"/>
<stop offset="0.704545" stop-color="#2a57fa"/>
<stop offset="1" stop-color="#8ba0ef"/>
</linearGradient>
<radialGradient cx="496.217" cy="1606.08" gradientTransform="matrix(1 0 0 1 0 0)" gradientUnits="userSpaceOnUse" id="RadialGradient_2" r="80.328">
<stop offset="0.818182" stop-color="#1c0740" stop-opacity="0.00224663"/>
<stop offset="1" stop-color="#000000"/>
</radialGradient>
<linearGradient gradientTransform="matrix(1 0 0 1 0 0)" gradientUnits="userSpaceOnUse" id="LinearGradient_3" x1="730.776" x2="541.797" y1="382.208" y2="1011.62">
<stop offset="0.159091" stop-color="#c9e7f6"/>
<stop offset="0.752066" stop-color="#0e8fc2"/>
</linearGradient>
<path d="M256.549 416.4L1562.17 416.4L1562.17 1202.1L256.549 1202.1L256.549 416.4Z" id="Fill"/>
</defs>
<g id="Capa-3" vectornator:layerName="Capa 3">
<path d="M143.577 95.5806L1666.7 95.5806L1666.7 2213.09L143.577 2213.09L143.577 95.5806Z" fill="#ffffff" fill-rule="nonzero" filter="url(#Filter)" stroke="#303030" stroke-linecap="round" stroke-linejoin="round" stroke-width="6" vectornator:shadowAngle="1.12809" vectornator:shadowColor="#000000" vectornator:shadowOffset="29.4574" vectornator:shadowOpacity="0.333" vectornator:shadowRadius="24.9225"/>
<g opacity="0">
<path d="M283.765 1606.09C283.765 1561.43 319.729 1525.23 364.093 1525.23C408.457 1525.23 444.421 1561.43 444.421 1606.09C444.421 1650.74 408.457 1686.94 364.093 1686.94C319.729 1686.94 283.765 1650.74 283.765 1606.09Z" fill="#1c0740" fill-rule="nonzero" opacity="1" stroke="none"/>
<path d="M419.24 1664.68C404.826 1678.51 385.312 1687 363.828 1687C319.464 1687 283.5 1650.8 283.5 1606.14C301.226 1545.49 375.849 1531.39 391.327 1548.21C382.439 1552.88 331.497 1574.16 336.494 1618.09C336.519 1618.31 344.519 1597.33 365.131 1594.21C365.616 1594.14 354.099 1604.84 351.184 1616.29C359.928 1607.96 368.523 1608.33 368.67 1608.58C369.06 1609.23 354.794 1627.17 355.835 1645.49C364.996 1628.42 386.638 1607.08 415.786 1606.04C403.918 1629.15 399.039 1641.13 419.234 1663.62" fill="url(#LinearGradient)" fill-rule="nonzero" opacity="1" stroke="none" vectornator:layerName="(oval)"/>
<path d="M284.126 1607.12C284.126 1562.46 320.09 1526.26 364.454 1526.26C408.818 1526.26 444.782 1562.46 444.782 1607.12C444.782 1651.78 408.818 1687.98 364.454 1687.98C320.09 1687.98 284.126 1651.78 284.126 1607.12Z" fill="url(#RadialGradient)" fill-rule="nonzero" opacity="1" stroke="none"/>
</g>
<g opacity="0">
<path d="M415.678 1606.09C415.678 1561.43 451.642 1525.23 496.005 1525.23C540.369 1525.23 576.333 1561.43 576.333 1606.09C576.333 1650.74 540.369 1686.94 496.005 1686.94C451.642 1686.94 415.678 1650.74 415.678 1606.09Z" fill="#1c0740" fill-rule="nonzero" opacity="1" stroke="none"/>
<path d="M551.152 1664.68C536.739 1678.51 517.225 1687 495.741 1687C451.377 1687 415.413 1650.8 415.413 1606.14C433.139 1545.49 507.761 1531.39 523.239 1548.21C514.351 1552.88 463.41 1574.16 468.406 1618.09C468.431 1618.31 476.431 1597.33 497.043 1594.21C497.528 1594.14 486.011 1604.84 483.096 1616.29C491.841 1607.96 500.436 1608.33 500.583 1608.58C500.973 1609.23 486.707 1627.17 487.748 1645.49C496.909 1628.42 518.55 1607.08 547.698 1606.04C535.831 1629.15 530.951 1641.13 551.147 1663.62" fill="url(#LinearGradient_2)" fill-rule="nonzero" opacity="1" stroke="none" vectornator:layerName="(oval)"/>
<path d="M415.889 1606.08C415.889 1561.42 451.853 1525.22 496.217 1525.22C540.581 1525.22 576.545 1561.42 576.545 1606.08C576.545 1650.73 540.581 1686.94 496.217 1686.94C451.853 1686.94 415.889 1650.73 415.889 1606.08Z" fill="url(#RadialGradient_2)" fill-rule="nonzero" opacity="1" stroke="none"/>
</g>
<path d="M289.055 293.809L1511.94 293.809C1527.26 293.809 1539.68 306.229 1539.68 321.55L1539.68 1084.04C1539.68 1099.36 1527.26 1111.78 1511.94 1111.78L289.055 1111.78C273.733 1111.78 261.313 1099.36 261.313 1084.04L261.313 321.55C261.313 306.229 273.733 293.809 289.055 293.809Z" fill="url(#LinearGradient_3)" fill-rule="nonzero" opacity="0" stroke="none"/>
<g opacity="0">
<path d="M295.874 1113.57C274.172 1113.11 260.851 1104.07 261.286 1079.44C449.231 919.943 927.299 634.835 1031.46 537.053C1126.82 447.527 1127.74 422.552 1207.37 366.631C1362.59 257.643 1491.74 353.622 1486.39 441.202C1481.96 513.563 1449.1 583.582 1369.61 605.657C1281.95 630.004 1230.47 556.911 1160.88 595.439C1054.62 665.882 748.712 1015.02 711.296 1112.15C703.31 1109.5 375.134 1110.64 295.874 1113.57Z" fill="#5a7a91" fill-rule="nonzero" opacity="1" stroke="none"/>
<path d="M1461.62 529.117C1436.04 539.344 1419.61 543.396 1396.91 543.863C1388.55 544.035 1375.24 584.774 1349.93 592.199C1321.98 585.292 1308.75 549.925 1301.06 552.055C1264.09 562.295 1228.54 546.944 1208.9 529.578" fill="none" opacity="1" stroke="#000000" stroke-linecap="round" stroke-linejoin="round" stroke-width="3"/>
<path d="M1287.75 458.581C1295.02 424.21 1340.55 390.338 1363.63 399.043C1387.05 407.875 1388 433.643 1381.81 462.941C1374.9 495.69 1348.82 529.747 1324.05 529.747C1299.28 529.747 1280.83 491.328 1287.75 458.581Z" fill="#d0f0e3" fill-rule="nonzero" opacity="1" stroke="none"/>
<path d="M1310.97 475.108C1315.21 457.723 1341.74 440.591 1355.19 444.994C1368.83 449.461 1369.38 462.494 1365.78 477.313C1361.75 493.878 1346.55 511.104 1332.12 511.104C1317.69 511.104 1306.94 491.672 1310.97 475.108Z" fill="#000000" fill-rule="nonzero" opacity="1" stroke="none"/>
<path d="M1336.74 476.41C1338.38 468.716 1348.69 461.134 1353.91 463.082C1359.21 465.059 1359.43 470.827 1358.03 477.386C1356.46 484.717 1350.56 492.34 1344.95 492.34C1339.35 492.34 1335.17 483.74 1336.74 476.41Z" fill="#ffffff" fill-rule="nonzero" opacity="1" stroke="none"/>
<path d="M1393.65 463.096C1398.88 437.598 1427.03 411.266 1443.62 417.725C1460.45 424.277 1461.14 443.393 1456.69 465.128C1451.72 489.423 1432.97 514.689 1415.17 514.689C1397.37 514.689 1388.67 487.39 1393.65 463.096Z" fill="#d0f0e3" fill-rule="nonzero" opacity="1" stroke="none"/>
<path d="M1405.77 474.154C1408.82 461.257 1427.88 448.547 1437.55 451.814C1447.35 455.128 1447.75 464.797 1445.16 475.79C1442.27 488.079 1431.34 500.858 1420.97 500.858C1410.6 500.858 1402.87 486.442 1405.77 474.154Z" fill="#000000" fill-rule="nonzero" opacity="1" stroke="none"/>
<path d="M1419.96 477.577C1421.32 471.435 1429.85 465.382 1434.17 466.937C1438.56 468.516 1438.74 473.12 1437.58 478.356C1436.28 484.208 1431.4 490.295 1426.76 490.295C1422.12 490.295 1418.66 483.429 1419.96 477.577Z" fill="#ffffff" fill-rule="nonzero" opacity="1" stroke="none"/>
</g>
<g opacity="1">
<g fill="#303030" opacity="1" stroke="none">
<path d="M272.04 245.928L321.6 245.928L321.6 234.288L286.8 234.288L286.8 163.608L272.04 163.608L272.04 245.928Z"/>
<path d="M359.52 247.008C376.8 247.008 388.8 235.608 388.8 215.688L388.8 214.008C388.8 194.328 378.12 183.048 359.64 183.048C342.24 183.048 330.24 194.568 330.24 214.368L330.24 216.288C330.24 235.608 340.68 247.008 359.52 247.008ZM359.76 236.568C351.12 236.568 344.4 232.248 344.4 216.288L344.4 213.408C344.4 200.088 349.92 193.488 359.4 193.488C367.8 193.488 374.4 197.808 374.4 213.888L374.4 216.888C374.4 230.208 369 236.568 359.76 236.568Z"/>
<path d="M427.56 247.008C436.08 247.008 441.84 244.728 445.8 242.208L445.8 232.128C442.68 233.568 437.52 235.968 429.96 235.968C418.2 235.968 412.32 229.968 412.32 215.808L412.32 213.048C412.32 200.688 418.68 194.208 429 194.208C436.32 194.208 440.04 195.528 445.2 197.568L445.2 186.768C441.24 184.608 436.32 183.048 428.16 183.048C411 183.048 398.04 193.128 398.04 214.488L398.04 216.408C398.04 236.808 409.32 247.008 427.56 247.008Z"/>
<path d="M457.8 245.928L471.6 245.928L471.6 197.928C475.32 196.128 480.72 194.568 485.52 194.568C493.92 194.568 495.96 197.088 495.96 203.328L495.96 245.928L509.88 245.928L509.88 200.088C509.88 187.848 503.76 183.048 491.88 183.048C484.44 183.048 477.24 185.688 472.2 189.408L471.6 189.408L471.6 158.208L457.8 158.208L457.8 245.928Z"/>
<path d="M558.96 245.928L572.04 245.928L572.04 183.888L572.4 183.888L608.52 245.928L623.16 245.928L623.16 163.608L610.08 163.608L610.08 221.688L609.72 221.688L575.52 163.608L558.96 163.608L558.96 245.928Z"/>
<path d="M668.04 247.008C678.48 247.008 685.68 244.008 689.88 241.248L689.88 231.648C684.48 234.408 678.72 236.208 670.8 236.208C659.04 236.208 652.44 231.648 651.6 218.808L691.92 218.808L691.92 213.048C691.92 193.368 684 183.168 665.76 183.168C650.04 183.168 637.44 193.368 637.44 214.128L637.44 215.808C637.44 235.368 647.52 247.008 668.04 247.008ZM665.52 193.368C673.56 193.368 677.88 197.688 677.88 209.328L651.6 209.328C652.56 196.728 659.16 193.368 665.52 193.368Z"/>
<path d="M721.56 246.888C736.68 246.888 745.2 240.528 745.2 227.688C745.2 217.008 740.52 212.208 728.4 209.448L722.52 208.128C716.64 206.688 714.24 205.128 714.24 200.808C714.24 196.008 718.08 193.608 725.28 193.608C732.24 193.608 738.24 195.408 741.84 196.968L741.84 186.528C737.76 184.728 732.48 183.168 724.08 183.168C708.48 183.168 701.16 190.488 701.16 201.888C701.16 212.928 707.4 217.728 716.88 219.648L722.64 220.968C729.36 222.408 731.76 224.568 731.76 229.008C731.76 233.568 728.16 236.448 719.52 236.448C710.88 236.448 706.32 234.648 701.16 232.608L701.16 242.688C706.32 245.448 713.52 246.888 721.56 246.888Z"/>
<path d="M774.96 246.888C790.08 246.888 798.6 240.528 798.6 227.688C798.6 217.008 793.92 212.208 781.8 209.448L775.92 208.128C770.04 206.688 767.64 205.128 767.64 200.808C767.64 196.008 771.48 193.608 778.68 193.608C785.64 193.608 791.64 195.408 795.24 196.968L795.24 186.528C791.16 184.728 785.88 183.168 777.48 183.168C761.88 183.168 754.56 190.488 754.56 201.888C754.56 212.928 760.8 217.728 770.28 219.648L776.04 220.968C782.76 222.408 785.16 224.568 785.16 229.008C785.16 233.568 781.56 236.448 772.92 236.448C764.28 236.448 759.72 234.648 754.56 232.608L754.56 242.688C759.72 245.448 766.92 246.888 774.96 246.888Z"/>
<path d="M844.56 245.928L857.52 245.928L857.52 181.968L857.88 181.968L878.4 245.928L890.52 245.928L911.16 181.968L911.64 181.968L911.64 245.928L926.4 245.928L926.4 163.608L905.76 163.608L885.72 225.648L885.36 225.648L865.32 163.608L844.56 163.608L844.56 245.928Z"/>
<path d="M969.96 247.008C987.24 247.008 999.24 235.608 999.24 215.688L999.24 214.008C999.24 194.328 988.56 183.048 970.08 183.048C952.68 183.048 940.68 194.568 940.68 214.368L940.68 216.288C940.68 235.608 951.12 247.008 969.96 247.008ZM970.2 236.568C961.56 236.568 954.84 232.248 954.84 216.288L954.84 213.408C954.84 200.088 960.36 193.488 969.84 193.488C978.24 193.488 984.84 197.808 984.84 213.888L984.84 216.888C984.84 230.208 979.44 236.568 970.2 236.568Z"/>
<path d="M1011.96 245.928L1025.76 245.928L1025.76 197.928C1029.48 196.128 1034.88 194.568 1039.68 194.568C1048.08 194.568 1050.12 197.088 1050.12 203.328L1050.12 245.928L1064.04 245.928L1064.04 200.088C1064.04 187.848 1057.92 183.048 1046.04 183.048C1038.6 183.048 1031.04 185.808 1025.76 189.648L1025.28 189.648L1025.28 184.128L1011.96 184.128L1011.96 245.928Z"/>
<path d="M1096.92 246.888C1112.04 246.888 1120.56 240.528 1120.56 227.688C1120.56 217.008 1115.88 212.208 1103.76 209.448L1097.88 208.128C1092 206.688 1089.6 205.128 1089.6 200.808C1089.6 196.008 1093.44 193.608 1100.64 193.608C1107.6 193.608 1113.6 195.408 1117.2 196.968L1117.2 186.528C1113.12 184.728 1107.84 183.168 1099.44 183.168C1083.84 183.168 1076.52 190.488 1076.52 201.888C1076.52 212.928 1082.76 217.728 1092.24 219.648L1098 220.968C1104.72 222.408 1107.12 224.568 1107.12 229.008C1107.12 233.568 1103.52 236.448 1094.88 236.448C1086.24 236.448 1081.68 234.648 1076.52 232.608L1076.52 242.688C1081.68 245.448 1088.88 246.888 1096.92 246.888Z"/>
<path d="M1154.52 246.648C1160.28 246.648 1163.64 245.328 1166.04 244.128L1166.04 234.888C1163.88 235.488 1161.36 235.848 1158.96 235.848C1152.48 235.848 1150.56 233.928 1150.56 228.768L1150.56 194.928L1165.32 194.928L1165.32 184.128L1150.56 184.128L1150.56 169.608L1137 169.608L1137 184.128L1128.36 184.128L1128.36 194.928L1137 194.928L1137 230.688C1137 242.328 1143.84 246.648 1154.52 246.648Z"/>
<path d="M1205.76 247.008C1216.2 247.008 1223.4 244.008 1227.6 241.248L1227.6 231.648C1222.2 234.408 1216.44 236.208 1208.52 236.208C1196.76 236.208 1190.16 231.648 1189.32 218.808L1229.64 218.808L1229.64 213.048C1229.64 193.368 1221.72 183.168 1203.48 183.168C1187.76 183.168 1175.16 193.368 1175.16 214.128L1175.16 215.808C1175.16 235.368 1185.24 247.008 1205.76 247.008ZM1203.24 193.368C1211.28 193.368 1215.6 197.688 1215.6 209.328L1189.32 209.328C1190.28 196.728 1196.88 193.368 1203.24 193.368Z"/>
<path d="M1242.36 245.928L1256.16 245.928L1256.16 199.968C1260.12 197.448 1265.64 195.888 1271.16 195.888C1272.6 195.888 1274.64 196.008 1276.2 196.248L1276.2 184.008C1275.6 183.768 1274.04 183.648 1272.36 183.648C1265.88 183.648 1259.52 186.888 1256.16 191.328L1255.68 191.328L1255.68 184.128L1242.36 184.128L1242.36 245.928Z"/>
</g>
<path d="M1659.89 264.179L259.402 265.584" fill="none" opacity="1" stroke="#303030" stroke-linecap="square" stroke-linejoin="round" stroke-width="6"/>
<path d="M1379.23 101.397L1377.81 260.157" fill="none" opacity="1" stroke="#303030" stroke-linecap="square" stroke-linejoin="round" stroke-width="6"/>
<path d="M1400.37 99.1192L1663.24 99.1192L1663.24 263.695L1400.37 263.695L1400.37 99.1192Z" fill="#ffffff" fill-rule="nonzero" opacity="0" stroke="none"/>
<g fill="#303030" opacity="1" stroke="none">
<path d="M1467.6 213.66L1476.96 213.66L1476.96 151.74L1472.01 151.74L1456.8 158.58L1456.8 164.07L1467.6 161.73L1467.6 213.66Z"/>
<path d="M1515.48 214.38C1528.17 214.38 1538.34 206.19 1538.34 185.04L1538.34 180.45C1538.34 159.12 1527.99 151.38 1515.66 151.38C1503.24 151.38 1492.35 159.03 1492.35 180.81L1492.35 185.13C1492.35 205.92 1502.52 214.38 1515.48 214.38ZM1515.48 207C1506.75 207 1502.25 200.07 1502.25 185.4L1502.25 179.82C1502.25 165.24 1506.84 158.76 1515.57 158.76C1524.21 158.76 1528.71 165.51 1528.71 180.36L1528.71 185.94C1528.71 200.97 1524.21 207 1515.48 207Z"/>
<path d="M1572.99 214.38C1585.68 214.38 1595.85 206.19 1595.85 185.04L1595.85 180.45C1595.85 159.12 1585.5 151.38 1573.17 151.38C1560.75 151.38 1549.86 159.03 1549.86 180.81L1549.86 185.13C1549.86 205.92 1560.03 214.38 1572.99 214.38ZM1572.99 207C1564.26 207 1559.76 200.07 1559.76 185.4L1559.76 179.82C1559.76 165.24 1564.35 158.76 1573.08 158.76C1581.72 158.76 1586.22 165.51 1586.22 180.36L1586.22 185.94C1586.22 200.97 1581.72 207 1572.99 207Z"/>
</g>
</g>
<g opacity="1">
<g fill="#303030" opacity="1" stroke="none">
<path d="M1412.88 1736.23C1427.86 1736.23 1436.78 1726.73 1436.78 1714.53C1436.78 1700.61 1428.62 1693.89 1415.47 1693.89C1412.98 1693.89 1409.42 1694.47 1407.22 1695.05L1408.46 1679.01L1433.81 1679.01L1433.81 1669.8L1399.44 1669.8L1397.04 1705.99C1400.11 1704.45 1406.26 1702.44 1410.38 1702.44C1419.41 1702.44 1424.59 1705.89 1424.59 1714.25C1424.59 1722.21 1419.02 1726.63 1409.9 1726.63C1404.82 1726.63 1399.82 1724.81 1396.27 1722.69L1394.16 1731.72C1398.38 1734.31 1405.39 1736.23 1412.88 1736.23Z"/>
<path d="M1471.15 1736.42C1484.88 1736.42 1496.59 1727.69 1496.59 1704.55L1496.59 1700.42C1496.59 1677.29 1484.88 1668.74 1471.25 1668.74C1457.71 1668.74 1445.62 1677.19 1445.62 1700.71L1445.62 1704.84C1445.62 1727.21 1456.75 1736.42 1471.15 1736.42ZM1471.15 1727.4C1462.22 1727.4 1457.9 1720.1 1457.9 1704.84L1457.9 1699.75C1457.9 1684.39 1462.32 1677.86 1471.25 1677.86C1479.89 1677.86 1484.4 1684.77 1484.4 1700.42L1484.4 1705.32C1484.4 1721.06 1479.98 1727.4 1471.15 1727.4Z"/>
</g>
<path d="M737.1 1754.87L1530.9 1756.79" fill="#f9f9f9" fill-rule="nonzero" opacity="1" stroke="#303030" stroke-linecap="round" stroke-linejoin="round" stroke-width="6"/>
<g opacity="1">
<path d="M537.595 1741.19L548.981 1741.19L566.06 1686.02L566.498 1686.02L583.285 1741.19L594.524 1741.19L615.106 1668.79L604.451 1668.79L589.561 1726.74L588.978 1726.74L571.461 1668.79L561.827 1668.79L544.456 1726.74L543.872 1726.74L528.983 1668.79L517.013 1668.79L537.595 1741.19Z" fill="#303030" opacity="1" stroke="none"/>
<path d="M481.95 1615.95L652.05 1615.95L652.05 1786.05L481.95 1786.05L481.95 1615.95Z" fill="none" opacity="1" stroke="#303030" stroke-linecap="round" stroke-linejoin="round" stroke-width="6"/>
</g>
<g opacity="1">
<path d="M346.37 1741.19L357.756 1741.19L374.834 1686.02L375.272 1686.02L392.059 1741.19L403.299 1741.19L423.881 1668.79L413.225 1668.79L398.336 1726.74L397.752 1726.74L380.235 1668.79L370.601 1668.79L353.231 1726.74L352.647 1726.74L337.758 1668.79L325.788 1668.79L346.37 1741.19Z" fill="#303030" opacity="1" stroke="none"/>
<path d="M290.725 1615.95L460.825 1615.95L460.825 1786.05L290.725 1786.05L290.725 1615.95Z" fill="none" opacity="1" stroke="#303030" stroke-linecap="round" stroke-linejoin="round" stroke-width="6"/>
</g>
<g fill="#303030" opacity="1" stroke="none">
<path d="M760.104 1735.27L771.912 1735.27L771.912 1678.73L790.632 1678.73L790.632 1669.41L741.192 1669.41L741.192 1678.73L760.104 1678.73L760.104 1735.27Z"/>
<path d="M813.48 1736.04C825.576 1736.04 832.392 1730.95 832.392 1720.68C832.392 1712.13 828.648 1708.29 818.952 1706.09L814.248 1705.03C809.544 1703.88 807.624 1702.63 807.624 1699.17C807.624 1695.33 810.696 1693.41 816.456 1693.41C822.024 1693.41 826.824 1694.85 829.704 1696.1L829.704 1687.75C826.44 1686.31 822.216 1685.06 815.496 1685.06C803.016 1685.06 797.16 1690.92 797.16 1700.04C797.16 1708.87 802.152 1712.71 809.736 1714.25L814.344 1715.3C819.72 1716.45 821.64 1718.18 821.64 1721.73C821.64 1725.38 818.76 1727.69 811.848 1727.69C804.936 1727.69 801.288 1726.25 797.16 1724.61L797.16 1732.68C801.288 1734.88 807.048 1736.04 813.48 1736.04Z"/>
<path d="M857.352 1736.13C863.592 1736.13 868.392 1733.93 872.52 1730.95L873 1730.95L873.96 1735.27L883.56 1735.27L883.56 1685.83L872.52 1685.83L872.52 1724.23C869.352 1725.67 865.8 1727.21 861.48 1727.21C855.336 1727.21 853.416 1725 853.416 1719.62L853.416 1685.83L842.376 1685.83L842.376 1721.73C842.376 1731.43 847.752 1736.13 857.352 1736.13Z"/>
<path d="M896.52 1735.27L907.56 1735.27L907.56 1696.87C910.536 1695.43 914.856 1694.18 918.696 1694.18C925.416 1694.18 927.048 1696.2 927.048 1701.19L927.048 1735.27L938.184 1735.27L938.184 1698.6C938.184 1688.81 933.288 1684.97 923.784 1684.97C917.832 1684.97 911.784 1687.17 907.56 1690.25L907.176 1690.25L907.176 1685.83L896.52 1685.83L896.52 1735.27Z"/>
<path d="M963.336 1736.13C969.768 1736.13 973.704 1734.02 976.104 1731.24L976.68 1731.24L977.544 1735.27L986.664 1735.27L986.664 1699.75C986.664 1689.48 980.04 1685.06 968.616 1685.06C962.184 1685.06 956.904 1685.93 952.296 1687.75L952.296 1695.33C955.272 1694.66 959.496 1693.99 964.296 1693.99C972.648 1693.99 975.624 1695.53 975.624 1702.25L975.624 1705.99L964.008 1707.33C954.216 1708.77 948.168 1713 948.168 1722.12C948.168 1731.62 954.408 1736.13 963.336 1736.13ZM966.696 1728.36C962.184 1728.36 959.016 1726.25 959.016 1721.54C959.016 1716.55 961.608 1714.53 966.504 1714.15L975.624 1713.19L975.624 1725.38C973.8 1727.11 970.248 1728.36 966.696 1728.36Z"/>
<path d="M999.528 1735.27L1010.57 1735.27L1010.57 1696.87C1013.54 1695.33 1017.19 1694.18 1020.74 1694.18C1026.31 1694.18 1028.33 1696.2 1028.33 1701.09L1028.33 1735.27L1039.18 1735.27L1039.18 1699.17C1039.18 1698.21 1039.08 1697.73 1038.98 1696.97C1042.73 1695.14 1045.99 1694.18 1049.26 1694.18C1054.92 1694.18 1056.84 1696.2 1056.84 1701.09L1056.84 1735.27L1067.78 1735.27L1067.78 1698.5C1067.78 1688.71 1062.89 1684.97 1054.15 1684.97C1048.58 1684.97 1043.02 1687.08 1037.93 1690.53L1037.35 1690.53C1035.14 1686.69 1031.3 1684.97 1025.64 1684.97C1019.88 1684.97 1014.79 1687.27 1010.57 1690.25L1010.18 1690.25L1010.18 1685.83L999.528 1685.83L999.528 1735.27Z"/>
<path d="M1080.74 1735.27L1091.88 1735.27L1091.88 1685.83L1080.74 1685.83L1080.74 1735.27ZM1080.74 1677.67L1091.98 1677.67L1091.98 1667.59L1080.74 1667.59L1080.74 1677.67Z"/>
</g>
</g>
<g opacity="1">
<g fill="#303030" opacity="1" stroke="none">
<path d="M1419.12 1442.01L1431.02 1442.01L1431.02 1375.67L1424.78 1375.67L1408.08 1383.16L1408.08 1390.07L1419.12 1387.86L1419.12 1442.01Z"/>
<path d="M1471.15 1442.78C1484.88 1442.78 1496.59 1434.04 1496.59 1410.9L1496.59 1406.78C1496.59 1383.64 1484.88 1375.1 1471.25 1375.1C1457.71 1375.1 1445.62 1383.54 1445.62 1407.06L1445.62 1411.19C1445.62 1433.56 1456.75 1442.78 1471.15 1442.78ZM1471.15 1433.75C1462.22 1433.75 1457.9 1426.46 1457.9 1411.19L1457.9 1406.1C1457.9 1390.74 1462.32 1384.22 1471.25 1384.22C1479.89 1384.22 1484.4 1391.13 1484.4 1406.78L1484.4 1411.67C1484.4 1427.42 1479.98 1433.75 1471.15 1433.75Z"/>
</g>
<path d="M737.1 1461.22L1530.9 1463.14" fill="#f9f9f9" fill-rule="nonzero" opacity="1" stroke="#303030" stroke-linecap="round" stroke-linejoin="round" stroke-width="6"/>
<g fill="#303030" opacity="1" stroke="none">
<path d="M746.376 1441.62L758.184 1441.62L758.184 1415.03L768.264 1415.03L782.952 1441.62L795.816 1441.62L779.496 1412.54L779.496 1412.06C786.888 1409.18 791.4 1404.28 791.4 1395.06C791.4 1382.2 783.624 1375.77 768.456 1375.77L746.376 1375.77L746.376 1441.62ZM758.184 1406.87L758.184 1384.89L767.112 1384.89C775.56 1384.89 779.208 1387.96 779.208 1395.45C779.208 1403.13 775.752 1406.87 767.208 1406.87L758.184 1406.87Z"/>
<path d="M825.192 1442.49C839.016 1442.49 848.616 1433.37 848.616 1417.43L848.616 1416.09C848.616 1400.34 840.072 1391.32 825.288 1391.32C811.368 1391.32 801.768 1400.54 801.768 1416.38L801.768 1417.91C801.768 1433.37 810.12 1442.49 825.192 1442.49ZM825.384 1434.14C818.472 1434.14 813.096 1430.68 813.096 1417.91L813.096 1415.61C813.096 1404.95 817.512 1399.67 825.096 1399.67C831.816 1399.67 837.096 1403.13 837.096 1415.99L837.096 1418.39C837.096 1429.05 832.776 1434.14 825.384 1434.14Z"/>
<path d="M871.176 1442.49C877.608 1442.49 881.544 1440.38 883.944 1437.59L884.52 1437.59L885.384 1441.62L894.504 1441.62L894.504 1406.1C894.504 1395.83 887.88 1391.42 876.456 1391.42C870.024 1391.42 864.744 1392.28 860.136 1394.1L860.136 1401.69C863.112 1401.02 867.336 1400.34 872.136 1400.34C880.488 1400.34 883.464 1401.88 883.464 1408.6L883.464 1412.34L871.848 1413.69C862.056 1415.13 856.008 1419.35 856.008 1428.47C856.008 1437.98 862.248 1442.49 871.176 1442.49ZM874.536 1434.71C870.024 1434.71 866.856 1432.6 866.856 1427.9C866.856 1422.9 869.448 1420.89 874.344 1420.5L883.464 1419.54L883.464 1431.74C881.64 1433.46 878.088 1434.71 874.536 1434.71Z"/>
<path d="M907.368 1441.62L918.408 1441.62L918.408 1404.86C921.576 1402.84 925.992 1401.59 930.408 1401.59C931.56 1401.59 933.192 1401.69 934.44 1401.88L934.44 1392.09C933.96 1391.9 932.712 1391.8 931.368 1391.8C926.184 1391.8 921.096 1394.39 918.408 1397.94L918.024 1397.94L918.024 1392.18L907.368 1392.18L907.368 1441.62Z"/>
</g>
<path d="M382.968 1394.14L379.155 1414.77C379.155 1415.52 379.529 1415.89 380.277 1415.89C380.725 1415.89 381.847 1415.07 383.641 1413.43L396.651 1401.31C399.493 1398.62 402.483 1397.28 405.624 1397.28C410.558 1397.28 413.026 1399.44 413.026 1403.78C413.026 1408.12 410.11 1411.41 404.278 1413.65L387.455 1419.93C384.912 1420.98 383.641 1421.87 383.641 1422.62C383.641 1423.22 384.912 1424.04 387.455 1425.09L404.278 1431.37C410.11 1433.61 413.026 1436.83 413.026 1441.02C413.026 1445.5 410.558 1447.74 405.624 1447.74C402.483 1447.74 399.493 1446.4 396.651 1443.71L383.641 1431.59C381.847 1429.95 380.725 1429.13 380.277 1429.13C379.529 1429.13 379.155 1429.5 379.155 1430.25L379.155 1431.15L379.604 1433.84L382.968 1450.89C383.268 1452.38 383.417 1453.65 383.417 1454.7C383.417 1460.98 380.95 1464.12 376.015 1464.12C371.08 1464.12 368.613 1460.98 368.613 1454.7C368.613 1453.5 368.762 1452.23 369.061 1450.89L372.65 1433.84C372.949 1432.34 373.099 1431.22 373.099 1430.47C373.099 1429.58 372.725 1429.13 371.977 1429.13C371.529 1429.13 370.407 1429.95 368.613 1431.59L355.603 1443.71C352.761 1446.4 349.696 1447.74 346.406 1447.74C341.621 1447.74 339.228 1445.58 339.228 1441.24C339.228 1436.9 342.144 1433.61 347.976 1431.37L364.575 1425.09C367.117 1424.04 368.388 1423.22 368.388 1422.62C368.388 1421.73 367.117 1420.83 364.575 1419.93L347.976 1413.65C342.144 1411.41 339.228 1408.19 339.228 1404C339.228 1399.67 341.696 1397.5 346.63 1397.5C349.92 1397.5 352.911 1398.77 355.603 1401.31L368.613 1413.43C370.407 1415.07 371.529 1415.89 371.977 1415.89C372.725 1415.89 373.099 1415.44 373.099 1414.55C373.099 1413.8 372.949 1412.68 372.65 1411.18L369.061 1394.14C368.762 1392.79 368.613 1391.52 368.613 1390.32C368.613 1383.89 371.08 1380.68 376.015 1380.68C380.95 1380.68 383.417 1383.89 383.417 1390.32C383.417 1391.37 383.268 1392.64 382.968 1394.14Z" fill="#303030" opacity="1" stroke="none"/>
<path d="M290.725 1337.05L460.825 1337.05L460.825 1507.15L290.725 1507.15L290.725 1337.05Z" fill="none" opacity="1" stroke="#303030" stroke-linecap="round" stroke-linejoin="round" stroke-width="6"/>
</g>
<g fill="#5e5e5e" opacity="1" stroke="none">
<path d="M755.46 2152.47L766.532 2152.47L766.532 2091.22L755.46 2091.22L755.46 2152.47Z"/>
<path d="M781.264 2152.47L801.444 2152.47C821.088 2152.47 830.642 2141.67 830.642 2122.02L830.642 2120.24C830.642 2100.24 820.106 2091.22 801.355 2091.22L781.264 2091.22L781.264 2152.47ZM792.247 2143.81L792.247 2099.88L800.73 2099.88C812.337 2099.88 819.034 2104.7 819.034 2120.15L819.034 2123.1C819.034 2137.92 813.498 2143.81 801.533 2143.81L792.247 2143.81Z"/>
<path d="M841.535 2115.95L852.429 2115.95L852.429 2105.42L841.535 2105.42L841.535 2115.95ZM841.535 2148.28L852.429 2148.28L852.429 2137.74L841.535 2137.74L841.535 2148.28Z"/>
<path d="M883.859 2152.47L894.038 2152.47L899.574 2136.94L922.343 2136.94L927.879 2152.47L939.219 2152.47L917.432 2091.22L906.181 2091.22L883.859 2152.47ZM910.735 2104.26L911.003 2104.26L919.575 2128.72L902.163 2128.72L910.735 2104.26Z"/>
<path d="M942.79 2132.02L967.345 2132.02L967.345 2123.45L942.79 2123.45L942.79 2132.02Z"/>
<path d="M1000.03 2153.54C1012.79 2153.54 1023.69 2145.42 1023.69 2123.9L1023.69 2120.06C1023.69 2098.54 1012.79 2090.59 1000.11 2090.59C987.525 2090.59 976.274 2098.45 976.274 2120.33L976.274 2124.17C976.274 2144.97 986.632 2153.54 1000.03 2153.54ZM1000.03 2145.15C991.721 2145.15 987.703 2138.36 987.703 2124.17L987.703 2119.43C987.703 2105.15 991.81 2099.08 1000.11 2099.08C1008.15 2099.08 1012.35 2105.51 1012.35 2120.06L1012.35 2124.61C1012.35 2139.26 1008.24 2145.15 1000.03 2145.15Z"/>
<path d="M1059.4 2153.45L1069.76 2153.45L1069.76 2140.95L1078.78 2140.95L1078.78 2132.83L1069.76 2132.83L1069.76 2091.22L1062.26 2091.22L1031.28 2134.52L1031.28 2140.95L1059.4 2140.95L1059.4 2153.45ZM1043.24 2132.83L1059.49 2109.79L1059.49 2132.83L1043.24 2132.83Z"/>
</g>
<g opacity="1">
<use fill="none" opacity="1" stroke="#000000" stroke-linecap="round" stroke-linejoin="round" stroke-width="6" xlink:href="#Fill"/>
<clipPath id="ClipPath">
<use xlink:href="#Fill"/>
</clipPath>
<g clip-path="url(#ClipPath)">
<g opacity="1" vectornator:layerName="(curve)">
<path d="M867.361 1221.33C898.786 979.325 914.341 870.18 932.726 780.719C932.726 780.719 949.543 717.719 968.579 716.521C986.792 715.374 996.775 722.035 1035.69 819.591C1106.15 826.932 1180.93 834.702 1236.77 842.633C1239.6 838.378 1300 754.007 1322.35 751.323C1364.48 733.183 1336.72 1061.99 1349.43 1255.01" fill="#ffffff" fill-rule="nonzero" opacity="1" stroke="#000000" stroke-linecap="round" stroke-linejoin="round" stroke-width="6.07544"/>
<path d="M1203.48 1108.7C1188.4 1078.06 1200.26 1032.11 1234.73 1013.57C1269.2 995.027 1314.48 1015.42 1329.56 1046.06C1341.09 1069.49 1341.58 1096.91 1321.49 1120.03C1315.29 1127.16 1308.01 1133.23 1299.89 1137.59C1265.42 1156.14 1218.56 1139.34 1203.48 1108.7Z" fill="#ffc4cc" fill-rule="nonzero" opacity="1" stroke="none"/>
<path d="M905.523 1077.59C890.44 1046.95 902.303 1001 936.773 982.462C971.244 963.92 1016.52 984.317 1031.6 1014.96C1043.13 1038.38 1043.62 1065.8 1023.53 1088.92C1017.34 1096.05 1010.05 1102.12 1001.93 1106.49C967.461 1125.03 920.606 1108.23 905.523 1077.59Z" fill="#ffc4cc" fill-rule="nonzero" opacity="1" stroke="none"/>
<path d="M1183.32 1056.96C1152.37 1006.68 1164.34 925.252 1213.72 897.403C1263.1 869.554 1345.41 883.926 1376.36 934.201C1407.31 984.476 1393.68 1067.61 1344.3 1095.46C1294.92 1123.31 1214.27 1107.23 1183.32 1056.96Z" fill="none" opacity="1" stroke="#000000" stroke-linecap="round" stroke-linejoin="round" stroke-width="6.07544" vectornator:layerName="(rectangle)"/>
<path d="M879.737 1024.15C844.379 978.346 851.745 883.091 900.626 856.497C962.989 822.568 1054.52 852.406 1075.94 905.529C1100.65 966.808 1067.97 1046.56 1023.18 1058.82C969.507 1073.51 916.268 1071.47 879.737 1024.15Z" fill="none" opacity="1" stroke="#000000" stroke-linecap="round" stroke-linejoin="round" stroke-width="6.07544" vectornator:layerName="(rectangle)"/>
<path d="M1084.13 947.494C1111.79 945.995 1133.68 944.647 1172.72 950.392" fill="none" opacity="1" stroke="#000000" stroke-linecap="round" stroke-linejoin="round" stroke-width="6.07544"/>
<path d="M1124.6 981.664C1137.9 981.664 1151.51 986.277 1151.62 995.346L1151.62 995.346C1151.15 1005.72 1137.87 1009.03 1124.57 1009.03C1111.28 1009.03 1098.34 1004.46 1098.43 995.346L1098.43 995.346C1098.85 985.678 1111.3 981.664 1124.6 981.664Z" fill="#000000" fill-rule="nonzero" opacity="1" stroke="#000000" stroke-linecap="round" stroke-linejoin="round" stroke-width="6.07544"/>
</g>
<path d="M795.742 956.496C793.239 937.722 795.429 757.178 703.123 658.614C610.817 560.05 478.062 512.263 402.738 553.479C336.402 589.775 306.051 638.588 333.899 706.175C361.748 773.761 509.75 743.097 580.466 806.303C651.182 869.509 648.053 972.767 648.053 972.767" fill="#ffffff" fill-rule="nonzero" opacity="1" stroke="#000000" stroke-linecap="butt" stroke-linejoin="round" stroke-width="6.07544"/>
<path d="M202.446 930.825C214.881 929.167 307.457 773.778 307.457 773.778C307.457 773.778 403.346 905.885 502.52 904.693C601.694 903.5 685.801 797.342 685.801 797.342C685.801 797.342 762.538 896.278 869.082 898.147C975.679 900.017 1086.4 790.797 1086.4 790.797C1086.4 790.797 1184.27 904.793 1269.68 903.384C1356.92 901.944 1441.18 788.178 1441.18 788.178C1441.18 788.178 1572.73 944.033 1636.38 930.973C1637.77 928.858 1658.08 941.938 1658.08 955.465L1658.08 1178.56C1658.08 1192.09 1648.37 1203.05 1636.38 1203.05L202.446 1202.9C190.464 1202.9 180.75 1191.94 180.75 1178.41L180.75 955.317C180.75 941.79 202.943 930.027 202.446 930.825Z" fill="#ffffff" fill-rule="nonzero" opacity="1" stroke="#000000" stroke-linecap="round" stroke-linejoin="round" stroke-width="6.07544"/>
</g>
</g>
<path d="M256.549 416.4L1562.17 416.4L1562.17 1202.1L256.549 1202.1L256.549 416.4Z" fill="none" opacity="1" stroke="#000000" stroke-linecap="round" stroke-linejoin="round" stroke-width="6"/>
</g>
</svg>
