<?xml version="1.0" encoding="UTF-8" standalone="no"?>
<!DOCTYPE svg PUBLIC "-//W3C//DTD SVG 1.1//EN" "http://www.w3.org/Graphics/SVG/1.1/DTD/svg11.dtd">
<!-- Created with Vectornator (http://vectornator.io/) -->
<svg height="100%" stroke-miterlimit="10" style="fill-rule:nonzero;clip-rule:evenodd;stroke-linecap:round;stroke-linejoin:round;" version="1.1" viewBox="0 0 3370.82 2384.24" width="100%" xml:space="preserve" xmlns="http://www.w3.org/2000/svg" xmlns:vectornator="http://vectornator.io" xmlns:xlink="http://www.w3.org/1999/xlink">
<defs>
<filter color-interpolation-filters="sRGB" filterUnits="userSpaceOnUse" height="2185.82" id="Filter" width="1591.42" x="122.043" y="88.045">
<feDropShadow dx="12.6192" dy="26.6175" flood-color="#000000" flood-opacity="0.333" in="SourceGraphic" result="Shadow" stdDeviation="12.4612"/>
</filter>
<linearGradient gradientTransform="matrix(0.338643 0 0 0.338643 144.487 949.429)" gradientUnits="userSpaceOnUse" id="LinearGradient" x1="410.499" x2="811.333" y1="1963.39" y2="1963.39">
<stop offset="0" stop-color="#11256b"/>
<stop offset="0.704545" stop-color="#2a57fa"/>
<stop offset="1" stop-color="#8ba0ef"/>
</linearGradient>
<radialGradient cx="496.217" cy="1606.08" gradientTransform="matrix(1 0 0 1 -131.763 1.0416)" gradientUnits="userSpaceOnUse" id="RadialGradient" r="80.328">
<stop offset="0.818182" stop-color="#1c0740" stop-opacity="0.00224663"/>
<stop offset="1" stop-color="#000000"/>
</radialGradient>
<linearGradient gradientTransform="matrix(0.338643 0 0 0.338643 276.4 949.429)" gradientUnits="userSpaceOnUse" id="LinearGradient_2" x1="410.499" x2="811.333" y1="1963.39" y2="1963.39">
<stop offset="0" stop-color="#11256b"/>
<stop offset="0.704545" stop-color="#2a57fa"/>
<stop offset="1" stop-color="#8ba0ef"/>
</linearGradient>
<radialGradient cx="496.217" cy="1606.08" gradientTransform="matrix(1 0 0 1 0 0)" gradientUnits="userSpaceOnUse" id="RadialGradient_2" r="80.328">
<stop offset="0.818182" stop-color="#1c0740" stop-opacity="0.00224663"/>
<stop offset="1" stop-color="#000000"/>
</radialGradient>
<linearGradient gradientTransform="matrix(1 0 0 1 0 0)" gradientUnits="userSpaceOnUse" id="LinearGradient_3" x1="730.776" x2="541.797" y1="382.208" y2="1011.62">
<stop offset="0.159091" stop-color="#c9e7f6"/>
<stop offset="0.752066" stop-color="#0e8fc2"/>
</linearGradient>
<path d="M256.549 416.4L1562.17 416.4L1562.17 1202.1L256.549 1202.1L256.549 416.4Z" id="Fill"/>
</defs>
<g id="Capa-3-copiar" vectornator:layerName="Capa 3 copiar">
<path d="M143.577 95.5806L1666.7 95.5806L1666.7 2213.09L143.577 2213.09L143.577 95.5806Z" fill="#ffffff" fill-rule="nonzero" filter="url(#Filter)" stroke="#303030" stroke-linecap="round" stroke-linejoin="round" stroke-width="6" vectornator:shadowAngle="1.12809" vectornator:shadowColor="#000000" vectornator:shadowOffset="29.4574" vectornator:shadowOpacity="0.333" vectornator:shadowRadius="24.9225"/>
<g opacity="0">
<path d="M283.765 1606.09C283.765 1561.43 319.729 1525.23 364.093 1525.23C408.457 1525.23 444.421 1561.43 444.421 1606.09C444.421 1650.74 408.457 1686.94 364.093 1686.94C319.729 1686.94 283.765 1650.74 283.765 1606.09Z" fill="#1c0740" fill-rule="nonzero" opacity="1" stroke="none"/>
<path d="M419.24 1664.68C404.826 1678.51 385.312 1687 363.828 1687C319.464 1687 283.5 1650.8 283.5 1606.14C301.226 1545.49 375.849 1531.39 391.327 1548.21C382.439 1552.88 331.497 1574.16 336.494 1618.09C336.519 1618.31 344.519 1597.33 365.131 1594.21C365.616 1594.14 354.099 1604.84 351.184 1616.29C359.928 1607.96 368.523 1608.33 368.67 1608.58C369.06 1609.23 354.794 1627.17 355.835 1645.49C364.996 1628.42 386.638 1607.08 415.786 1606.04C403.918 1629.15 399.039 1641.13 419.234 1663.62" fill="url(#LinearGradient)" fill-rule="nonzero" opacity="1" stroke="none" vectornator:layerName="(oval)"/>
<path d="M284.126 1607.12C284.126 1562.46 320.09 1526.26 364.454 1526.26C408.818 1526.26 444.782 1562.46 444.782 1607.12C444.782 1651.78 408.818 1687.98 364.454 1687.98C320.09 1687.98 284.126 1651.78 284.126 1607.12Z" fill="url(#RadialGradient)" fill-rule="nonzero" opacity="1" stroke="none"/>
</g>
<g opacity="0">
<path d="M415.678 1606.09C415.678 1561.43 451.642 1525.23 496.005 1525.23C540.369 1525.23 576.333 1561.43 576.333 1606.09C576.333 1650.74 540.369 1686.94 496.005 1686.94C451.642 1686.94 415.678 1650.74 415.678 1606.09Z" fill="#1c0740" fill-rule="nonzero" opacity="1" stroke="none"/>
<path d="M551.152 1664.68C536.739 1678.51 517.225 1687 495.741 1687C451.377 1687 415.413 1650.8 415.413 1606.14C433.139 1545.49 507.761 1531.39 523.239 1548.21C514.351 1552.88 463.41 1574.16 468.406 1618.09C468.431 1618.31 476.431 1597.33 497.043 1594.21C497.528 1594.14 486.011 1604.84 483.096 1616.29C491.841 1607.96 500.436 1608.33 500.583 1608.58C500.973 1609.23 486.707 1627.17 487.748 1645.49C496.909 1628.42 518.55 1607.08 547.698 1606.04C535.831 1629.15 530.951 1641.13 551.147 1663.62" fill="url(#LinearGradient_2)" fill-rule="nonzero" opacity="1" stroke="none" vectornator:layerName="(oval)"/>
<path d="M415.889 1606.08C415.889 1561.42 451.853 1525.22 496.217 1525.22C540.581 1525.22 576.545 1561.42 576.545 1606.08C576.545 1650.73 540.581 1686.94 496.217 1686.94C451.853 1686.94 415.889 1650.73 415.889 1606.08Z" fill="url(#RadialGradient_2)" fill-rule="nonzero" opacity="1" stroke="none"/>
</g>
<path d="M289.055 293.809L1511.94 293.809C1527.26 293.809 1539.68 306.229 1539.68 321.55L1539.68 1084.04C1539.68 1099.36 1527.26 1111.78 1511.94 1111.78L289.055 1111.78C273.733 1111.78 261.313 1099.36 261.313 1084.04L261.313 321.55C261.313 306.229 273.733 293.809 289.055 293.809Z" fill="url(#LinearGradient_3)" fill-rule="nonzero" opacity="0" stroke="none"/>
<g opacity="0">
<path d="M295.874 1113.57C274.172 1113.11 260.851 1104.07 261.286 1079.44C449.231 919.943 927.299 634.835 1031.46 537.053C1126.82 447.527 1127.74 422.552 1207.37 366.631C1362.59 257.643 1491.74 353.622 1486.39 441.202C1481.96 513.563 1449.1 583.582 1369.61 605.657C1281.95 630.004 1230.47 556.911 1160.88 595.439C1054.62 665.882 748.712 1015.02 711.296 1112.15C703.31 1109.5 375.134 1110.64 295.874 1113.57Z" fill="#5a7a91" fill-rule="nonzero" opacity="1" stroke="none"/>
<path d="M1461.62 529.117C1436.04 539.344 1419.61 543.396 1396.91 543.863C1388.55 544.035 1375.24 584.774 1349.93 592.199C1321.98 585.292 1308.75 549.925 1301.06 552.055C1264.09 562.295 1228.54 546.944 1208.9 529.578" fill="none" opacity="1" stroke="#000000" stroke-linecap="round" stroke-linejoin="round" stroke-width="3"/>
<path d="M1287.75 458.581C1295.02 424.21 1340.55 390.338 1363.63 399.043C1387.05 407.875 1388 433.643 1381.81 462.941C1374.9 495.69 1348.82 529.747 1324.05 529.747C1299.28 529.747 1280.83 491.328 1287.75 458.581Z" fill="#d0f0e3" fill-rule="nonzero" opacity="1" stroke="none"/>
<path d="M1310.97 475.108C1315.21 457.723 1341.74 440.591 1355.19 444.994C1368.83 449.461 1369.38 462.494 1365.78 477.313C1361.75 493.878 1346.55 511.104 1332.12 511.104C1317.69 511.104 1306.94 491.672 1310.97 475.108Z" fill="#000000" fill-rule="nonzero" opacity="1" stroke="none"/>
<path d="M1336.74 476.41C1338.38 468.716 1348.69 461.134 1353.91 463.082C1359.21 465.059 1359.43 470.827 1358.03 477.386C1356.46 484.717 1350.56 492.34 1344.95 492.34C1339.35 492.34 1335.17 483.74 1336.74 476.41Z" fill="#ffffff" fill-rule="nonzero" opacity="1" stroke="none"/>
<path d="M1393.65 463.096C1398.88 437.598 1427.03 411.266 1443.62 417.725C1460.45 424.277 1461.14 443.393 1456.69 465.128C1451.72 489.423 1432.97 514.689 1415.17 514.689C1397.37 514.689 1388.67 487.39 1393.65 463.096Z" fill="#d0f0e3" fill-rule="nonzero" opacity="1" stroke="none"/>
<path d="M1405.77 474.154C1408.82 461.257 1427.88 448.547 1437.55 451.814C1447.35 455.128 1447.75 464.797 1445.16 475.79C1442.27 488.079 1431.34 500.858 1420.97 500.858C1410.6 500.858 1402.87 486.442 1405.77 474.154Z" fill="#000000" fill-rule="nonzero" opacity="1" stroke="none"/>
<path d="M1419.96 477.577C1421.32 471.435 1429.85 465.382 1434.17 466.937C1438.56 468.516 1438.74 473.12 1437.58 478.356C1436.28 484.208 1431.4 490.295 1426.76 490.295C1422.12 490.295 1418.66 483.429 1419.96 477.577Z" fill="#ffffff" fill-rule="nonzero" opacity="1" stroke="none"/>
</g>
<g opacity="1">
<path d="M1659.89 264.179L259.402 265.584" fill="none" opacity="1" stroke="#303030" stroke-linecap="square" stroke-linejoin="round" stroke-width="6"/>
<path d="M1379.23 101.397L1377.81 260.157" fill="none" opacity="1" stroke="#303030" stroke-linecap="square" stroke-linejoin="round" stroke-width="6"/>
<path d="M1400.37 99.1192L1663.24 99.1192L1663.24 263.695L1400.37 263.695L1400.37 99.1192Z" fill="#ffffff" fill-rule="nonzero" opacity="0" stroke="none"/>
<g fill="#303030" opacity="1" stroke="none" vectornator:layerName="Text">
<path d="M291.6 247.368C311.52 247.368 321 237.648 321 222.048C321 207.408 313.2 202.008 300.24 198.288L292.56 195.888C284.4 193.608 282 190.848 282 184.368C282 177.768 286.8 174.168 295.44 174.168C304.56 174.168 311.28 176.088 316.44 178.248L316.44 166.728C311.88 164.328 306 162.288 295.2 162.288C276.6 162.288 267.6 171.768 267.6 185.688C267.6 199.608 274.68 205.848 286.32 209.088L294.12 211.248C303.12 214.008 306.12 216.648 306.12 223.488C306.12 230.928 301.44 235.488 290.4 235.488C281.4 235.488 273.6 233.328 267 230.448L267 242.088C272.64 245.088 280.8 247.368 291.6 247.368Z"/>
<path d="M349.8 247.008C357.84 247.008 362.76 244.368 365.76 240.888L366.48 240.888L367.56 245.928L378.96 245.928L378.96 201.528C378.96 188.688 370.68 183.168 356.4 183.168C348.36 183.168 341.76 184.248 336 186.528L336 196.008C339.72 195.168 345 194.328 351 194.328C361.44 194.328 365.16 196.248 365.16 204.648L365.16 209.328L350.64 211.008C338.4 212.808 330.84 218.088 330.84 229.488C330.84 241.368 338.64 247.008 349.8 247.008ZM354 237.288C348.36 237.288 344.4 234.648 344.4 228.768C344.4 222.528 347.64 220.008 353.76 219.528L365.16 218.328L365.16 233.568C362.88 235.728 358.44 237.288 354 237.288Z"/>
<path d="M395.04 245.928L408.84 245.928L408.84 197.928C412.56 196.128 417.96 194.568 422.76 194.568C431.16 194.568 433.2 197.088 433.2 203.328L433.2 245.928L447.12 245.928L447.12 200.088C447.12 187.848 441 183.048 429.12 183.048C421.68 183.048 414.12 185.808 408.84 189.648L408.36 189.648L408.36 184.128L395.04 184.128L395.04 245.928Z"/>
<path d="M496.2 245.928L510.96 245.928L510.96 211.248L538.8 211.248L538.8 199.848L510.96 199.848L510.96 175.248L546.72 175.248L546.72 163.608L496.2 163.608L496.2 245.928Z"/>
<path d="M586.92 247.008C597.36 247.008 604.56 244.008 608.76 241.248L608.76 231.648C603.36 234.408 597.6 236.208 589.68 236.208C577.92 236.208 571.32 231.648 570.48 218.808L610.8 218.808L610.8 213.048C610.8 193.368 602.88 183.168 584.64 183.168C568.92 183.168 556.32 193.368 556.32 214.128L556.32 215.808C556.32 235.368 566.4 247.008 586.92 247.008ZM584.4 193.368C592.44 193.368 596.76 197.688 596.76 209.328L570.48 209.328C571.44 196.728 578.04 193.368 584.4 193.368Z"/>
<path d="M623.52 245.928L637.32 245.928L637.32 199.968C641.28 197.448 646.8 195.888 652.32 195.888C653.76 195.888 655.8 196.008 657.36 196.248L657.36 184.008C656.76 183.768 655.2 183.648 653.52 183.648C647.04 183.648 640.68 186.888 637.32 191.328L636.84 191.328L636.84 184.128L623.52 184.128L623.52 245.928Z"/>
<path d="M668.76 245.928L682.56 245.928L682.56 197.928C686.28 196.008 690.84 194.568 695.28 194.568C702.24 194.568 704.76 197.088 704.76 203.208L704.76 245.928L718.32 245.928L718.32 200.808C718.32 199.608 718.2 199.008 718.08 198.048C722.76 195.768 726.84 194.568 730.92 194.568C738 194.568 740.4 197.088 740.4 203.208L740.4 245.928L754.08 245.928L754.08 199.968C754.08 187.728 747.96 183.048 737.04 183.048C730.08 183.048 723.12 185.688 716.76 190.008L716.04 190.008C713.28 185.208 708.48 183.048 701.4 183.048C694.2 183.048 687.84 185.928 682.56 189.648L682.08 189.648L682.08 184.128L668.76 184.128L668.76 245.928Z"/>
<path d="M769.907 186.981L786.841 186.981L786.841 250.848L769.907 250.848L769.907 186.981ZM780.044 160.848L798.677 160.848L780.864 178.368L768.794 178.368L780.044 160.848Z"/>
<path d="M803.38 245.928L817.18 245.928L817.18 197.928C820.9 196.128 826.3 194.568 831.1 194.568C839.5 194.568 841.54 197.088 841.54 203.328L841.54 245.928L855.46 245.928L855.46 200.088C855.46 187.848 849.34 183.048 837.46 183.048C830.02 183.048 822.46 185.808 817.18 189.648L816.7 189.648L816.7 184.128L803.38 184.128L803.38 245.928Z"/>
<path d="M904.54 245.928L935.38 245.928C954.82 245.928 964.06 236.088 964.06 222.408C964.06 210.408 957.34 204.648 947.02 202.728L947.02 202.368C956.86 199.248 960.46 193.008 960.46 184.368C960.46 171.288 952.3 163.608 933.34 163.608L904.54 163.608L904.54 245.928ZM919.18 234.888L919.18 208.488L932.5 208.488C942.94 208.488 948.58 212.088 948.58 221.568C948.58 230.568 943.3 234.888 933.34 234.888L919.18 234.888ZM919.18 198.648L919.18 174.528L931.3 174.528C940.78 174.528 945.82 177.528 945.82 186.408C945.82 195.768 939.34 198.648 930.7 198.648L919.18 198.648Z"/>
<path d="M995.86 247.008C1003.66 247.008 1009.66 244.248 1014.82 240.528L1015.42 240.528L1016.62 245.928L1028.62 245.928L1028.62 184.128L1014.82 184.128L1014.82 232.128C1010.86 233.928 1006.42 235.848 1001.02 235.848C993.34 235.848 990.94 233.088 990.94 226.368L990.94 184.128L977.14 184.128L977.14 229.008C977.14 241.128 983.86 247.008 995.86 247.008Z"/>
<path d="M1045.06 245.928L1058.98 245.928L1058.98 158.208L1045.06 158.208L1045.06 245.928Z"/>
<path d="M1075.9 245.928L1089.82 245.928L1089.82 158.208L1075.9 158.208L1075.9 245.928Z"/>
</g>
<g fill="#303030" opacity="1" stroke="none">
<path d="M1462.38 213.48L1472.82 213.48L1495.68 158.31L1495.68 152.64L1456.26 152.64L1456.26 160.11L1485.42 160.11L1462.38 213.48Z"/>
<path d="M1526.19 214.38C1538.88 214.38 1549.05 206.19 1549.05 185.04L1549.05 180.45C1549.05 159.12 1538.7 151.38 1526.37 151.38C1513.95 151.38 1503.06 159.03 1503.06 180.81L1503.06 185.13C1503.06 205.92 1513.23 214.38 1526.19 214.38ZM1526.19 207C1517.46 207 1512.96 200.07 1512.96 185.4L1512.96 179.82C1512.96 165.24 1517.55 158.76 1526.28 158.76C1534.92 158.76 1539.42 165.51 1539.42 180.36L1539.42 185.94C1539.42 200.97 1534.92 207 1526.19 207Z"/>
</g>
</g>
<g opacity="1">
<path d="M737.1 1461.22L1530.9 1463.14" fill="#f9f9f9" fill-rule="nonzero" opacity="1" stroke="#303030" stroke-linecap="round" stroke-linejoin="round" stroke-width="6"/>
<g fill="#303030" opacity="1" stroke="none">
<path d="M745.824 1588.7L752.46 1588.7L752.46 1563.42L772.536 1563.42L772.536 1557.71L752.46 1557.71L752.46 1537.97L778.5 1537.97L778.5 1532.34L745.824 1532.34L745.824 1588.7Z"/>
<path d="M788.244 1588.7L794.712 1588.7L794.712 1528.56L788.244 1528.56L788.244 1588.7Z"/>
<path d="M807.396 1588.7L813.78 1588.7L813.78 1547.12L807.396 1547.12L807.396 1588.7ZM807.312 1538.72L813.864 1538.72L813.864 1532L807.312 1532L807.312 1538.72Z"/>
<path d="M826.212 1601.13L832.68 1601.13L832.68 1586.69C835.032 1588.03 838.56 1589.46 843.348 1589.46C854.856 1589.46 862.164 1583.07 862.164 1567.87L862.164 1566.78C862.164 1551.32 854.268 1546.28 845.112 1546.28C839.736 1546.28 835.368 1548.13 832.764 1550.48L832.428 1550.48L832.428 1547.12L826.212 1547.12L826.212 1601.13ZM842.76 1584.17C838.392 1584.17 834.612 1582.82 832.68 1581.23L832.68 1554.77C834.612 1553.42 838.56 1551.74 843.432 1551.74C851.076 1551.74 855.444 1555.35 855.444 1567.11L855.444 1568.79C855.444 1579.97 850.656 1584.17 842.76 1584.17Z"/>
<path d="M910.716 1589.46C916.512 1589.46 920.208 1587.78 922.896 1586.18L922.896 1580.97C920.796 1582.15 917.1 1583.91 911.472 1583.91C902.568 1583.91 898.116 1579.13 898.116 1568.46L898.116 1566.44C898.116 1556.87 903.072 1551.74 910.632 1551.74C916.092 1551.74 918.78 1552.75 922.476 1554.43L922.476 1549.05C919.704 1547.29 916.428 1546.28 910.968 1546.28C900.216 1546.28 891.48 1552.67 891.48 1567.45L891.48 1568.71C891.48 1582.4 898.788 1589.46 910.716 1589.46Z"/>
<path d="M948.096 1589.46C959.352 1589.46 967.08 1581.56 967.08 1568.29L967.08 1567.11C967.08 1553.93 959.94 1546.28 948.18 1546.28C936.924 1546.28 929.28 1554.18 929.28 1567.37L929.28 1568.63C929.28 1581.9 936.336 1589.46 948.096 1589.46ZM948.264 1584.17C941.292 1584.17 935.832 1580.39 935.832 1568.79L935.832 1566.69C935.832 1556.95 940.536 1551.57 948.096 1551.57C954.9 1551.57 960.528 1555.35 960.528 1566.95L960.528 1569.05C960.528 1578.87 955.824 1584.17 948.264 1584.17Z"/>
<path d="M976.992 1588.7L983.376 1588.7L983.376 1547.12L976.992 1547.12L976.992 1588.7ZM976.908 1538.72L983.46 1538.72L983.46 1532L976.908 1532L976.908 1538.72Z"/>
<path d="M995.808 1588.7L1002.19 1588.7L1002.19 1554.85C1005.64 1553.25 1010 1551.83 1013.95 1551.83C1020.59 1551.83 1022.35 1553.93 1022.35 1558.97L1022.35 1588.7L1028.74 1588.7L1028.74 1557.62C1028.74 1549.56 1024.79 1546.28 1016.64 1546.28C1011.52 1546.28 1006.14 1548.13 1002.28 1550.65L1001.94 1550.65L1001.94 1547.04L995.808 1547.04L995.808 1588.7Z"/>
<path d="M1051.42 1589.37C1060.57 1589.37 1066.12 1585.01 1066.12 1577.11C1066.12 1569.89 1062.84 1567.2 1054.86 1565.1L1050.66 1563.92C1046.21 1562.66 1044.44 1561.15 1044.44 1557.54C1044.44 1553.67 1047.22 1551.74 1052.84 1551.74C1057.46 1551.74 1061.66 1552.83 1063.85 1553.93L1063.85 1548.72C1061.66 1547.54 1058.05 1546.28 1052.51 1546.28C1042.93 1546.28 1038.31 1551.07 1038.31 1558.13C1038.31 1565.18 1042.43 1567.95 1048.48 1569.63L1052.59 1570.73C1057.88 1572.24 1059.82 1573.92 1059.82 1577.78C1059.82 1581.56 1057.13 1583.91 1050.49 1583.91C1044.61 1583.91 1041.59 1582.65 1037.98 1581.31L1037.98 1586.43C1041.42 1588.37 1045.96 1589.37 1051.42 1589.37Z"/>
<path d="M1110.3 1589.46C1115.34 1589.46 1119.79 1587.53 1123.57 1584.92L1123.91 1584.92L1124.5 1588.7L1130.04 1588.7L1130.04 1547.04L1123.66 1547.04L1123.66 1580.64C1120.21 1582.32 1116.52 1583.91 1112.06 1583.91C1105.93 1583.91 1104 1581.73 1104 1576.35L1104 1547.04L1097.53 1547.04L1097.53 1577.28C1097.53 1585.34 1102.15 1589.46 1110.3 1589.46Z"/>
<path d="M1142.3 1588.7L1148.69 1588.7L1148.69 1554.85C1152.13 1553.25 1156.5 1551.83 1160.45 1551.83C1167.08 1551.83 1168.85 1553.93 1168.85 1558.97L1168.85 1588.7L1175.23 1588.7L1175.23 1557.62C1175.23 1549.56 1171.28 1546.28 1163.14 1546.28C1158.01 1546.28 1152.64 1548.13 1148.77 1550.65L1148.44 1550.65L1148.44 1547.04L1142.3 1547.04L1142.3 1588.7Z"/>
<path d="M1200.52 1589.21C1204.13 1589.21 1205.89 1588.28 1207.57 1587.53L1207.57 1583.16C1205.89 1583.66 1203.96 1583.91 1202.2 1583.91C1197.41 1583.91 1196.06 1582.32 1196.06 1578.29L1196.06 1552.41L1206.73 1552.41L1206.73 1547.12L1196.06 1547.12L1196.06 1537.21L1189.68 1537.21L1189.68 1547.12L1183.72 1547.12L1183.72 1552.41L1189.68 1552.41L1189.68 1579.29C1189.68 1586.35 1193.96 1589.21 1200.52 1589.21Z"/>
<path d="M1216.98 1588.7L1223.36 1588.7L1223.36 1547.12L1216.98 1547.12L1216.98 1588.7ZM1216.9 1538.72L1223.45 1538.72L1223.45 1532L1216.9 1532L1216.9 1538.72Z"/>
<path d="M1235.96 1588.7L1242.43 1588.7L1242.43 1528.56L1235.96 1528.56L1235.96 1588.7Z"/>
<path d="M1280.15 1601.22C1287.04 1601.22 1290.48 1598.7 1293.25 1591.31L1309.63 1547.04L1303.16 1547.04L1291.91 1578.71L1291.74 1578.71L1279.48 1547.04L1272.59 1547.04L1288.55 1587.19L1287.29 1590.63C1285.52 1595.17 1283 1595.84 1278.97 1595.84C1277.46 1595.84 1275.95 1595.42 1274.94 1595.25L1274.94 1600.04C1276.12 1600.63 1278.22 1601.22 1280.15 1601.22Z"/>
<path d="M1333.66 1589.46C1344.91 1589.46 1352.64 1581.56 1352.64 1568.29L1352.64 1567.11C1352.64 1553.93 1345.5 1546.28 1333.74 1546.28C1322.48 1546.28 1314.84 1554.18 1314.84 1567.37L1314.84 1568.63C1314.84 1581.9 1321.9 1589.46 1333.66 1589.46ZM1333.82 1584.17C1326.85 1584.17 1321.39 1580.39 1321.39 1568.79L1321.39 1566.69C1321.39 1556.95 1326.1 1551.57 1333.66 1551.57C1340.46 1551.57 1346.09 1555.35 1346.09 1566.95L1346.09 1569.05C1346.09 1578.87 1341.38 1584.17 1333.82 1584.17Z"/>
<path d="M1374.82 1589.46C1379.86 1589.46 1384.31 1587.53 1388.09 1584.92L1388.42 1584.92L1389.01 1588.7L1394.56 1588.7L1394.56 1547.04L1388.17 1547.04L1388.17 1580.64C1384.73 1582.32 1381.03 1583.91 1376.58 1583.91C1370.45 1583.91 1368.52 1581.73 1368.52 1576.35L1368.52 1547.04L1362.05 1547.04L1362.05 1577.28C1362.05 1585.34 1366.67 1589.46 1374.82 1589.46Z"/>
<path d="M1443.44 1601.05C1457.64 1601.05 1463.35 1595.42 1463.35 1588.28C1463.35 1580.55 1457.72 1578.29 1450.16 1578.29L1438.66 1578.29C1435.88 1578.29 1434.54 1577.45 1434.54 1575.18C1434.54 1573.83 1435.38 1572.83 1436.47 1571.82C1438.66 1572.57 1441.01 1572.99 1443.61 1572.99C1452.35 1572.99 1459.24 1568.54 1459.24 1559.64L1459.24 1559.55C1459.24 1556.28 1458.14 1553.76 1456.21 1551.91L1463.69 1551.91L1463.69 1546.95L1449.58 1546.95C1447.73 1546.53 1445.8 1546.28 1443.7 1546.28C1434.54 1546.28 1427.99 1551.07 1427.99 1559.72L1427.99 1559.89C1427.99 1564.85 1430 1568.21 1433.2 1570.31C1430 1572.66 1428.49 1574.59 1428.49 1577.19C1428.49 1579.97 1430.34 1581.73 1432.69 1582.4L1432.69 1582.82C1428.41 1584.25 1424.8 1586.85 1424.8 1591.31C1424.8 1597.35 1430.76 1601.05 1443.44 1601.05ZM1443.28 1596.01C1435.04 1596.01 1431.52 1594.16 1431.52 1590.47C1431.52 1586.94 1433.95 1585.09 1437.14 1584L1449.16 1584C1454.62 1584 1456.63 1585.26 1456.63 1589.12C1456.63 1593.49 1453.1 1596.01 1443.28 1596.01ZM1443.61 1567.95C1438.07 1567.95 1434.37 1565.27 1434.37 1559.81L1434.37 1559.39C1434.37 1554.18 1437.9 1551.15 1443.61 1551.15C1449.24 1551.15 1452.77 1553.76 1452.77 1559.47L1452.77 1559.89C1452.77 1565.27 1449.41 1567.95 1443.61 1567.95Z"/>
<path d="M1488.55 1589.46C1495.27 1589.46 1500.06 1587.36 1502.58 1585.59L1502.58 1580.81C1498.8 1582.57 1495.1 1583.91 1489.56 1583.91C1480.66 1583.91 1475.7 1579.88 1475.36 1569.47L1503.76 1569.47L1503.76 1565.85C1503.76 1552.92 1498.38 1546.28 1486.96 1546.28C1477.38 1546.28 1468.81 1552.75 1468.81 1567.28L1468.81 1568.46C1468.81 1581.48 1475.45 1589.46 1488.55 1589.46ZM1486.79 1551.49C1493.59 1551.49 1497.04 1555.27 1497.04 1564.34L1475.36 1564.34C1476.04 1554.51 1481.58 1551.49 1486.79 1551.49Z"/>
<path d="M1527.02 1589.21C1530.64 1589.21 1532.4 1588.28 1534.08 1587.53L1534.08 1583.16C1532.4 1583.66 1530.47 1583.91 1528.7 1583.91C1523.92 1583.91 1522.57 1582.32 1522.57 1578.29L1522.57 1552.41L1533.24 1552.41L1533.24 1547.12L1522.57 1547.12L1522.57 1537.21L1516.19 1537.21L1516.19 1547.12L1510.22 1547.12L1510.22 1552.41L1516.19 1552.41L1516.19 1579.29C1516.19 1586.35 1520.47 1589.21 1527.02 1589.21Z"/>
<path d="M757.92 1690.01C761.532 1690.01 763.296 1689.08 764.976 1688.33L764.976 1683.96C763.296 1684.46 761.364 1684.71 759.6 1684.71C754.812 1684.71 753.468 1683.12 753.468 1679.09L753.468 1653.21L764.136 1653.21L764.136 1647.92L753.468 1647.92L753.468 1638.01L747.084 1638.01L747.084 1647.92L741.12 1647.92L741.12 1653.21L747.084 1653.21L747.084 1680.09C747.084 1687.15 751.368 1690.01 757.92 1690.01Z"/>
<path d="M784.296 1690.26C789.924 1690.26 793.452 1688.24 795.384 1685.89L795.804 1685.89L796.476 1689.5L801.684 1689.5L801.684 1659.35C801.684 1650.86 796.56 1647.08 787.404 1647.08C782.616 1647.08 778.584 1647.84 774.972 1649.35L774.972 1653.97C777.576 1653.21 780.852 1652.63 784.884 1652.63C792.36 1652.63 795.216 1654.31 795.216 1660.77L795.216 1665.14L783.96 1666.49C775.98 1667.41 771.276 1671.27 771.276 1678.58C771.276 1686.39 776.736 1690.26 784.296 1690.26ZM785.892 1685.22C781.104 1685.22 777.996 1682.95 777.996 1678.41C777.996 1673.63 780.516 1671.53 785.64 1671.02L795.216 1669.93L795.216 1682.19C793.452 1683.96 789.756 1685.22 785.892 1685.22Z"/>
<path d="M814.032 1689.5L820.416 1689.5L820.416 1647.92L814.032 1647.92L814.032 1689.5ZM813.948 1639.52L820.5 1639.52L820.5 1632.8L813.948 1632.8L813.948 1639.52Z"/>
<path d="M833.016 1689.5L839.484 1689.5L839.484 1629.36L833.016 1629.36L833.016 1689.5Z"/>
<path d="M862.5 1690.17C871.656 1690.17 877.2 1685.81 877.2 1677.91C877.2 1670.69 873.924 1668 865.944 1665.9L861.744 1664.72C857.292 1663.46 855.528 1661.95 855.528 1658.34C855.528 1654.47 858.3 1652.54 863.928 1652.54C868.548 1652.54 872.748 1653.63 874.932 1654.73L874.932 1649.52C872.748 1648.34 869.136 1647.08 863.592 1647.08C854.016 1647.08 849.396 1651.87 849.396 1658.93C849.396 1665.98 853.512 1668.75 859.56 1670.43L863.676 1671.53C868.968 1673.04 870.9 1674.72 870.9 1678.58C870.9 1682.36 868.212 1684.71 861.576 1684.71C855.696 1684.71 852.672 1683.45 849.06 1682.11L849.06 1687.23C852.504 1689.17 857.04 1690.17 862.5 1690.17Z"/>
<path d="M884.172 1691.6L891.48 1691.6L891.48 1684.13L884.172 1684.13L884.172 1691.6Z"/>
<path d="M928.944 1689.5L945.744 1689.5C964.056 1689.5 972.288 1679.17 972.288 1661.45L972.288 1659.85C972.288 1641.87 962.796 1633.14 945.66 1633.14L928.944 1633.14L928.944 1689.5ZM935.58 1683.79L935.58 1638.85L944.988 1638.85C957.924 1638.85 965.064 1644.23 965.064 1659.85L965.064 1662.37C965.064 1677.41 959.184 1683.79 945.912 1683.79L935.58 1683.79Z"/>
<path d="M992.616 1690.26C998.244 1690.26 1001.77 1688.24 1003.7 1685.89L1004.12 1685.89L1004.8 1689.5L1010 1689.5L1010 1659.35C1010 1650.86 1004.88 1647.08 995.724 1647.08C990.936 1647.08 986.904 1647.84 983.292 1649.35L983.292 1653.97C985.896 1653.21 989.172 1652.63 993.204 1652.63C1000.68 1652.63 1003.54 1654.31 1003.54 1660.77L1003.54 1665.14L992.28 1666.49C984.3 1667.41 979.596 1671.27 979.596 1678.58C979.596 1686.39 985.056 1690.26 992.616 1690.26ZM994.212 1685.22C989.424 1685.22 986.316 1682.95 986.316 1678.41C986.316 1673.63 988.836 1671.53 993.96 1671.02L1003.54 1669.93L1003.54 1682.19C1001.77 1683.96 998.076 1685.22 994.212 1685.22Z"/>
<path d="M1022.1 1689.5L1028.48 1689.5L1028.48 1655.65C1031.84 1654.05 1035.54 1652.63 1039.07 1652.63C1044.61 1652.63 1046.63 1654.73 1046.63 1659.77L1046.63 1689.5L1053.01 1689.5L1053.01 1658.42C1053.01 1657.41 1052.93 1656.66 1052.76 1655.65C1056.71 1653.89 1060.24 1652.63 1063.51 1652.63C1069.14 1652.63 1071.16 1654.73 1071.16 1659.77L1071.16 1689.5L1077.46 1689.5L1077.46 1658.42C1077.46 1650.36 1073.26 1647.08 1066.03 1647.08C1061.33 1647.08 1056.46 1648.76 1051.92 1651.7L1051.58 1651.7C1049.65 1648.59 1046.29 1647.08 1041.59 1647.08C1036.88 1647.08 1032.43 1649.01 1028.57 1651.45L1028.23 1651.45L1028.23 1647.84L1022.1 1647.84L1022.1 1689.5Z"/>
<path d="M1099.72 1690.26C1105.34 1690.26 1108.87 1688.24 1110.8 1685.89L1111.22 1685.89L1111.9 1689.5L1117.1 1689.5L1117.1 1659.35C1117.1 1650.86 1111.98 1647.08 1102.82 1647.08C1098.04 1647.08 1094 1647.84 1090.39 1649.35L1090.39 1653.97C1093 1653.21 1096.27 1652.63 1100.3 1652.63C1107.78 1652.63 1110.64 1654.31 1110.64 1660.77L1110.64 1665.14L1099.38 1666.49C1091.4 1667.41 1086.7 1671.27 1086.7 1678.58C1086.7 1686.39 1092.16 1690.26 1099.72 1690.26ZM1101.31 1685.22C1096.52 1685.22 1093.42 1682.95 1093.42 1678.41C1093.42 1673.63 1095.94 1671.53 1101.06 1671.02L1110.64 1669.93L1110.64 1682.19C1108.87 1683.96 1105.18 1685.22 1101.31 1685.22Z"/>
<path d="M1143.31 1701.85C1157.51 1701.85 1163.22 1696.22 1163.22 1689.08C1163.22 1681.35 1157.59 1679.09 1150.03 1679.09L1138.52 1679.09C1135.75 1679.09 1134.41 1678.25 1134.41 1675.98C1134.41 1674.63 1135.25 1673.63 1136.34 1672.62C1138.52 1673.37 1140.88 1673.79 1143.48 1673.79C1152.22 1673.79 1159.1 1669.34 1159.1 1660.44L1159.1 1660.35C1159.1 1657.08 1158.01 1654.56 1156.08 1652.71L1163.56 1652.71L1163.56 1647.75L1149.44 1647.75C1147.6 1647.33 1145.66 1647.08 1143.56 1647.08C1134.41 1647.08 1127.86 1651.87 1127.86 1660.52L1127.86 1660.69C1127.86 1665.65 1129.87 1669.01 1133.06 1671.11C1129.87 1673.46 1128.36 1675.39 1128.36 1677.99C1128.36 1680.77 1130.21 1682.53 1132.56 1683.2L1132.56 1683.62C1128.28 1685.05 1124.66 1687.65 1124.66 1692.11C1124.66 1698.15 1130.63 1701.85 1143.31 1701.85ZM1143.14 1696.81C1134.91 1696.81 1131.38 1694.96 1131.38 1691.27C1131.38 1687.74 1133.82 1685.89 1137.01 1684.8L1149.02 1684.8C1154.48 1684.8 1156.5 1686.06 1156.5 1689.92C1156.5 1694.29 1152.97 1696.81 1143.14 1696.81ZM1143.48 1668.75C1137.94 1668.75 1134.24 1666.07 1134.24 1660.61L1134.24 1660.19C1134.24 1654.98 1137.77 1651.95 1143.48 1651.95C1149.11 1651.95 1152.64 1654.56 1152.64 1660.27L1152.64 1660.69C1152.64 1666.07 1149.28 1668.75 1143.48 1668.75Z"/>
<path d="M1188.42 1690.26C1195.14 1690.26 1199.93 1688.16 1202.45 1686.39L1202.45 1681.61C1198.67 1683.37 1194.97 1684.71 1189.43 1684.71C1180.52 1684.71 1175.57 1680.68 1175.23 1670.27L1203.62 1670.27L1203.62 1666.65C1203.62 1653.72 1198.25 1647.08 1186.82 1647.08C1177.25 1647.08 1168.68 1653.55 1168.68 1668.08L1168.68 1669.26C1168.68 1682.28 1175.32 1690.26 1188.42 1690.26ZM1186.66 1652.29C1193.46 1652.29 1196.9 1656.07 1196.9 1665.14L1175.23 1665.14C1175.9 1655.31 1181.45 1652.29 1186.66 1652.29Z"/>
<path d="M1235.63 1689.5L1242.01 1689.5L1242.01 1647.92L1235.63 1647.92L1235.63 1689.5ZM1235.54 1639.52L1242.1 1639.52L1242.1 1632.8L1235.54 1632.8L1235.54 1639.52Z"/>
<path d="M1265.03 1690.17C1274.18 1690.17 1279.73 1685.81 1279.73 1677.91C1279.73 1670.69 1276.45 1668 1268.47 1665.9L1264.27 1664.72C1259.82 1663.46 1258.06 1661.95 1258.06 1658.34C1258.06 1654.47 1260.83 1652.54 1266.46 1652.54C1271.08 1652.54 1275.28 1653.63 1277.46 1654.73L1277.46 1649.52C1275.28 1648.34 1271.66 1647.08 1266.12 1647.08C1256.54 1647.08 1251.92 1651.87 1251.92 1658.93C1251.92 1665.98 1256.04 1668.75 1262.09 1670.43L1266.2 1671.53C1271.5 1673.04 1273.43 1674.72 1273.43 1678.58C1273.43 1682.36 1270.74 1684.71 1264.1 1684.71C1258.22 1684.71 1255.2 1683.45 1251.59 1682.11L1251.59 1687.23C1255.03 1689.17 1259.57 1690.17 1265.03 1690.17Z"/>
<path d="M1310.47 1689.5L1345.5 1689.5L1345.5 1683.79L1319.8 1683.79L1328.62 1674.89C1338.36 1664.97 1344.24 1658.25 1344.24 1648.51C1344.24 1638.43 1338.11 1632.13 1326.77 1632.13C1320.38 1632.13 1314.67 1634.99 1311.14 1637.25L1313.08 1642.55C1316.35 1640.28 1320.89 1637.93 1325.68 1637.93C1333.66 1637.93 1337.27 1641.62 1337.27 1649.1C1337.27 1657.16 1331.89 1663.29 1323.91 1671.61L1310.47 1685.55L1310.47 1689.5Z"/>
<path d="M1376.16 1690.51C1387.58 1690.51 1396.32 1682.7 1396.32 1663.63L1396.32 1658.51C1396.32 1638.93 1387.25 1632.21 1376.24 1632.21C1365.16 1632.21 1355.5 1638.93 1355.5 1658.84L1355.5 1663.55C1355.5 1682.61 1364.57 1690.51 1376.16 1690.51ZM1376.16 1684.97C1367.34 1684.97 1362.64 1678.25 1362.64 1664.22L1362.64 1658C1362.64 1643.89 1367.42 1637.76 1376.24 1637.76C1384.9 1637.76 1389.52 1644.23 1389.52 1658.42L1389.52 1664.64C1389.52 1679.09 1384.81 1684.97 1376.16 1684.97Z"/>
<path d="M757.92 1790.81C761.532 1790.81 763.296 1789.88 764.976 1789.13L764.976 1784.76C763.296 1785.26 761.364 1785.51 759.6 1785.51C754.812 1785.51 753.468 1783.92 753.468 1779.89L753.468 1754.01L764.136 1754.01L764.136 1748.72L753.468 1748.72L753.468 1738.81L747.084 1738.81L747.084 1748.72L741.12 1748.72L741.12 1754.01L747.084 1754.01L747.084 1780.89C747.084 1787.95 751.368 1790.81 757.92 1790.81Z"/>
<path d="M774.384 1790.3L780.768 1790.3L780.768 1748.72L774.384 1748.72L774.384 1790.3ZM774.3 1740.32L780.852 1740.32L780.852 1733.6L774.3 1733.6L774.3 1740.32Z"/>
<path d="M793.2 1790.3L799.584 1790.3L799.584 1756.45C802.944 1754.85 806.64 1753.43 810.168 1753.43C815.712 1753.43 817.728 1755.53 817.728 1760.57L817.728 1790.3L824.112 1790.3L824.112 1759.22C824.112 1758.21 824.028 1757.46 823.86 1756.45C827.808 1754.69 831.336 1753.43 834.612 1753.43C840.24 1753.43 842.256 1755.53 842.256 1760.57L842.256 1790.3L848.556 1790.3L848.556 1759.22C848.556 1751.16 844.356 1747.88 837.132 1747.88C832.428 1747.88 827.556 1749.56 823.02 1752.5L822.684 1752.5C820.752 1749.39 817.392 1747.88 812.688 1747.88C807.984 1747.88 803.532 1749.81 799.668 1752.25L799.332 1752.25L799.332 1748.64L793.2 1748.64L793.2 1790.3Z"/>
<path d="M877.788 1791.06C884.508 1791.06 889.296 1788.96 891.816 1787.19L891.816 1782.41C888.036 1784.17 884.34 1785.51 878.796 1785.51C869.892 1785.51 864.936 1781.48 864.6 1771.07L892.992 1771.07L892.992 1767.45C892.992 1754.52 887.616 1747.88 876.192 1747.88C866.616 1747.88 858.048 1754.35 858.048 1768.88L858.048 1770.06C858.048 1783.08 864.684 1791.06 877.788 1791.06ZM876.024 1753.09C882.828 1753.09 886.272 1756.87 886.272 1765.94L864.6 1765.94C865.272 1756.11 870.816 1753.09 876.024 1753.09Z"/>
<path d="M913.236 1790.97C922.392 1790.97 927.936 1786.61 927.936 1778.71C927.936 1771.49 924.66 1768.8 916.68 1766.7L912.48 1765.52C908.028 1764.26 906.264 1762.75 906.264 1759.14C906.264 1755.27 909.036 1753.34 914.664 1753.34C919.284 1753.34 923.484 1754.43 925.668 1755.53L925.668 1750.32C923.484 1749.14 919.872 1747.88 914.328 1747.88C904.752 1747.88 900.132 1752.67 900.132 1759.73C900.132 1766.78 904.248 1769.55 910.296 1771.23L914.412 1772.33C919.704 1773.84 921.636 1775.52 921.636 1779.38C921.636 1783.16 918.948 1785.51 912.312 1785.51C906.432 1785.51 903.408 1784.25 899.796 1782.91L899.796 1788.03C903.24 1789.97 907.776 1790.97 913.236 1790.97Z"/>
<path d="M974.472 1791.06C980.1 1791.06 984.132 1789.29 986.652 1786.86L986.988 1786.86L987.744 1790.3L993.12 1790.3L993.12 1730.16L986.652 1730.16L986.652 1750.65C984.384 1749.31 980.856 1747.88 975.732 1747.88C964.98 1747.88 957.168 1754.43 957.168 1769.55L957.168 1770.65C957.168 1786.02 966.156 1791.06 974.472 1791.06ZM976.404 1785.77C968.928 1785.77 963.888 1782.07 963.888 1770.39L963.888 1768.71C963.888 1757.46 968.676 1753.34 976.572 1753.34C980.856 1753.34 984.72 1754.52 986.652 1756.03L986.652 1782.24C984.552 1783.92 981.276 1785.77 976.404 1785.77Z"/>
<path d="M1022.52 1791.06C1029.24 1791.06 1034.03 1788.96 1036.55 1787.19L1036.55 1782.41C1032.77 1784.17 1029.07 1785.51 1023.53 1785.51C1014.62 1785.51 1009.67 1781.48 1009.33 1771.07L1037.72 1771.07L1037.72 1767.45C1037.72 1754.52 1032.35 1747.88 1020.92 1747.88C1011.35 1747.88 1002.78 1754.35 1002.78 1768.88L1002.78 1770.06C1002.78 1783.08 1009.42 1791.06 1022.52 1791.06ZM1020.76 1753.09C1027.56 1753.09 1031 1756.87 1031 1765.94L1009.33 1765.94C1010 1756.11 1015.55 1753.09 1020.76 1753.09Z"/>
<path d="M1079.64 1791.06C1085.27 1791.06 1088.8 1789.04 1090.73 1786.69L1091.15 1786.69L1091.82 1790.3L1097.03 1790.3L1097.03 1760.15C1097.03 1751.66 1091.9 1747.88 1082.75 1747.88C1077.96 1747.88 1073.93 1748.64 1070.32 1750.15L1070.32 1754.77C1072.92 1754.01 1076.2 1753.43 1080.23 1753.43C1087.7 1753.43 1090.56 1755.11 1090.56 1761.57L1090.56 1765.94L1079.3 1767.29C1071.32 1768.21 1066.62 1772.07 1066.62 1779.38C1066.62 1787.19 1072.08 1791.06 1079.64 1791.06ZM1081.24 1786.02C1076.45 1786.02 1073.34 1783.75 1073.34 1779.21C1073.34 1774.43 1075.86 1772.33 1080.98 1771.82L1090.56 1770.73L1090.56 1782.99C1088.8 1784.76 1085.1 1786.02 1081.24 1786.02Z"/>
<path d="M1109.12 1790.3L1115.51 1790.3L1115.51 1756.45C1118.87 1754.85 1122.56 1753.43 1126.09 1753.43C1131.64 1753.43 1133.65 1755.53 1133.65 1760.57L1133.65 1790.3L1140.04 1790.3L1140.04 1759.22C1140.04 1758.21 1139.95 1757.46 1139.78 1756.45C1143.73 1754.69 1147.26 1753.43 1150.54 1753.43C1156.16 1753.43 1158.18 1755.53 1158.18 1760.57L1158.18 1790.3L1164.48 1790.3L1164.48 1759.22C1164.48 1751.16 1160.28 1747.88 1153.06 1747.88C1148.35 1747.88 1143.48 1749.56 1138.94 1752.5L1138.61 1752.5C1136.68 1749.39 1133.32 1747.88 1128.61 1747.88C1123.91 1747.88 1119.46 1749.81 1115.59 1752.25L1115.26 1752.25L1115.26 1748.64L1109.12 1748.64L1109.12 1790.3Z"/>
<path d="M1192.79 1791.06C1204.04 1791.06 1211.77 1783.16 1211.77 1769.89L1211.77 1768.71C1211.77 1755.53 1204.63 1747.88 1192.87 1747.88C1181.62 1747.88 1173.97 1755.78 1173.97 1768.97L1173.97 1770.23C1173.97 1783.5 1181.03 1791.06 1192.79 1791.06ZM1192.96 1785.77C1185.98 1785.77 1180.52 1781.99 1180.52 1770.39L1180.52 1768.29C1180.52 1758.55 1185.23 1753.17 1192.79 1753.17C1199.59 1753.17 1205.22 1756.95 1205.22 1768.55L1205.22 1770.65C1205.22 1780.47 1200.52 1785.77 1192.96 1785.77Z"/>
<path d="M1233.95 1791.06C1238.99 1791.06 1243.44 1789.13 1247.22 1786.52L1247.56 1786.52L1248.14 1790.3L1253.69 1790.3L1253.69 1748.64L1247.3 1748.64L1247.3 1782.24C1243.86 1783.92 1240.16 1785.51 1235.71 1785.51C1229.58 1785.51 1227.65 1783.33 1227.65 1777.95L1227.65 1748.64L1221.18 1748.64L1221.18 1778.88C1221.18 1786.94 1225.8 1791.06 1233.95 1791.06Z"/>
<path d="M1265.95 1790.3L1272.34 1790.3L1272.34 1756.45C1275.78 1754.85 1280.15 1753.43 1284.1 1753.43C1290.73 1753.43 1292.5 1755.53 1292.5 1760.57L1292.5 1790.3L1298.88 1790.3L1298.88 1759.22C1298.88 1751.16 1294.93 1747.88 1286.78 1747.88C1281.66 1747.88 1276.28 1749.73 1272.42 1752.25L1272.08 1752.25L1272.08 1748.64L1265.95 1748.64L1265.95 1790.3Z"/>
<path d="M1324.16 1790.81C1327.78 1790.81 1329.54 1789.88 1331.22 1789.13L1331.22 1784.76C1329.54 1785.26 1327.61 1785.51 1325.84 1785.51C1321.06 1785.51 1319.71 1783.92 1319.71 1779.89L1319.71 1754.01L1330.38 1754.01L1330.38 1748.72L1319.71 1748.72L1319.71 1738.81L1313.33 1738.81L1313.33 1748.72L1307.36 1748.72L1307.36 1754.01L1313.33 1754.01L1313.33 1780.89C1313.33 1787.95 1317.61 1790.81 1324.16 1790.81Z"/>
<path d="M1378.68 1791.06C1389.94 1791.06 1397.66 1783.16 1397.66 1769.89L1397.66 1768.71C1397.66 1755.53 1390.52 1747.88 1378.76 1747.88C1367.51 1747.88 1359.86 1755.78 1359.86 1768.97L1359.86 1770.23C1359.86 1783.5 1366.92 1791.06 1378.68 1791.06ZM1378.85 1785.77C1371.88 1785.77 1366.42 1781.99 1366.42 1770.39L1366.42 1768.29C1366.42 1758.55 1371.12 1753.17 1378.68 1753.17C1385.48 1753.17 1391.11 1756.95 1391.11 1768.55L1391.11 1770.65C1391.11 1780.47 1386.41 1785.77 1378.85 1785.77Z"/>
<path d="M1409.76 1790.3L1416.23 1790.3L1416.23 1754.01L1425.8 1754.01L1425.8 1748.72L1416.23 1748.72L1416.23 1743.09C1416.23 1737.3 1419 1734.95 1423.96 1734.95C1426.81 1734.95 1428.58 1735.28 1429.84 1735.53L1429.84 1731C1428.32 1730.24 1426.06 1729.57 1422.78 1729.57C1415.22 1729.57 1409.76 1733.52 1409.76 1742.67L1409.76 1748.72L1403.63 1748.72L1403.63 1754.01L1409.76 1754.01L1409.76 1790.3Z"/>
<path d="M744.732 1891.1L751.116 1891.1L751.116 1857.33C754.56 1855.65 758.928 1854.23 762.876 1854.23C769.512 1854.23 771.276 1856.33 771.276 1861.37L771.276 1891.1L777.66 1891.1L777.66 1860.11C777.66 1852.04 773.712 1848.68 765.564 1848.68C760.44 1848.68 755.148 1850.45 751.536 1853.05L751.116 1853.05L751.116 1830.96L744.732 1830.96L744.732 1891.1Z"/>
<path d="M806.892 1891.86C813.612 1891.86 818.4 1889.76 820.92 1887.99L820.92 1883.21C817.14 1884.97 813.444 1886.31 807.9 1886.31C798.996 1886.31 794.04 1882.28 793.704 1871.87L822.096 1871.87L822.096 1868.25C822.096 1855.32 816.72 1848.68 805.296 1848.68C795.72 1848.68 787.152 1855.15 787.152 1869.68L787.152 1870.86C787.152 1883.88 793.788 1891.86 806.892 1891.86ZM805.128 1853.89C811.932 1853.89 815.376 1857.67 815.376 1866.74L793.704 1866.74C794.376 1856.91 799.92 1853.89 805.128 1853.89Z"/>
<path d="M841.92 1891.86C847.548 1891.86 851.076 1889.84 853.008 1887.49L853.428 1887.49L854.1 1891.1L859.308 1891.1L859.308 1860.95C859.308 1852.46 854.184 1848.68 845.028 1848.68C840.24 1848.68 836.208 1849.44 832.596 1850.95L832.596 1855.57C835.2 1854.81 838.476 1854.23 842.508 1854.23C849.984 1854.23 852.84 1855.91 852.84 1862.37L852.84 1866.74L841.584 1868.09C833.604 1869.01 828.9 1872.87 828.9 1880.18C828.9 1887.99 834.36 1891.86 841.92 1891.86ZM843.516 1886.82C838.728 1886.82 835.62 1884.55 835.62 1880.01C835.62 1875.23 838.14 1873.13 843.264 1872.62L852.84 1871.53L852.84 1883.79C851.076 1885.56 847.38 1886.82 843.516 1886.82Z"/>
<path d="M886.272 1891.86C891.9 1891.86 895.932 1890.09 898.452 1887.66L898.788 1887.66L899.544 1891.1L904.92 1891.1L904.92 1830.96L898.452 1830.96L898.452 1851.45C896.184 1850.11 892.656 1848.68 887.532 1848.68C876.78 1848.68 868.968 1855.23 868.968 1870.35L868.968 1871.45C868.968 1886.82 877.956 1891.86 886.272 1891.86ZM888.204 1886.57C880.728 1886.57 875.688 1882.87 875.688 1871.19L875.688 1869.51C875.688 1858.26 880.476 1854.14 888.372 1854.14C892.656 1854.14 896.52 1855.32 898.452 1856.83L898.452 1883.04C896.352 1884.72 893.076 1886.57 888.204 1886.57Z"/>
<path d="M927.768 1891.77C936.924 1891.77 942.468 1887.41 942.468 1879.51C942.468 1872.29 939.192 1869.6 931.212 1867.5L927.012 1866.32C922.56 1865.06 920.796 1863.55 920.796 1859.94C920.796 1856.07 923.568 1854.14 929.196 1854.14C933.816 1854.14 938.016 1855.23 940.2 1856.33L940.2 1851.12C938.016 1849.94 934.404 1848.68 928.86 1848.68C919.284 1848.68 914.664 1853.47 914.664 1860.53C914.664 1867.58 918.78 1870.35 924.828 1872.03L928.944 1873.13C934.236 1874.64 936.168 1876.32 936.168 1880.18C936.168 1883.96 933.48 1886.31 926.844 1886.31C920.964 1886.31 917.94 1885.05 914.328 1883.71L914.328 1888.83C917.772 1890.77 922.308 1891.77 927.768 1891.77Z"/>
</g>
<g fill="#303030" opacity="1" stroke="none">
<path d="M762.024 1442.78C777.96 1442.78 785.544 1435 785.544 1422.52C785.544 1410.81 779.304 1406.49 768.936 1403.51L762.792 1401.59C756.264 1399.77 754.344 1397.56 754.344 1392.38C754.344 1387.1 758.184 1384.22 765.096 1384.22C772.392 1384.22 777.768 1385.75 781.896 1387.48L781.896 1378.26C778.248 1376.34 773.544 1374.71 764.904 1374.71C750.024 1374.71 742.824 1382.3 742.824 1393.43C742.824 1404.57 748.488 1409.56 757.8 1412.15L764.04 1413.88C771.24 1416.09 773.64 1418.2 773.64 1423.67C773.64 1429.62 769.896 1433.27 761.064 1433.27C753.864 1433.27 747.624 1431.54 742.344 1429.24L742.344 1438.55C746.856 1440.95 753.384 1442.78 762.024 1442.78Z"/>
<path d="M813.096 1442.2C817.704 1442.2 820.392 1441.14 822.312 1440.18L822.312 1432.79C820.584 1433.27 818.568 1433.56 816.648 1433.56C811.464 1433.56 809.928 1432.02 809.928 1427.9L809.928 1400.82L821.736 1400.82L821.736 1392.18L809.928 1392.18L809.928 1380.57L799.08 1380.57L799.08 1392.18L792.168 1392.18L792.168 1400.82L799.08 1400.82L799.08 1429.43C799.08 1438.74 804.552 1442.2 813.096 1442.2Z"/>
<path d="M847.08 1442.49C853.32 1442.49 858.12 1440.28 862.248 1437.3L862.728 1437.3L863.688 1441.62L873.288 1441.62L873.288 1392.18L862.248 1392.18L862.248 1430.58C859.08 1432.02 855.528 1433.56 851.208 1433.56C845.064 1433.56 843.144 1431.35 843.144 1425.98L843.144 1392.18L832.104 1392.18L832.104 1428.09C832.104 1437.78 837.48 1442.49 847.08 1442.49Z"/>
<path d="M886.248 1441.62L897.288 1441.62L897.288 1403.22C900.264 1401.69 903.912 1400.54 907.464 1400.54C913.032 1400.54 915.048 1402.55 915.048 1407.45L915.048 1441.62L925.896 1441.62L925.896 1405.53C925.896 1404.57 925.8 1404.09 925.704 1403.32C929.448 1401.5 932.712 1400.54 935.976 1400.54C941.64 1400.54 943.56 1402.55 943.56 1407.45L943.56 1441.62L954.504 1441.62L954.504 1404.86C954.504 1395.06 949.608 1391.32 940.872 1391.32C935.304 1391.32 929.736 1393.43 924.648 1396.89L924.072 1396.89C921.864 1393.05 918.024 1391.32 912.36 1391.32C906.6 1391.32 901.512 1393.62 897.288 1396.6L896.904 1396.6L896.904 1392.18L886.248 1392.18L886.248 1441.62Z"/>
<path d="M967.272 1455.93L978.312 1455.93L978.312 1439.7C980.712 1441.05 984.36 1442.49 989.832 1442.49C1003.27 1442.49 1012.2 1435.19 1012.2 1416.66L1012.2 1415.42C1012.2 1397.27 1002.89 1391.32 992.616 1391.32C986.376 1391.32 981.288 1393.43 978.312 1396.41L977.928 1396.41L977.928 1392.18L967.272 1392.18L967.272 1455.93ZM988.296 1434.14C983.976 1434.14 980.232 1432.79 978.312 1431.26L978.312 1403.22C980.232 1401.88 983.976 1400.34 988.68 1400.34C996.456 1400.34 1000.68 1403.9 1000.68 1416.09L1000.68 1418.1C1000.68 1430.1 996.168 1434.14 988.296 1434.14Z"/>
</g>
<path d="M381.908 1458.13C391.428 1458.13 399.156 1456.11 404.98 1453.98L404.98 1420.5L380.116 1420.5L380.116 1427.89L396.244 1427.89L396.244 1448.38C392.66 1449.73 387.396 1450.62 382.132 1450.62C361.972 1450.62 356.596 1438.08 356.596 1420.61L356.596 1417.58C356.596 1401.68 363.204 1388.02 381.908 1388.02C391.876 1388.02 397.588 1390.48 402.18 1392.61L402.18 1384.88C397.7 1382.64 391.876 1380.51 382.58 1380.51C363.652 1380.51 347.076 1390.59 347.076 1418.82L347.076 1420.83C347.076 1446.59 360.628 1458.13 381.908 1458.13Z" fill="#303030" opacity="1" stroke="none"/>
<path d="M536.608 1456.9L545.12 1456.9L552.848 1434.94L582.976 1434.94L590.928 1456.9L600.224 1456.9L572.784 1381.74L564.16 1381.74L536.608 1456.9ZM567.744 1393.62L567.968 1393.62L580.176 1427.44L555.424 1427.44L567.744 1393.62Z" fill="#303030" opacity="1" stroke="none"/>
<path d="M481.95 1337.05L652.05 1337.05L652.05 1507.15L481.95 1507.15L481.95 1337.05Z" fill="none" opacity="1" stroke="#303030" stroke-linecap="round" stroke-linejoin="round" stroke-width="6"/>
<path d="M290.725 1337.05L460.825 1337.05L460.825 1507.15L290.725 1507.15L290.725 1337.05Z" fill="none" opacity="1" stroke="#303030" stroke-linecap="round" stroke-linejoin="round" stroke-width="6"/>
</g>
<g fill="#5e5e5e" opacity="1" stroke="none">
<path d="M758.451 2152.47L769.523 2152.47L769.523 2091.22L758.451 2091.22L758.451 2152.47Z"/>
<path d="M784.256 2152.47L804.435 2152.47C824.079 2152.47 833.633 2141.67 833.633 2122.02L833.633 2120.24C833.633 2100.24 823.097 2091.22 804.346 2091.22L784.256 2091.22L784.256 2152.47ZM795.238 2143.81L795.238 2099.88L803.721 2099.88C815.329 2099.88 822.025 2104.7 822.025 2120.15L822.025 2123.1C822.025 2137.92 816.489 2143.81 804.524 2143.81L795.238 2143.81Z"/>
<path d="M844.526 2115.95L855.42 2115.95L855.42 2105.42L844.526 2105.42L844.526 2115.95ZM844.526 2148.28L855.42 2148.28L855.42 2137.74L844.526 2137.74L844.526 2148.28Z"/>
<path d="M886.85 2152.47L897.029 2152.47L902.565 2136.94L925.334 2136.94L930.87 2152.47L942.21 2152.47L920.423 2091.22L909.172 2091.22L886.85 2152.47ZM913.726 2104.26L913.994 2104.26L922.566 2128.72L905.154 2128.72L913.726 2104.26Z"/>
<path d="M945.781 2132.02L970.336 2132.02L970.336 2123.45L945.781 2123.45L945.781 2132.02Z"/>
<path d="M1003.02 2153.54C1015.78 2153.54 1026.68 2145.42 1026.68 2123.9L1026.68 2120.06C1026.68 2098.54 1015.78 2090.59 1003.11 2090.59C990.516 2090.59 979.265 2098.45 979.265 2120.33L979.265 2124.17C979.265 2144.97 989.623 2153.54 1003.02 2153.54ZM1003.02 2145.15C994.712 2145.15 990.694 2138.36 990.694 2124.17L990.694 2119.43C990.694 2105.15 994.802 2099.08 1003.11 2099.08C1011.14 2099.08 1015.34 2105.51 1015.34 2120.06L1015.34 2124.61C1015.34 2139.26 1011.23 2145.15 1003.02 2145.15Z"/>
<path d="M1035.43 2152.47L1074.36 2152.47L1074.36 2143.9L1049.8 2143.9L1057.04 2136.49C1064.54 2128.72 1073.82 2118.99 1073.82 2108.09C1073.82 2097.02 1066.95 2090.59 1053.55 2090.59C1046.5 2090.59 1040.25 2092.83 1036.14 2095.24L1037.93 2103.36C1041.32 2101.31 1046.32 2099.26 1050.61 2099.26C1058.38 2099.26 1062.39 2102.11 1062.39 2109.52C1062.39 2117.2 1055.61 2124.79 1047.13 2133.72L1035.43 2146.04L1035.43 2152.47Z"/>
</g>
<g opacity="1">
<use fill="none" opacity="1" stroke="#000000" stroke-linecap="round" stroke-linejoin="round" stroke-width="6" xlink:href="#Fill"/>
<clipPath id="ClipPath">
<use xlink:href="#Fill"/>
</clipPath>
<g clip-path="url(#ClipPath)">
<path d="M695.463 1219.59C687.336 1210.58 560.746 1081.66 476.252 1063.05C391.757 1044.43 304.298 1067.3 279.44 1116.38C257.55 1159.6 259.207 1196.39 298.418 1222.01C337.629 1247.62 404.709 1177.77 464.981 1185.53C525.252 1193.3 593.753 1272.96 593.753 1272.96" fill="#ffffff" fill-rule="nonzero" opacity="1" stroke="#000000" stroke-linecap="butt" stroke-linejoin="round" stroke-width="3.89264"/>
<g opacity="1" vectornator:layerName="(curve)">
<path d="M661.777 882.053C660.957 882.053 587.042 870.539 563.206 741.197C549.308 665.777 632.721 589.059 636.478 586.804C636.877 586.565 637.397 585.852 637.725 586.181C638.32 586.776 605.757 682.265 614.675 731.499C621.855 771.137 665.493 807.986 668.289 808.857C679.549 812.363 682.855 797.198 721.527 787.062C760.199 776.926 875.945 788.921 941.948 802.122C950.896 803.912 980.179 813.665 981.434 813.665C988.149 813.665 1044.29 771.022 1056.92 705.841C1069.55 640.66 1050.7 594.822 1051.12 594.822C1052.16 594.822 1114.15 683.395 1110.04 733.343C1100.74 846.493 992.256 894.066 990.471 894.78C988.876 895.418 993.016 978.863 980.221 976.509C966.778 974.035 977.329 898.553 977.329 891.421C977.329 883.705 924.805 812.271 918.24 809.457C909.726 805.809 767.905 793.261 764.204 794.186C758.468 795.62 708.681 813.975 699.476 835.678C690.271 857.38 678.82 904.707 673.884 913.756C672.084 917.056 670.516 956.522 660.015 957.272C648.874 958.068 662.365 882.053 661.777 882.053Z" fill="none" opacity="1" stroke="#000000" stroke-linecap="round" stroke-linejoin="round" stroke-width="4.22489"/>
<path d="M615.497 1213.44C637.351 1045.15 677.9 828.452 690.685 766.241C690.685 766.241 702.379 722.431 715.617 721.597C728.283 720.8 735.225 725.432 762.286 793.273C811.283 798.378 863.283 803.781 902.119 809.296C904.084 806.337 946.089 747.666 961.63 745.799C990.928 733.184 980.877 1071.83 989.712 1206.06" fill="#ffffff" fill-rule="nonzero" opacity="1" stroke="#000000" stroke-linecap="round" stroke-linejoin="round" stroke-width="4.22489"/>
<path d="M658.458 890.26C657.638 890.26 587.042 870.539 563.206 741.197C549.308 665.777 632.721 589.059 636.478 586.804C636.877 586.565 637.397 585.852 637.725 586.181C638.32 586.776 605.757 682.265 614.675 731.499C621.855 771.137 665.493 807.986 668.289 808.857C679.549 812.363 682.855 797.198 721.527 787.062C760.199 776.926 845.822 780.857 911.824 794.057C902.878 806.679 909.14 810.348 903.075 810.09C821.025 806.605 765.772 775.075 689.718 823.847C668.359 880.425 659.005 948.6 654.376 958.776C642.773 969.621 659.046 890.26 658.458 890.26Z" fill="#ffffff" fill-rule="nonzero" opacity="1" stroke="#000000" stroke-linecap="round" stroke-linejoin="round" stroke-width="4.22489"/>
<path d="M878.969 994.319C868.481 973.012 876.73 941.06 900.701 928.166C924.672 915.272 956.158 929.456 966.647 950.763C974.664 967.051 975.005 986.12 961.031 1002.2C956.724 1007.16 951.659 1011.38 946.012 1014.41C922.041 1027.31 889.458 1015.63 878.969 994.319Z" fill="#ffc4cc" fill-rule="nonzero" opacity="1" stroke="none"/>
<path d="M671.768 972.687C661.279 951.379 669.528 919.428 693.499 906.534C717.47 893.64 748.956 907.824 759.445 929.131C767.463 945.419 767.803 964.488 753.829 980.567C749.523 985.523 744.458 989.743 738.81 992.781C714.839 1005.67 682.257 993.994 671.768 972.687Z" fill="#ffc4cc" fill-rule="nonzero" opacity="1" stroke="none"/>
<path d="M864.951 958.339C843.428 923.378 851.75 866.75 886.088 847.384C920.425 828.018 977.665 838.012 999.189 872.973C1020.71 907.934 1011.23 965.745 976.894 985.111C942.557 1004.48 886.475 993.301 864.951 958.339Z" fill="none" opacity="1" stroke="#000000" stroke-linecap="round" stroke-linejoin="round" stroke-width="4.22489" vectornator:layerName="(rectangle)"/>
<path d="M653.836 935.523C629.248 903.672 634.37 837.431 668.363 818.937C711.73 795.343 775.384 816.093 790.279 853.034C807.461 895.648 784.732 951.107 753.587 959.633C716.263 969.85 679.24 968.429 653.836 935.523Z" fill="none" opacity="1" stroke="#000000" stroke-linecap="round" stroke-linejoin="round" stroke-width="4.22489" vectornator:layerName="(rectangle)"/>
<path d="M795.97 882.217C815.207 881.175 830.43 880.238 857.579 884.233" fill="none" opacity="1" stroke="#000000" stroke-linecap="round" stroke-linejoin="round" stroke-width="4.22489"/>
<path d="M824.114 905.979C833.361 905.979 842.83 909.187 842.902 915.493L842.902 915.493C842.579 922.706 833.344 925.008 824.097 925.008C814.85 925.008 805.857 921.833 805.913 915.493L805.913 915.493C806.208 908.771 814.867 905.979 824.114 905.979Z" fill="#000000" fill-rule="nonzero" opacity="1" stroke="#000000" stroke-linecap="round" stroke-linejoin="round" stroke-width="4.22489"/>
<path d="M759.585 856.214C760.773 857.402 766.824 866.002 766.824 867.498C766.824 868.85 756.471 877.852 756.471 877.852C756.471 877.852 760.785 882.585 760.785 886.911" fill="none" opacity="1" stroke="#000000" stroke-linecap="round" stroke-linejoin="round" stroke-width="4.22489"/>
<path d="M783.638 841.468C776.909 843.711 770.104 845.171 770.104 845.171L763.983 854.694L750.897 857.619L750.378 866.728L730.377 876.178" fill="none" opacity="1" stroke="#000000" stroke-linecap="round" stroke-linejoin="round" stroke-width="4.22489"/>
</g>
<path d="M1312.24 852.998C1315.72 863.691 1311.58 944.431 1318.1 949.32C1326.47 955.603 1390 937.26 1437.05 914.461C1460.22 903.234 1481.95 880.161 1486.12 879.466C1492.98 878.324 1530.7 872.72 1531.65 910.442C1532.98 963.661 1489.22 942.658 1474.79 945.544C1458.06 948.89 1317.22 1018.62 1310.54 1017.29C1296.6 1014.5 1268.36 994.777 1263.34 981.415C1262.16 978.262 1259.41 947.485 1253.91 949.32C1253.21 949.551 1214.54 1050.13 1216.15 1081.48C1219.04 1138.09 1302.31 1170.63 1294.31 1201.21C1284.68 1238.07 1237.69 1263.13 1146.29 1381.66C1118.77 1417.36 1193.27 1451.07 1177.03 1474.9C1171.7 1482.73 1130.5 1498.56 1102.96 1475.51C1065.8 1444.4 1073.28 1381.85 1073.97 1375.59C1076.36 1354.06 1191.94 1239.57 1195.27 1219.59C1198.72 1198.84 1150.68 1174.92 1136.85 1164.55C1128.28 1158.12 1115.73 1147.86 1104.76 1145.67C1097.11 1144.14 1091.13 1152.62 1085.88 1156.99C1071.16 1169.26 918.844 1284.59 904.735 1284.53C864.431 1284.35 756.556 1157.34 751.582 1156.1C744.339 1154.29 716.888 1235.41 689.991 1195.07C669.451 1164.26 709.814 1078.02 747.806 1084.35C774.941 1088.88 880.148 1191.87 904.218 1181.55C916.716 1176.19 1001.59 1134.71 1021.69 1107.91C1038.99 1084.84 1089.94 1008.81 1089.94 1008.81C1089.94 1008.81 1113.86 918.771 1112.31 917.225C1108.1 913.019 1029.16 980.67 1027.35 985.191C1024.81 991.547 1042.48 1021.1 1046.23 1026.73C1055.55 1040.71 1086.86 1094.74 1095.32 1106.02C1102.62 1115.75 1112.72 1117.12 1116.09 1130.56C1122.2 1155.03 1081.07 1162.07 1065.11 1158.88C1055.05 1156.87 1047.07 1112.52 1040.57 1106.02C1035.04 1100.49 949.081 975.204 959.636 953.401C969.318 933.401 1077.21 851.523 1109.62 823.741C1120.57 814.36 1138.23 807.67 1159.51 811.501C1136.23 760.247 1161.56 636.795 1257.68 669.905C1320.86 691.666 1252.73 812.075 1252.73 812.075C1252.73 812.075 1305.05 830.949 1312.24 852.998Z" fill="#373535" fill-rule="nonzero" opacity="1" stroke="none"/>
<path d="M1561.86 946.662C1565.34 957.356 1567.06 1058.34 1573.58 1063.23C1578.95 1067.26 1601.99 1135.9 1646.48 1157.87C1669.36 1169.16 1689.08 1164.72 1699.91 1201.79C1706.94 1225.86 1668.28 1247.02 1646.91 1234.45C1616.9 1216.8 1535.03 1121.47 1530.01 1108.11C1528.83 1104.96 1509.03 1041.15 1503.53 1042.98C1502.83 1043.22 1464.16 1143.79 1465.77 1175.14C1468.66 1231.76 1551.93 1264.29 1543.93 1294.88C1534.3 1331.73 1487.31 1356.8 1395.91 1475.32C1368.39 1511.02 1442.89 1544.74 1426.65 1568.57C1421.32 1576.39 1380.12 1592.23 1352.58 1569.17C1315.42 1538.06 1322.9 1475.51 1323.59 1469.26C1325.98 1447.73 1441.56 1333.23 1444.89 1313.26C1448.34 1292.51 1400.3 1268.58 1386.47 1258.21C1377.9 1251.78 1365.35 1241.53 1354.38 1239.33C1346.73 1237.8 1340.75 1246.28 1335.5 1250.66C1320.78 1262.92 1168.46 1378.26 1154.36 1378.19C1114.05 1378.02 1027.66 1293.29 1022.69 1292.04C1015.45 1290.23 983.143 1353.34 956.247 1312.99C935.707 1282.18 971.218 1232.68 1009.21 1239.02C1036.34 1243.54 1129.77 1285.53 1153.84 1275.21C1166.34 1269.86 1271.47 1188.61 1292.8 1165.53C1309.19 1147.78 1339.56 1102.47 1339.56 1102.47C1339.56 1102.47 1363.48 1012.44 1361.93 1010.89C1357.72 1006.68 1267 1077.11 1265.19 1081.63C1262.65 1087.98 1258.83 1195.86 1262.58 1201.49C1271.9 1215.47 1276.18 1234.85 1284.63 1246.12C1291.93 1255.85 1263.22 1253.06 1266.58 1266.51C1272.7 1290.98 1230.84 1247.08 1224.34 1240.58C1218.81 1235.05 1206.33 1079.27 1216.88 1057.46C1226.56 1037.46 1326.83 945.188 1359.24 917.405C1370.19 908.025 1387.85 901.334 1409.13 905.165C1385.85 853.911 1411.18 730.46 1507.3 763.569C1570.48 785.331 1502.35 905.739 1502.35 905.739C1502.35 905.739 1554.67 924.613 1561.86 946.662Z" fill="#5b5857" fill-rule="nonzero" opacity="1" stroke="none"/>
</g>
</g>
<path d="M256.549 416.4L1562.17 416.4L1562.17 1202.1L256.549 1202.1L256.549 416.4Z" fill="none" opacity="1" stroke="#000000" stroke-linecap="round" stroke-linejoin="round" stroke-width="6"/>
</g>
</svg>
