<?xml version="1.0" encoding="UTF-8" standalone="no"?>
<!DOCTYPE svg PUBLIC "-//W3C//DTD SVG 1.1//EN" "http://www.w3.org/Graphics/SVG/1.1/DTD/svg11.dtd">
<!-- Created with Vectornator (http://vectornator.io/) -->
<svg height="100%" stroke-miterlimit="10" style="fill-rule:nonzero;clip-rule:evenodd;stroke-linecap:round;stroke-linejoin:round;" version="1.1" viewBox="0 0 3370.82 2384.24" width="100%" xml:space="preserve" xmlns="http://www.w3.org/2000/svg" xmlns:vectornator="http://vectornator.io" xmlns:xlink="http://www.w3.org/1999/xlink">
<defs>
<filter color-interpolation-filters="sRGB" filterUnits="userSpaceOnUse" height="2185.82" id="Filter" width="1591.42" x="1733.81" y="88.045">
<feDropShadow dx="12.6192" dy="26.6175" flood-color="#000000" flood-opacity="0.333" in="SourceGraphic" result="Shadow" stdDeviation="12.4612"/>
</filter>
<path d="M1868.32 416.4L3173.93 416.4L3173.93 1202.1L1868.32 1202.1L1868.32 416.4Z" id="Fill"/>
</defs>
<g id="Capa-4" vectornator:layerName="Capa 4">
<path d="M1755.34 95.5806L3278.46 95.5806L3278.46 2213.09L1755.34 2213.09L1755.34 95.5806Z" fill="#ffffff" fill-rule="nonzero" filter="url(#Filter)" stroke="#303030" stroke-linecap="round" stroke-linejoin="round" stroke-width="6" vectornator:shadowAngle="1.12809" vectornator:shadowColor="#000000" vectornator:shadowOffset="29.4574" vectornator:shadowOpacity="0.333" vectornator:shadowRadius="24.9225"/>
<g opacity="1">
<g fill="#303030" opacity="1" stroke="none">
<path d="M1902.77 245.928L1917.53 245.928L1917.53 214.008L1943.93 163.608L1929.89 163.608L1911.05 200.568L1910.69 200.568L1891.85 163.608L1876.13 163.608L1902.77 214.008L1902.77 245.928Z"/>
<path d="M1981.13 247.008C1991.57 247.008 1998.77 244.008 2002.97 241.248L2002.97 231.648C1997.57 234.408 1991.81 236.208 1983.89 236.208C1972.13 236.208 1965.53 231.648 1964.69 218.808L2005.01 218.808L2005.01 213.048C2005.01 193.368 1997.09 183.168 1978.85 183.168C1963.13 183.168 1950.53 193.368 1950.53 214.128L1950.53 215.808C1950.53 235.368 1960.61 247.008 1981.13 247.008ZM1978.61 193.368C1986.65 193.368 1990.97 197.688 1990.97 209.328L1964.69 209.328C1965.65 196.728 1972.25 193.368 1978.61 193.368Z"/>
<path d="M2039.45 246.648C2045.21 246.648 2048.57 245.328 2050.97 244.128L2050.97 234.888C2048.81 235.488 2046.29 235.848 2043.89 235.848C2037.41 235.848 2035.49 233.928 2035.49 228.768L2035.49 194.928L2050.25 194.928L2050.25 184.128L2035.49 184.128L2035.49 169.608L2021.93 169.608L2021.93 184.128L2013.29 184.128L2013.29 194.928L2021.93 194.928L2021.93 230.688C2021.93 242.328 2028.77 246.648 2039.45 246.648Z"/>
<path d="M2063.81 245.928L2077.73 245.928L2077.73 184.128L2063.81 184.128L2063.81 245.928ZM2063.81 173.928L2077.85 173.928L2077.85 161.328L2063.81 161.328L2063.81 173.928Z"/>
</g>
<path d="M3271.66 264.179L1871.17 265.584" fill="none" opacity="1" stroke="#303030" stroke-linecap="square" stroke-linejoin="round" stroke-width="6"/>
<path d="M2990.99 101.397L2989.58 260.157" fill="none" opacity="1" stroke="#303030" stroke-linecap="square" stroke-linejoin="round" stroke-width="6"/>
<path d="M3012.14 99.1192L3275 99.1192L3275 263.695L3012.14 263.695L3012.14 99.1192Z" fill="#ffffff" fill-rule="nonzero" opacity="0" stroke="none"/>
<g fill="#303030" opacity="1" stroke="none">
<path d="M3079.37 213.66L3088.73 213.66L3088.73 151.74L3083.78 151.74L3068.57 158.58L3068.57 164.07L3079.37 161.73L3079.37 213.66Z"/>
<path d="M3118.7 214.38C3132.38 214.38 3140.48 205.29 3140.48 194.13C3140.48 181.26 3133.1 175.23 3120.68 175.23C3118.34 175.23 3114.83 175.77 3112.67 176.4L3113.75 159.84L3137.96 159.84L3137.96 152.37L3106.55 152.37L3104.3 185.31C3107.18 183.96 3112.85 182.25 3116.81 182.25C3125.81 182.25 3130.85 185.58 3130.85 194.04C3130.85 201.96 3125.45 206.64 3116.45 206.64C3111.68 206.64 3106.37 204.75 3103.04 202.68L3101.33 209.97C3105.2 212.4 3111.59 214.38 3118.7 214.38Z"/>
<path d="M3172.88 214.38C3185.57 214.38 3195.74 206.19 3195.74 185.04L3195.74 180.45C3195.74 159.12 3185.39 151.38 3173.06 151.38C3160.64 151.38 3149.75 159.03 3149.75 180.81L3149.75 185.13C3149.75 205.92 3159.92 214.38 3172.88 214.38ZM3172.88 207C3164.15 207 3159.65 200.07 3159.65 185.4L3159.65 179.82C3159.65 165.24 3164.24 158.76 3172.97 158.76C3181.61 158.76 3186.11 165.51 3186.11 180.36L3186.11 185.94C3186.11 200.97 3181.61 207 3172.88 207Z"/>
</g>
</g>
<g opacity="1">
<g fill="#303030" opacity="1" stroke="none">
<path d="M2358.03 1588.7L2364.67 1588.7L2364.67 1563.42L2384.75 1563.42L2384.75 1557.71L2364.67 1557.71L2364.67 1537.97L2390.71 1537.97L2390.71 1532.34L2358.03 1532.34L2358.03 1588.7Z"/>
<path d="M2400.45 1588.7L2406.92 1588.7L2406.92 1528.56L2400.45 1528.56L2400.45 1588.7Z"/>
<path d="M2419.61 1588.7L2425.99 1588.7L2425.99 1547.12L2419.61 1547.12L2419.61 1588.7ZM2419.52 1538.72L2426.07 1538.72L2426.07 1532L2419.52 1532L2419.52 1538.72Z"/>
<path d="M2438.42 1601.13L2444.89 1601.13L2444.89 1586.69C2447.24 1588.03 2450.77 1589.46 2455.56 1589.46C2467.07 1589.46 2474.37 1583.07 2474.37 1567.87L2474.37 1566.78C2474.37 1551.32 2466.48 1546.28 2457.32 1546.28C2451.95 1546.28 2447.58 1548.13 2444.97 1550.48L2444.64 1550.48L2444.64 1547.12L2438.42 1547.12L2438.42 1601.13ZM2454.97 1584.17C2450.6 1584.17 2446.82 1582.82 2444.89 1581.23L2444.89 1554.77C2446.82 1553.42 2450.77 1551.74 2455.64 1551.74C2463.29 1551.74 2467.65 1555.35 2467.65 1567.11L2467.65 1568.79C2467.65 1579.97 2462.87 1584.17 2454.97 1584.17Z"/>
<path d="M2516.46 1589.46C2522.09 1589.46 2525.61 1587.44 2527.55 1585.09L2527.97 1585.09L2528.64 1588.7L2533.85 1588.7L2533.85 1558.55C2533.85 1550.06 2528.72 1546.28 2519.57 1546.28C2514.78 1546.28 2510.75 1547.04 2507.13 1548.55L2507.13 1553.17C2509.74 1552.41 2513.01 1551.83 2517.05 1551.83C2524.52 1551.83 2527.38 1553.51 2527.38 1559.97L2527.38 1564.34L2516.12 1565.69C2508.14 1566.61 2503.44 1570.47 2503.44 1577.78C2503.44 1585.59 2508.9 1589.46 2516.46 1589.46ZM2518.05 1584.42C2513.27 1584.42 2510.16 1582.15 2510.16 1577.61C2510.16 1572.83 2512.68 1570.73 2517.8 1570.22L2527.38 1569.13L2527.38 1581.39C2525.61 1583.16 2521.92 1584.42 2518.05 1584.42Z"/>
<path d="M2584.67 1589.46C2590.46 1589.46 2594.16 1587.78 2596.85 1586.18L2596.85 1580.97C2594.75 1582.15 2591.05 1583.91 2585.42 1583.91C2576.52 1583.91 2572.07 1579.13 2572.07 1568.46L2572.07 1566.44C2572.07 1556.87 2577.02 1551.74 2584.58 1551.74C2590.04 1551.74 2592.73 1552.75 2596.43 1554.43L2596.43 1549.05C2593.65 1547.29 2590.38 1546.28 2584.92 1546.28C2574.17 1546.28 2565.43 1552.67 2565.43 1567.45L2565.43 1568.71C2565.43 1582.4 2572.74 1589.46 2584.67 1589.46Z"/>
<path d="M2622.05 1589.46C2633.3 1589.46 2641.03 1581.56 2641.03 1568.29L2641.03 1567.11C2641.03 1553.93 2633.89 1546.28 2622.13 1546.28C2610.87 1546.28 2603.23 1554.18 2603.23 1567.37L2603.23 1568.63C2603.23 1581.9 2610.29 1589.46 2622.05 1589.46ZM2622.21 1584.17C2615.24 1584.17 2609.78 1580.39 2609.78 1568.79L2609.78 1566.69C2609.78 1556.95 2614.49 1551.57 2622.05 1551.57C2628.85 1551.57 2634.48 1555.35 2634.48 1566.95L2634.48 1569.05C2634.48 1578.87 2629.77 1584.17 2622.21 1584.17Z"/>
<path d="M2650.94 1588.7L2657.33 1588.7L2657.33 1547.12L2650.94 1547.12L2650.94 1588.7ZM2650.86 1538.72L2657.41 1538.72L2657.41 1532L2650.86 1532L2650.86 1538.72Z"/>
<path d="M2669.76 1588.7L2676.14 1588.7L2676.14 1554.85C2679.59 1553.25 2683.95 1551.83 2687.9 1551.83C2694.54 1551.83 2696.3 1553.93 2696.3 1558.97L2696.3 1588.7L2702.69 1588.7L2702.69 1557.62C2702.69 1549.56 2698.74 1546.28 2690.59 1546.28C2685.47 1546.28 2680.09 1548.13 2676.23 1550.65L2675.89 1550.65L2675.89 1547.04L2669.76 1547.04L2669.76 1588.7Z"/>
<path d="M2712.18 1590.8L2719.49 1590.8L2719.49 1583.33L2712.18 1583.33L2712.18 1590.8Z"/>
<path d="M2757.29 1588.7L2763.92 1588.7L2763.92 1532.34L2757.29 1532.34L2757.29 1588.7Z"/>
<path d="M2780.05 1588.7L2786.52 1588.7L2786.52 1552.41L2796.09 1552.41L2796.09 1547.12L2786.52 1547.12L2786.52 1541.49C2786.52 1535.7 2789.29 1533.35 2794.25 1533.35C2797.1 1533.35 2798.87 1533.68 2800.13 1533.93L2800.13 1529.4C2798.61 1528.64 2796.35 1527.97 2793.07 1527.97C2785.51 1527.97 2780.05 1531.92 2780.05 1541.07L2780.05 1547.12L2773.92 1547.12L2773.92 1552.41L2780.05 1552.41L2780.05 1588.7Z"/>
<path d="M2827.09 1588.7L2833.47 1588.7L2833.47 1547.12L2827.09 1547.12L2827.09 1588.7ZM2827.01 1538.72L2833.56 1538.72L2833.56 1532L2827.01 1532L2827.01 1538.72Z"/>
<path d="M2859.09 1589.21C2862.71 1589.21 2864.47 1588.28 2866.15 1587.53L2866.15 1583.16C2864.47 1583.66 2862.54 1583.91 2860.77 1583.91C2855.99 1583.91 2854.64 1582.32 2854.64 1578.29L2854.64 1552.41L2865.31 1552.41L2865.31 1547.12L2854.64 1547.12L2854.64 1537.21L2848.26 1537.21L2848.26 1547.12L2842.29 1547.12L2842.29 1552.41L2848.26 1552.41L2848.26 1579.29C2848.26 1586.35 2852.54 1589.21 2859.09 1589.21Z"/>
<path d="M2897.65 1588.7L2904.03 1588.7L2904.03 1547.12L2897.65 1547.12L2897.65 1588.7ZM2897.57 1538.72L2904.12 1538.72L2904.12 1532L2897.57 1532L2897.57 1538.72Z"/>
<path d="M2927.05 1589.37C2936.21 1589.37 2941.75 1585.01 2941.75 1577.11C2941.75 1569.89 2938.47 1567.2 2930.49 1565.1L2926.29 1563.92C2921.84 1562.66 2920.08 1561.15 2920.08 1557.54C2920.08 1553.67 2922.85 1551.74 2928.48 1551.74C2933.1 1551.74 2937.3 1552.83 2939.48 1553.93L2939.48 1548.72C2937.3 1547.54 2933.69 1546.28 2928.14 1546.28C2918.57 1546.28 2913.95 1551.07 2913.95 1558.13C2913.95 1565.18 2918.06 1567.95 2924.11 1569.63L2928.23 1570.73C2933.52 1572.24 2935.45 1573.92 2935.45 1577.78C2935.45 1581.56 2932.76 1583.91 2926.13 1583.91C2920.25 1583.91 2917.22 1582.65 2913.61 1581.31L2913.61 1586.43C2917.05 1588.37 2921.59 1589.37 2927.05 1589.37Z"/>
<path d="M2986.61 1589.21C2990.22 1589.21 2991.98 1588.28 2993.66 1587.53L2993.66 1583.16C2991.98 1583.66 2990.05 1583.91 2988.29 1583.91C2983.5 1583.91 2982.15 1582.32 2982.15 1578.29L2982.15 1552.41L2992.82 1552.41L2992.82 1547.12L2982.15 1547.12L2982.15 1537.21L2975.77 1537.21L2975.77 1547.12L2969.81 1547.12L2969.81 1552.41L2975.77 1552.41L2975.77 1579.29C2975.77 1586.35 2980.05 1589.21 2986.61 1589.21Z"/>
<path d="M3012.98 1589.46C3018.61 1589.46 3022.14 1587.44 3024.07 1585.09L3024.49 1585.09L3025.16 1588.7L3030.37 1588.7L3030.37 1558.55C3030.37 1550.06 3025.25 1546.28 3016.09 1546.28C3011.3 1546.28 3007.27 1547.04 3003.66 1548.55L3003.66 1553.17C3006.26 1552.41 3009.54 1551.83 3013.57 1551.83C3021.05 1551.83 3023.9 1553.51 3023.9 1559.97L3023.9 1564.34L3012.65 1565.69C3004.67 1566.61 2999.96 1570.47 2999.96 1577.78C2999.96 1585.59 3005.42 1589.46 3012.98 1589.46ZM3014.58 1584.42C3009.79 1584.42 3006.68 1582.15 3006.68 1577.61C3006.68 1572.83 3009.2 1570.73 3014.33 1570.22L3023.9 1569.13L3023.9 1581.39C3022.14 1583.16 3018.44 1584.42 3014.58 1584.42Z"/>
<path d="M3042.72 1588.7L3049.1 1588.7L3049.1 1547.12L3042.72 1547.12L3042.72 1588.7ZM3042.63 1538.72L3049.19 1538.72L3049.19 1532L3042.63 1532L3042.63 1538.72Z"/>
<path d="M3061.7 1588.7L3068.17 1588.7L3068.17 1528.56L3061.7 1528.56L3061.7 1588.7Z"/>
<path d="M3091.19 1589.37C3100.34 1589.37 3105.89 1585.01 3105.89 1577.11C3105.89 1569.89 3102.61 1567.2 3094.63 1565.1L3090.43 1563.92C3085.98 1562.66 3084.21 1561.15 3084.21 1557.54C3084.21 1553.67 3086.99 1551.74 3092.61 1551.74C3097.23 1551.74 3101.43 1552.83 3103.62 1553.93L3103.62 1548.72C3101.43 1547.54 3097.82 1546.28 3092.28 1546.28C3082.7 1546.28 3078.08 1551.07 3078.08 1558.13C3078.08 1565.18 3082.2 1567.95 3088.25 1569.63L3092.36 1570.73C3097.65 1572.24 3099.59 1573.92 3099.59 1577.78C3099.59 1581.56 3096.9 1583.91 3090.26 1583.91C3084.38 1583.91 3081.36 1582.65 3077.75 1581.31L3077.75 1586.43C3081.19 1588.37 3085.73 1589.37 3091.19 1589.37Z"/>
<path d="M3110.93 1599.62L3115.46 1599.62L3121.68 1583.24L3114.03 1583.24L3110.93 1599.62Z"/>
<path d="M2370.13 1690.01C2373.74 1690.01 2375.51 1689.08 2377.19 1688.33L2377.19 1683.96C2375.51 1684.46 2373.57 1684.71 2371.81 1684.71C2367.02 1684.71 2365.68 1683.12 2365.68 1679.09L2365.68 1653.21L2376.35 1653.21L2376.35 1647.92L2365.68 1647.92L2365.68 1638.01L2359.29 1638.01L2359.29 1647.92L2353.33 1647.92L2353.33 1653.21L2359.29 1653.21L2359.29 1680.09C2359.29 1687.15 2363.58 1690.01 2370.13 1690.01Z"/>
<path d="M2386.34 1689.5L2392.73 1689.5L2392.73 1655.73C2396.17 1654.05 2400.54 1652.63 2404.49 1652.63C2411.12 1652.63 2412.89 1654.73 2412.89 1659.77L2412.89 1689.5L2419.27 1689.5L2419.27 1658.51C2419.27 1650.44 2415.32 1647.08 2407.17 1647.08C2402.05 1647.08 2396.76 1648.85 2393.15 1651.45L2392.73 1651.45L2392.73 1629.36L2386.34 1629.36L2386.34 1689.5Z"/>
<path d="M2448.5 1690.26C2455.22 1690.26 2460.01 1688.16 2462.53 1686.39L2462.53 1681.61C2458.75 1683.37 2455.05 1684.71 2449.51 1684.71C2440.61 1684.71 2435.65 1680.68 2435.31 1670.27L2463.71 1670.27L2463.71 1666.65C2463.71 1653.72 2458.33 1647.08 2446.91 1647.08C2437.33 1647.08 2428.76 1653.55 2428.76 1668.08L2428.76 1669.26C2428.76 1682.28 2435.4 1690.26 2448.5 1690.26ZM2446.74 1652.29C2453.54 1652.29 2456.99 1656.07 2456.99 1665.14L2435.31 1665.14C2435.99 1655.31 2441.53 1652.29 2446.74 1652.29Z"/>
<path d="M2505.62 1690.26C2511.25 1690.26 2514.78 1688.24 2516.71 1685.89L2517.13 1685.89L2517.8 1689.5L2523.01 1689.5L2523.01 1659.35C2523.01 1650.86 2517.89 1647.08 2508.73 1647.08C2503.94 1647.08 2499.91 1647.84 2496.3 1649.35L2496.3 1653.97C2498.9 1653.21 2502.18 1652.63 2506.21 1652.63C2513.69 1652.63 2516.54 1654.31 2516.54 1660.77L2516.54 1665.14L2505.29 1666.49C2497.31 1667.41 2492.6 1671.27 2492.6 1678.58C2492.6 1686.39 2498.06 1690.26 2505.62 1690.26ZM2507.22 1685.22C2502.43 1685.22 2499.32 1682.95 2499.32 1678.41C2499.32 1673.63 2501.84 1671.53 2506.97 1671.02L2516.54 1669.93L2516.54 1682.19C2514.78 1683.96 2511.08 1685.22 2507.22 1685.22Z"/>
<path d="M2548.29 1690.01C2551.91 1690.01 2553.67 1689.08 2555.35 1688.33L2555.35 1683.96C2553.67 1684.46 2551.74 1684.71 2549.97 1684.71C2545.19 1684.71 2543.84 1683.12 2543.84 1679.09L2543.84 1653.21L2554.51 1653.21L2554.51 1647.92L2543.84 1647.92L2543.84 1638.01L2537.46 1638.01L2537.46 1647.92L2531.49 1647.92L2531.49 1653.21L2537.46 1653.21L2537.46 1680.09C2537.46 1687.15 2541.74 1690.01 2548.29 1690.01Z"/>
<path d="M2576.85 1690.01C2580.47 1690.01 2582.23 1689.08 2583.91 1688.33L2583.91 1683.96C2582.23 1684.46 2580.3 1684.71 2578.53 1684.71C2573.75 1684.71 2572.4 1683.12 2572.4 1679.09L2572.4 1653.21L2583.07 1653.21L2583.07 1647.92L2572.4 1647.92L2572.4 1638.01L2566.02 1638.01L2566.02 1647.92L2560.05 1647.92L2560.05 1653.21L2566.02 1653.21L2566.02 1680.09C2566.02 1687.15 2570.3 1690.01 2576.85 1690.01Z"/>
<path d="M2603.23 1690.26C2608.86 1690.26 2612.39 1688.24 2614.32 1685.89L2614.74 1685.89L2615.41 1689.5L2620.62 1689.5L2620.62 1659.35C2620.62 1650.86 2615.49 1647.08 2606.34 1647.08C2601.55 1647.08 2597.52 1647.84 2593.91 1649.35L2593.91 1653.97C2596.51 1653.21 2599.79 1652.63 2603.82 1652.63C2611.29 1652.63 2614.15 1654.31 2614.15 1660.77L2614.15 1665.14L2602.89 1666.49C2594.91 1667.41 2590.21 1671.27 2590.21 1678.58C2590.21 1686.39 2595.67 1690.26 2603.23 1690.26ZM2604.83 1685.22C2600.04 1685.22 2596.93 1682.95 2596.93 1678.41C2596.93 1673.63 2599.45 1671.53 2604.57 1671.02L2614.15 1669.93L2614.15 1682.19C2612.39 1683.96 2608.69 1685.22 2604.83 1685.22Z"/>
<path d="M2649.35 1690.26C2655.14 1690.26 2658.84 1688.58 2661.53 1686.98L2661.53 1681.77C2659.43 1682.95 2655.73 1684.71 2650.1 1684.71C2641.2 1684.71 2636.75 1679.93 2636.75 1669.26L2636.75 1667.24C2636.75 1657.67 2641.7 1652.54 2649.26 1652.54C2654.72 1652.54 2657.41 1653.55 2661.11 1655.23L2661.11 1649.85C2658.33 1648.09 2655.06 1647.08 2649.6 1647.08C2638.85 1647.08 2630.11 1653.47 2630.11 1668.25L2630.11 1669.51C2630.11 1683.2 2637.42 1690.26 2649.35 1690.26Z"/>
<path d="M2670.51 1689.5L2676.9 1689.5L2676.9 1629.36L2670.51 1629.36L2670.51 1689.5ZM2695.21 1689.5L2702.6 1689.5L2684.88 1667.49L2701.26 1647.92L2694.37 1647.92L2677.57 1668L2695.21 1689.5Z"/>
<path d="M2747.63 1690.26C2753.25 1690.26 2757.29 1688.49 2759.81 1686.06L2760.14 1686.06L2760.9 1689.5L2766.27 1689.5L2766.27 1629.36L2759.81 1629.36L2759.81 1649.85C2757.54 1648.51 2754.01 1647.08 2748.89 1647.08C2738.13 1647.08 2730.32 1653.63 2730.32 1668.75L2730.32 1669.85C2730.32 1685.22 2739.31 1690.26 2747.63 1690.26ZM2749.56 1684.97C2742.08 1684.97 2737.04 1681.27 2737.04 1669.59L2737.04 1667.91C2737.04 1656.66 2741.83 1652.54 2749.73 1652.54C2754.01 1652.54 2757.87 1653.72 2759.81 1655.23L2759.81 1681.44C2757.71 1683.12 2754.43 1684.97 2749.56 1684.97Z"/>
<path d="M2794.75 1690.26C2806.01 1690.26 2813.73 1682.36 2813.73 1669.09L2813.73 1667.91C2813.73 1654.73 2806.59 1647.08 2794.83 1647.08C2783.58 1647.08 2775.93 1654.98 2775.93 1668.17L2775.93 1669.43C2775.93 1682.7 2782.99 1690.26 2794.75 1690.26ZM2794.92 1684.97C2787.95 1684.97 2782.49 1681.19 2782.49 1669.59L2782.49 1667.49C2782.49 1657.75 2787.19 1652.37 2794.75 1652.37C2801.55 1652.37 2807.18 1656.15 2807.18 1667.75L2807.18 1669.85C2807.18 1679.67 2802.48 1684.97 2794.92 1684.97Z"/>
<path d="M2840.53 1690.26C2847.25 1690.26 2852.04 1688.16 2854.56 1686.39L2854.56 1681.61C2850.78 1683.37 2847.08 1684.71 2841.54 1684.71C2832.63 1684.71 2827.68 1680.68 2827.34 1670.27L2855.73 1670.27L2855.73 1666.65C2855.73 1653.72 2850.36 1647.08 2838.93 1647.08C2829.36 1647.08 2820.79 1653.55 2820.79 1668.08L2820.79 1669.26C2820.79 1682.28 2827.43 1690.26 2840.53 1690.26ZM2838.77 1652.29C2845.57 1652.29 2849.01 1656.07 2849.01 1665.14L2827.34 1665.14C2828.01 1655.31 2833.56 1652.29 2838.77 1652.29Z"/>
<path d="M2875.98 1690.17C2885.13 1690.17 2890.68 1685.81 2890.68 1677.91C2890.68 1670.69 2887.4 1668 2879.42 1665.9L2875.22 1664.72C2870.77 1663.46 2869.01 1661.95 2869.01 1658.34C2869.01 1654.47 2871.78 1652.54 2877.41 1652.54C2882.03 1652.54 2886.23 1653.63 2888.41 1654.73L2888.41 1649.52C2886.23 1648.34 2882.61 1647.08 2877.07 1647.08C2867.49 1647.08 2862.87 1651.87 2862.87 1658.93C2862.87 1665.98 2866.99 1668.75 2873.04 1670.43L2877.15 1671.53C2882.45 1673.04 2884.38 1674.72 2884.38 1678.58C2884.38 1682.36 2881.69 1684.71 2875.05 1684.71C2869.17 1684.71 2866.15 1683.45 2862.54 1682.11L2862.54 1687.23C2865.98 1689.17 2870.52 1690.17 2875.98 1690.17Z"/>
<path d="M2922.35 1689.5L2928.73 1689.5L2928.73 1655.65C2932.17 1654.05 2936.54 1652.63 2940.49 1652.63C2947.13 1652.63 2948.89 1654.73 2948.89 1659.77L2948.89 1689.5L2955.27 1689.5L2955.27 1658.42C2955.27 1650.36 2951.33 1647.08 2943.18 1647.08C2938.05 1647.08 2932.68 1648.93 2928.81 1651.45L2928.48 1651.45L2928.48 1647.84L2922.35 1647.84L2922.35 1689.5Z"/>
<path d="M2983.58 1690.26C2994.84 1690.26 3002.57 1682.36 3002.57 1669.09L3002.57 1667.91C3002.57 1654.73 2995.43 1647.08 2983.67 1647.08C2972.41 1647.08 2964.77 1654.98 2964.77 1668.17L2964.77 1669.43C2964.77 1682.7 2971.82 1690.26 2983.58 1690.26ZM2983.75 1684.97C2976.78 1684.97 2971.32 1681.19 2971.32 1669.59L2971.32 1667.49C2971.32 1657.75 2976.02 1652.37 2983.58 1652.37C2990.39 1652.37 2996.01 1656.15 2996.01 1667.75L2996.01 1669.85C2996.01 1679.67 2991.31 1684.97 2983.75 1684.97Z"/>
<path d="M3025.41 1690.01C3029.03 1690.01 3030.79 1689.08 3032.47 1688.33L3032.47 1683.96C3030.79 1684.46 3028.86 1684.71 3027.09 1684.71C3022.31 1684.71 3020.96 1683.12 3020.96 1679.09L3020.96 1653.21L3031.63 1653.21L3031.63 1647.92L3020.96 1647.92L3020.96 1638.01L3014.58 1638.01L3014.58 1647.92L3008.61 1647.92L3008.61 1653.21L3014.58 1653.21L3014.58 1680.09C3014.58 1687.15 3018.86 1690.01 3025.41 1690.01Z"/>
<path d="M3041.63 1689.5L3048.01 1689.5L3048.01 1655.73C3051.45 1654.05 3055.82 1652.63 3059.77 1652.63C3066.41 1652.63 3068.17 1654.73 3068.17 1659.77L3068.17 1689.5L3074.55 1689.5L3074.55 1658.51C3074.55 1650.44 3070.61 1647.08 3062.46 1647.08C3057.33 1647.08 3052.04 1648.85 3048.43 1651.45L3048.01 1651.45L3048.01 1629.36L3041.63 1629.36L3041.63 1689.5Z"/>
<path d="M3086.9 1689.5L3093.29 1689.5L3093.29 1647.92L3086.9 1647.92L3086.9 1689.5ZM3086.82 1639.52L3093.37 1639.52L3093.37 1632.8L3086.82 1632.8L3086.82 1639.52Z"/>
<path d="M3105.72 1689.5L3112.1 1689.5L3112.1 1655.65C3115.55 1654.05 3119.91 1652.63 3123.86 1652.63C3130.5 1652.63 3132.26 1654.73 3132.26 1659.77L3132.26 1689.5L3138.65 1689.5L3138.65 1658.42C3138.65 1650.36 3134.7 1647.08 3126.55 1647.08C3121.43 1647.08 3116.05 1648.93 3112.19 1651.45L3111.85 1651.45L3111.85 1647.84L3105.72 1647.84L3105.72 1689.5Z"/>
<path d="M3165.27 1701.85C3179.47 1701.85 3185.18 1696.22 3185.18 1689.08C3185.18 1681.35 3179.55 1679.09 3171.99 1679.09L3160.49 1679.09C3157.71 1679.09 3156.37 1678.25 3156.37 1675.98C3156.37 1674.63 3157.21 1673.63 3158.3 1672.62C3160.49 1673.37 3162.84 1673.79 3165.44 1673.79C3174.18 1673.79 3181.07 1669.34 3181.07 1660.44L3181.07 1660.35C3181.07 1657.08 3179.97 1654.56 3178.04 1652.71L3185.52 1652.71L3185.52 1647.75L3171.41 1647.75C3169.56 1647.33 3167.63 1647.08 3165.53 1647.08C3156.37 1647.08 3149.82 1651.87 3149.82 1660.52L3149.82 1660.69C3149.82 1665.65 3151.83 1669.01 3155.03 1671.11C3151.83 1673.46 3150.32 1675.39 3150.32 1677.99C3150.32 1680.77 3152.17 1682.53 3154.52 1683.2L3154.52 1683.62C3150.24 1685.05 3146.63 1687.65 3146.63 1692.11C3146.63 1698.15 3152.59 1701.85 3165.27 1701.85ZM3165.11 1696.81C3156.87 1696.81 3153.35 1694.96 3153.35 1691.27C3153.35 1687.74 3155.78 1685.89 3158.97 1684.8L3170.99 1684.8C3176.45 1684.8 3178.46 1686.06 3178.46 1689.92C3178.46 1694.29 3174.93 1696.81 3165.11 1696.81ZM3165.44 1668.75C3159.9 1668.75 3156.2 1666.07 3156.2 1660.61L3156.2 1660.19C3156.2 1654.98 3159.73 1651.95 3165.44 1651.95C3171.07 1651.95 3174.6 1654.56 3174.6 1660.27L3174.6 1660.69C3174.6 1666.07 3171.24 1668.75 3165.44 1668.75Z"/>
</g>
<g fill="#303030" opacity="1" stroke="none">
<path d="M3024.65 1442.58C3039.62 1442.58 3048.55 1433.08 3048.55 1420.89C3048.55 1406.97 3040.39 1400.25 3027.24 1400.25C3024.74 1400.25 3021.19 1400.82 3018.98 1401.4L3020.23 1385.37L3045.57 1385.37L3045.57 1376.15L3011.21 1376.15L3008.81 1412.34C3011.88 1410.81 3018.02 1408.79 3022.15 1408.79C3031.17 1408.79 3036.36 1412.25 3036.36 1420.6C3036.36 1428.57 3030.79 1432.98 3021.67 1432.98C3016.58 1432.98 3011.59 1431.16 3008.04 1429.05L3005.93 1438.07C3010.15 1440.66 3017.16 1442.58 3024.65 1442.58Z"/>
<path d="M3082.92 1442.78C3096.65 1442.78 3108.36 1434.04 3108.36 1410.9L3108.36 1406.78C3108.36 1383.64 3096.65 1375.1 3083.01 1375.1C3069.48 1375.1 3057.38 1383.54 3057.38 1407.06L3057.38 1411.19C3057.38 1433.56 3068.52 1442.78 3082.92 1442.78ZM3082.92 1433.75C3073.99 1433.75 3069.67 1426.46 3069.67 1411.19L3069.67 1406.1C3069.67 1390.74 3074.09 1384.22 3083.01 1384.22C3091.65 1384.22 3096.17 1391.13 3096.17 1406.78L3096.17 1411.67C3096.17 1427.42 3091.75 1433.75 3082.92 1433.75Z"/>
</g>
<path d="M2348.87 1461.22L3142.67 1463.14" fill="#f9f9f9" fill-rule="nonzero" opacity="1" stroke="#303030" stroke-linecap="round" stroke-linejoin="round" stroke-width="6"/>
<g fill="#303030" opacity="1" stroke="none">
<path d="M2373.79 1442.78C2389.73 1442.78 2397.31 1435 2397.31 1422.52C2397.31 1410.81 2391.07 1406.49 2380.7 1403.51L2374.56 1401.59C2368.03 1399.77 2366.11 1397.56 2366.11 1392.38C2366.11 1387.1 2369.95 1384.22 2376.86 1384.22C2384.16 1384.22 2389.53 1385.75 2393.66 1387.48L2393.66 1378.26C2390.01 1376.34 2385.31 1374.71 2376.67 1374.71C2361.79 1374.71 2354.59 1382.3 2354.59 1393.43C2354.59 1404.57 2360.25 1409.56 2369.57 1412.15L2375.81 1413.88C2383.01 1416.09 2385.41 1418.2 2385.41 1423.67C2385.41 1429.62 2381.66 1433.27 2372.83 1433.27C2365.63 1433.27 2359.39 1431.54 2354.11 1429.24L2354.11 1438.55C2358.62 1440.95 2365.15 1442.78 2373.79 1442.78Z"/>
<path d="M2408.16 1441.62L2419.29 1441.62L2419.29 1392.18L2408.16 1392.18L2408.16 1441.62ZM2408.16 1384.02L2419.39 1384.02L2419.39 1373.94L2408.16 1373.94L2408.16 1384.02Z"/>
<path d="M2450.78 1455.64C2468.16 1455.64 2475.65 1448.82 2475.65 1439.61C2475.65 1430.49 2469.02 1427.13 2459.61 1427.13L2445.98 1427.13C2442.91 1427.13 2441.57 1426.26 2441.57 1423.86C2441.57 1422.62 2442.24 1422.33 2443.39 1421.37C2445.69 1422.14 2448.38 1422.33 2451.17 1422.33C2462.3 1422.33 2470.56 1417.72 2470.56 1407.16L2470.56 1406.49C2470.56 1403.42 2469.69 1401.3 2468.06 1399.48L2475.65 1399.48L2475.65 1392.18L2458.94 1392.18C2456.54 1391.7 2453.95 1391.42 2451.26 1391.42C2439.55 1391.42 2431.49 1396.6 2431.49 1406.78L2431.49 1407.64C2431.49 1413.21 2433.98 1416.86 2437.73 1419.26C2434.17 1421.56 2431.97 1423.58 2431.97 1426.94C2431.97 1430.39 2434.17 1433.08 2437.15 1434.14L2437.15 1434.52C2431.97 1436.06 2427.93 1439.13 2427.93 1444.22C2427.93 1451.22 2435.33 1455.64 2450.78 1455.64ZM2450.59 1448.15C2442.05 1448.15 2438.88 1446.23 2438.88 1442.58C2438.88 1439.22 2440.99 1437.4 2443.97 1436.44L2456.64 1436.44C2462.59 1436.44 2464.32 1437.59 2464.32 1441.43C2464.32 1445.56 2460.86 1448.15 2450.59 1448.15ZM2451.17 1415.22C2445.69 1415.22 2442.33 1413.11 2442.33 1407.35L2442.33 1406.2C2442.33 1401.02 2445.5 1398.42 2451.17 1398.42C2456.54 1398.42 2459.9 1400.54 2459.9 1406.39L2459.9 1407.64C2459.9 1413.11 2456.83 1415.22 2451.17 1415.22Z"/>
<path d="M2484.19 1441.62L2495.23 1441.62L2495.23 1403.22C2498.21 1401.78 2502.53 1400.54 2506.37 1400.54C2513.09 1400.54 2514.72 1402.55 2514.72 1407.54L2514.72 1441.62L2525.85 1441.62L2525.85 1404.95C2525.85 1395.16 2520.96 1391.32 2511.45 1391.32C2505.5 1391.32 2499.74 1393.43 2495.71 1396.41L2495.23 1396.41L2495.23 1371.45L2484.19 1371.45L2484.19 1441.62Z"/>
<path d="M2555.52 1442.2C2560.13 1442.2 2562.81 1441.14 2564.73 1440.18L2564.73 1432.79C2563.01 1433.27 2560.99 1433.56 2559.07 1433.56C2553.89 1433.56 2552.35 1432.02 2552.35 1427.9L2552.35 1400.82L2564.16 1400.82L2564.16 1392.18L2552.35 1392.18L2552.35 1380.57L2541.5 1380.57L2541.5 1392.18L2534.59 1392.18L2534.59 1400.82L2541.5 1400.82L2541.5 1429.43C2541.5 1438.74 2546.97 1442.2 2555.52 1442.2Z"/>
</g>
<path d="M1994.2 1458.13C2003.72 1458.13 2011.44 1456.11 2017.27 1453.98L2017.27 1420.5L1992.4 1420.5L1992.4 1427.89L2008.53 1427.89L2008.53 1448.38C2004.95 1449.73 1999.68 1450.62 1994.42 1450.62C1974.26 1450.62 1968.88 1438.08 1968.88 1420.61L1968.88 1417.58C1968.88 1401.68 1975.49 1388.02 1994.2 1388.02C2004.16 1388.02 2009.88 1390.48 2014.47 1392.61L2014.47 1384.88C2009.99 1382.64 2004.16 1380.51 1994.87 1380.51C1975.94 1380.51 1959.36 1390.59 1959.36 1418.82L1959.36 1420.83C1959.36 1446.59 1972.92 1458.13 1994.2 1458.13Z" fill="#303030" opacity="1" stroke="none"/>
<path d="M1902.49 1337.05L2072.59 1337.05L2072.59 1507.15L1902.49 1507.15L1902.49 1337.05Z" fill="none" opacity="1" stroke="#303030" stroke-linecap="round" stroke-linejoin="round" stroke-width="6"/>
</g>
<g fill="#5e5e5e" opacity="1" stroke="none">
<path d="M2385.13 2152.47L2396.2 2152.47L2396.2 2091.22L2385.13 2091.22L2385.13 2152.47Z"/>
<path d="M2410.93 2152.47L2431.11 2152.47C2450.76 2152.47 2460.31 2141.67 2460.31 2122.02L2460.31 2120.24C2460.31 2100.24 2449.78 2091.22 2431.02 2091.22L2410.93 2091.22L2410.93 2152.47ZM2421.92 2143.81L2421.92 2099.88L2430.4 2099.88C2442.01 2099.88 2448.7 2104.7 2448.7 2120.15L2448.7 2123.1C2448.7 2137.92 2443.17 2143.81 2431.2 2143.81L2421.92 2143.81Z"/>
<path d="M2471.2 2115.95L2482.1 2115.95L2482.1 2105.42L2471.2 2105.42L2471.2 2115.95ZM2471.2 2148.28L2482.1 2148.28L2482.1 2137.74L2471.2 2137.74L2471.2 2148.28Z"/>
<path d="M2513.53 2152.47L2523.71 2152.47L2529.24 2136.94L2552.01 2136.94L2557.55 2152.47L2568.89 2152.47L2547.1 2091.22L2535.85 2091.22L2513.53 2152.47ZM2540.4 2104.26L2540.67 2104.26L2549.24 2128.72L2531.83 2128.72L2540.4 2104.26Z"/>
<path d="M2572.46 2132.02L2597.01 2132.02L2597.01 2123.45L2572.46 2123.45L2572.46 2132.02Z"/>
<path d="M2609.6 2152.83L2620.68 2152.83L2620.68 2091.13L2614.87 2091.13L2599.34 2098.09L2599.34 2104.52L2609.6 2102.47L2609.6 2152.83Z"/>
<path d="M2638.27 2152.47L2650.41 2152.47L2672.46 2098.18L2672.46 2091.67L2632.82 2091.67L2632.82 2100.33L2660.59 2100.33L2638.27 2152.47Z"/>
</g>
<g opacity="1">
<use fill="none" opacity="1" stroke="#000000" stroke-linecap="round" stroke-linejoin="round" stroke-width="6" xlink:href="#Fill"/>
<clipPath id="ClipPath">
<use xlink:href="#Fill"/>
</clipPath>
<g clip-path="url(#ClipPath)">
<g opacity="1" vectornator:layerName="(curve)">
<path d="M2023.39 1153.88C2054.82 911.878 2070.37 802.733 2088.76 713.273C2088.76 713.273 2105.58 650.272 2124.61 649.074C2142.83 647.927 2152.81 654.589 2191.72 752.144C2262.18 759.485 2336.96 767.255 2392.8 775.186C2395.63 770.931 2456.03 686.561 2478.38 683.876C2520.51 665.736 2492.76 994.541 2505.46 1187.56" fill="#ffffff" fill-rule="nonzero" opacity="1" stroke="#000000" stroke-linecap="round" stroke-linejoin="round" stroke-width="6.07544"/>
<path d="M2487.24 687.668C2488.06 688.212 2489.13 688.496 2489.69 689.302C2495.43 697.545 2501.08 705.889 2506.03 714.63C2510.35 722.26 2514.28 730.154 2517.47 738.324C2518.67 741.411 2519.47 744.836 2519.1 748.129C2518.98 749.277 2517.4 746.555 2516.65 745.678C2514.13 742.739 2511.82 739.629 2509.3 736.69C2506.91 733.908 2504.14 731.451 2501.95 728.52C2500.4 726.464 2500.43 721.983 2497.86 721.983C2497.32 721.983 2497.7 723.097 2497.86 723.618C2498.8 726.664 2500.12 729.581 2501.13 732.605C2503.97 741.141 2507.48 749.781 2508.48 758.75C2508.58 759.678 2509.39 764.742 2506.85 762.836C2504.44 761.029 2502.44 756.477 2501.13 753.848C2500.86 753.303 2500.58 751.669 2500.31 752.214C2499.36 754.109 2501.74 760.543 2501.95 761.201C2504.14 768.097 2506.54 774.936 2509.3 781.628C2511.63 787.285 2513.09 793.012 2515.02 798.785C2515.83 801.237 2516.65 803.688 2517.47 806.139C2517.66 806.717 2518.79 808.111 2518.29 807.773C2511.78 803.434 2507.52 794.249 2503.58 788.164C2502.84 787.021 2501.13 783.534 2501.13 784.896C2501.13 786.97 2502.85 788.673 2503.58 790.615C2504.49 793.034 2505.17 795.532 2506.03 797.968C2510.21 809.805 2515.17 820.508 2516.65 833.101C2516.94 835.55 2517.47 837.988 2517.47 840.455C2517.47 841.272 2518.29 842.906 2517.47 842.906C2516.61 842.906 2516.92 841.272 2516.65 840.455C2515.07 835.704 2513.51 830.858 2510.93 826.565C2510.12 825.203 2509.4 823.772 2508.48 822.48C2508.03 821.853 2507.27 820.205 2506.85 820.846C2504.88 823.8 2507.05 827.97 2507.66 831.467C2508.1 833.94 2508.69 836.385 2509.3 838.82C2511.96 849.463 2515.31 859.913 2517.47 870.685C2518.49 875.787 2519.1 881.006 2519.1 886.209C2519.1 887.571 2520.17 891.145 2519.1 890.294C2516.91 888.542 2516.27 885.449 2515.02 882.941C2512.24 877.381 2509.32 871.871 2506.03 866.6C2505.19 865.253 2504.37 863.894 2503.58 862.515C2503.28 861.986 2502.76 860.272 2502.76 860.881C2502.76 877.71 2511.75 893.768 2511.75 910.72C2511.75 914.805 2511.75 918.891 2511.75 922.976C2511.75 923.616 2510.71 928.994 2510.12 928.695C2505.93 926.6 2503.48 912.554 2501.95 908.269C2501.54 907.122 2501.53 905.001 2500.31 905.001C2499.19 905.001 2500.86 907.18 2501.13 908.269C2501.67 910.448 2502.3 912.608 2502.76 914.805C2503.39 917.785 2503.78 920.812 2504.4 923.793C2505.96 931.301 2508.79 938.49 2510.93 945.853C2513.09 953.265 2513.16 961.129 2514.2 968.73C2514.72 972.546 2515.23 976.364 2515.83 980.169C2516.14 982.071 2518.37 985.027 2516.65 985.888C2514.06 987.183 2512.51 981.779 2510.93 979.352C2508.31 975.322 2501.13 965.922 2501.13 959.743C2501.13 958.881 2501.67 961.377 2501.95 962.194C2502.76 964.645 2503.5 967.123 2504.4 969.547C2506.17 974.349 2508.64 978.86 2510.93 983.437C2516 993.578 2519.71 1005.61 2520.74 1016.94C2520.93 1019.11 2521.55 1021.45 2520.74 1023.47C2520.09 1025.09 2517.67 1021.62 2516.65 1020.2C2514.85 1017.68 2512.91 1015.25 2510.93 1012.85C2509.09 1010.62 2507.16 1008.46 2505.21 1006.31C2504.44 1005.46 2503.92 1003.86 2502.76 1003.86C2501.95 1003.86 2502.62 1005.51 2502.76 1006.31C2503.16 1008.52 2503.65 1010.73 2504.4 1012.85C2505.29 1015.38 2506.62 1017.73 2507.66 1020.2C2513.53 1034.14 2518.26 1049.09 2519.1 1064.32C2519.25 1067.04 2519.1 1069.77 2519.1 1072.49C2519.1 1073.04 2519.62 1073.96 2519.1 1074.13C2515.81 1075.22 2513.53 1069.75 2511.75 1066.78C2507.17 1059.15 2504.07 1050.71 2499.49 1043.08C2498.9 1042.09 2497.04 1039.47 2497.04 1040.63C2497.04 1042.7 2498.84 1044.38 2499.49 1046.35C2500.2 1048.48 2500.54 1050.72 2501.13 1052.89C2502.17 1056.71 2503.43 1060.48 2504.4 1064.32C2507.15 1075.32 2508.6 1085.78 2509.3 1097.01C2509.54 1100.81 2509.3 1104.63 2509.3 1108.44C2509.3 1108.99 2509.84 1110.08 2509.3 1110.08C2505.37 1110.08 2504.46 1103.82 2502.76 1100.27C2499.71 1093.9 2497.95 1086.48 2492.96 1081.48C2491.74 1080.26 2493.99 1084.77 2494.59 1086.38C2495.62 1089.13 2496.87 1091.79 2497.86 1094.55C2499.6 1099.42 2500.95 1104.42 2502.76 1109.26C2504.86 1114.85 2507.97 1120.03 2510.12 1125.6C2515.73 1140.2 2519.95 1155.17 2525.64 1169.72C2526.71 1172.45 2528.16 1175.06 2528.91 1177.89C2529.54 1180.28 2531.7 1183.77 2529.72 1185.25C2528.02 1186.52 2526.79 1182.13 2525.64 1180.34C2524.32 1178.3 2523.53 1175.95 2522.37 1173.81C2518.23 1166.17 2513.64 1158.74 2508.48 1151.75C2506.87 1149.56 2506.3 1145.21 2503.58 1145.21C2501.33 1145.21 2504.4 1149.65 2505.21 1151.75C2506.32 1154.59 2508.06 1157.14 2509.3 1159.92C2513.48 1169.32 2515.88 1178.48 2518.29 1188.51C2518.87 1190.96 2519.39 1193.41 2519.92 1195.87C2520.21 1197.23 2521.98 1199.33 2520.74 1199.95C2519.52 1200.56 2518.79 1197.95 2518.29 1196.68C2516.61 1192.49 2516.6 1186.79 2514.2 1182.8C2513.89 1182.27 2512.84 1181.43 2512.57 1181.98C2510.84 1185.44 2514.13 1200.02 2515.02 1204.04C2515.15 1204.63 2515.98 1205.08 2515.83 1205.67C2515.5 1206.99 2506.5 1211.56 2505.69 1210.47C2504.5 1208.89 2498.17 1201.07 2497.28 1199.29" fill="#fcfcfc" fill-rule="nonzero" opacity="1" stroke="#000000" stroke-linecap="round" stroke-linejoin="round" stroke-width="6.07544"/>
<path d="M2115.48 661.522C2116.03 660.433 2118.24 657.79 2117.12 658.254C2105.52 663.029 2092.97 673.413 2084.44 681.948C2080.96 685.42 2078.26 689.717 2076.27 694.204C2071.27 705.442 2089.24 683.126 2091.79 684.399C2092.87 684.94 2090.74 686.953 2088.52 690.119C2087.4 691.728 2086.34 693.387 2085.25 695.021C2079.67 703.399 2074.64 712.074 2068.91 720.349C2067.45 722.46 2062.53 728.47 2063.19 731.788C2063.66 734.12 2067.84 731.557 2072.18 728.52C2072.85 728.052 2083.13 720.842 2083.62 721.166C2086.64 723.181 2081.11 729.561 2080.35 730.971C2079.2 733.116 2078.01 735.255 2077.08 737.507C2074.33 744.199 2072.2 751.133 2069.73 757.933C2069.14 759.552 2068.74 761.236 2068.1 762.836C2067.17 765.149 2062.38 771.822 2068.91 771.006C2070.12 770.855 2071.26 770.174 2072.18 769.372C2074.79 767.089 2077.23 764.609 2079.53 762.019C2080.59 760.832 2080.66 758.814 2081.99 757.933C2082.67 757.48 2082.35 759.654 2081.99 760.384C2081.21 761.944 2079.68 763.019 2078.72 764.47C2075.32 769.562 2071.65 774.519 2068.91 779.993C2065.47 786.87 2062.81 794.111 2059.93 801.237C2057.14 808.114 2051.4 819.444 2053.39 827.382C2053.54 827.973 2053.9 826.277 2054.21 825.748C2054.99 824.369 2055.8 823.002 2056.66 821.663C2057.71 820.006 2058.8 818.369 2059.93 816.76C2060.06 816.571 2067.28 806.596 2067.28 811.858C2067.28 816.164 2064.28 819.947 2063.19 824.114C2062.36 827.32 2062.29 830.687 2061.56 833.918C2059.4 843.418 2055.03 852.266 2052.57 861.698C2051.87 864.385 2051.37 867.125 2050.94 869.868C2050.43 873.107 2048.3 876.944 2050.12 879.673C2051.3 881.442 2053.09 876.582 2054.21 874.77C2055.43 872.775 2056.76 870.821 2058.29 869.051C2060.31 866.723 2062.54 864.576 2064.83 862.515C2066.74 860.796 2068.79 858.429 2071.36 858.429C2072.45 858.429 2071.68 860.654 2071.36 861.698C2070.84 863.448 2069.73 864.966 2068.91 866.6C2066.13 872.165 2063.83 877.966 2061.56 883.758C2056.39 896.904 2051.32 909.58 2046.85 922.976C2045.76 926.244 2044.79 929.555 2043.58 932.78C2042.94 934.491 2041.13 937.683 2041.13 937.683C2041.13 937.683 2041.6 936.549 2041.95 936.049C2044.06 933.003 2046.39 930.114 2048.49 927.061C2049.01 926.3 2051.65 920.959 2053.39 920.525C2053.98 920.377 2054.21 921.55 2054.21 922.159C2054.21 924.355 2053.92 926.565 2053.39 928.695C2052.28 933.124 2050.66 937.408 2049.3 941.768C2043.88 959.234 2037 977.092 2032.96 994.876C2032.54 996.735 2032.96 998.688 2032.96 1000.59C2032.96 1001.41 2032.15 1003.05 2032.96 1003.05C2033.69 1003.05 2038.58 990.222 2039.5 991.607C2041.64 994.812 2038.89 999.333 2037.87 1003.05C2036.08 1009.51 2032.27 1021.98 2029.69 1029.19C2027.84 1034.38 2025.15 1039.33 2023.98 1044.72C2022.8 1050.14 2021.84 1055.62 2020.71 1061.06C2020.48 1062.16 2018.77 1064.32 2019.89 1064.32C2021.99 1064.32 2025.75 1056.42 2027.24 1053.7C2030.82 1047.21 2031.43 1044.62 2036.23 1039.81C2037.19 1038.85 2038.18 1037.03 2039.5 1037.36C2040.56 1037.63 2039.75 1039.57 2039.5 1040.63C2038.65 1044.24 2037.34 1047.72 2036.23 1051.25C2034.04 1058.25 2032.42 1065.41 2030.51 1072.49C2027 1085.56 2023.04 1097.29 2021.52 1110.9C2021.46 1111.44 2020.98 1112.53 2021.52 1112.53C2025.06 1112.53 2024.37 1106.04 2025.61 1102.73C2026.25 1101.01 2027.05 1096.3 2028.06 1097.82C2029.43 1099.87 2027.87 1102.79 2027.24 1105.18C2026.5 1108.01 2025.12 1110.65 2023.98 1113.35C2018.56 1126.16 2014.02 1137.95 2011.72 1151.75C2011.31 1154.18 2010.63 1156.65 2010.9 1159.1C2011.03 1160.25 2013.02 1157.76 2013.35 1156.65C2013.73 1155.39 2017.8 1140.67 2019.07 1141.94C2020.04 1142.91 2019.24 1144.68 2019.07 1146.03C2018.7 1149.05 2018.18 1152.06 2017.44 1155.02C2016.39 1159.19 2014.4 1163.09 2013.35 1167.27C2012.14 1172.14 2010.97 1177.03 2010.09 1181.98C2009.6 1184.67 2009.44 1187.42 2009.27 1190.15C2009.18 1191.51 2007.84 1195.87 2010.9 1195.87C2014.71 1195.87 2028.42 1184.02 2029 1181.7" fill="#fcfcfc" fill-rule="nonzero" opacity="1" stroke="#000000" stroke-linecap="round" stroke-linejoin="round" stroke-width="6.07544"/>
<path d="M2359.52 1041.25C2344.43 1010.61 2356.29 964.664 2390.77 946.122C2425.24 927.58 2470.51 947.977 2485.6 978.617C2497.13 1002.04 2497.62 1029.46 2477.52 1052.58C2471.33 1059.71 2464.04 1065.78 2455.92 1070.15C2421.45 1088.69 2374.6 1071.89 2359.52 1041.25Z" fill="#ffc4cc" fill-rule="nonzero" opacity="1" stroke="none"/>
<path d="M2061.56 1010.14C2046.47 979.504 2058.34 933.557 2092.81 915.015C2127.28 896.473 2172.55 916.87 2187.64 947.51C2199.17 970.932 2199.66 998.353 2179.56 1021.48C2173.37 1028.6 2166.09 1034.67 2157.96 1039.04C2123.49 1057.58 2076.64 1040.78 2061.56 1010.14Z" fill="#ffc4cc" fill-rule="nonzero" opacity="1" stroke="none"/>
<path d="M2339.36 989.512C2308.41 939.237 2320.37 857.805 2369.75 829.956C2419.13 802.107 2501.44 816.479 2532.39 866.754C2563.34 917.029 2549.71 1000.16 2500.33 1028.01C2450.95 1055.86 2370.31 1039.79 2339.36 989.512Z" fill="none" opacity="1" stroke="#000000" stroke-linecap="round" stroke-linejoin="round" stroke-width="6.07544" vectornator:layerName="(rectangle)"/>
<path d="M2035.77 956.701C2000.41 910.899 2007.78 815.644 2056.66 789.05C2119.02 755.121 2210.56 784.96 2231.98 838.082C2256.69 899.361 2224 979.112 2179.21 991.372C2125.54 1006.06 2072.3 1004.02 2035.77 956.701Z" fill="none" opacity="1" stroke="#000000" stroke-linecap="round" stroke-linejoin="round" stroke-width="6.07544" vectornator:layerName="(rectangle)"/>
<path d="M2240.16 880.047C2267.82 878.548 2289.71 877.201 2328.76 882.945" fill="none" opacity="1" stroke="#000000" stroke-linecap="round" stroke-linejoin="round" stroke-width="6.07544"/>
<path d="M2280.63 914.217C2293.93 914.217 2307.55 918.83 2307.65 927.899L2307.65 927.899C2307.19 938.271 2293.91 941.58 2280.61 941.58C2267.31 941.58 2254.38 937.015 2254.46 927.899L2254.46 927.899C2254.88 918.231 2267.34 914.217 2280.63 914.217Z" fill="#000000" fill-rule="nonzero" opacity="1" stroke="#000000" stroke-linecap="round" stroke-linejoin="round" stroke-width="6.07544"/>
</g>
<path d="M2129.7 655.273C2128.74 655.273 2126.81 656.234 2126.81 655.273C2126.81 653.634 2131.87 653.83 2138.35 653.83C2141.72 653.83 2145.11 653.395 2148.45 653.83C2150.71 654.125 2152.76 655.307 2154.94 655.994C2167.13 659.844 2177.73 664.151 2180.18 677.629C2181.58 685.349 2166.58 677.572 2163.59 676.908C2162.42 676.647 2161.19 676.908 2159.99 676.908C2159.51 676.908 2158.54 676.427 2158.54 676.908C2158.54 684.088 2174.42 691.537 2178.02 697.822C2178.21 698.171 2180.86 705.501 2177.29 704.312C2173.71 703.118 2171.1 699.844 2167.2 698.543C2166.48 698.302 2168.68 698.924 2169.36 699.264C2170.61 699.891 2171.77 700.693 2172.97 701.428C2174.9 702.616 2176.89 703.715 2178.74 705.033C2181.55 707.044 2198.54 718.845 2197.49 723.063C2197.06 724.76 2184.83 722.461 2186.67 725.226C2189.99 730.201 2210.96 737.592 2204.7 745.419C2203.4 747.046 2199.58 746.007 2198.21 745.419C2195.74 744.36 2193.47 742.872 2191 741.813C2189.56 741.196 2186.67 740.818 2186.67 741.092C2186.67 745.225 2190.58 750.095 2191.72 754.073C2192.26 755.979 2192.68 757.919 2193.16 759.843C2193.4 760.804 2193.57 763.668 2193.88 762.727C2194.41 761.131 2193.88 759.362 2193.88 757.679C2193.88 756.958 2193.88 756.237 2193.88 755.515" fill="#fcfcfc" fill-rule="nonzero" opacity="1" stroke="#000000" stroke-linecap="round" stroke-linejoin="round" stroke-width="6.07544"/>
<path d="M2478.02 689.168C2471.32 689.168 2462.96 685.126 2456.39 687.004C2449.74 688.903 2443.96 692.501 2438.36 696.379C2438.26 696.445 2435.02 699.316 2436.19 699.985C2439.75 702.016 2444.4 698.685 2448.45 699.264C2449.31 699.387 2447.67 700.863 2447.01 701.428C2445.95 702.34 2444.49 702.703 2443.41 703.591C2439.33 706.93 2435.85 710.949 2431.87 714.409C2428.78 717.095 2425.64 719.721 2422.49 722.342C2418.26 725.872 2415.36 729.735 2411.68 733.88C2411.22 734.388 2409.93 734.715 2410.23 735.323C2410.92 736.698 2420.08 730.523 2421.05 729.553C2421.43 729.173 2420.05 729.962 2419.61 730.274C2418.36 731.169 2417.2 732.198 2416 733.159C2413.29 735.325 2410.16 736.899 2407.35 738.929C2397.63 745.946 2393.16 753.685 2385.71 762.727C2383.98 764.827 2381.87 766.573 2379.94 768.497C2379.46 768.977 2377.82 769.939 2378.5 769.939C2384.42 769.939 2392.48 761.985 2397.25 759.121C2398.91 758.124 2400.36 756.237 2402.3 756.237C2402.78 756.237 2403.33 758.425 2400.14 763.448C2398.3 766.331 2395.98 768.884 2393.65 771.381C2387.47 778.003 2382.9 782.576 2379.22 790.853C2379 791.344 2378.26 791.814 2378.5 792.295C2378.72 792.725 2379.68 791.895 2379.94 792.295C2381.17 794.139 2379.22 798.907 2379.22 800.949" fill="#fcfcfc" fill-rule="nonzero" opacity="1" stroke="#000000" stroke-linecap="round" stroke-linejoin="round" stroke-width="6.07544"/>
<path d="M2192.28 746.714C2194.3 746.255 2198.33 746.542 2200.38 746.189C2204.81 745.425 2204.16 742.605 2204.69 738.17C2205.6 730.556 2221.1 748.149 2221.13 748.119C2222.19 747.092 2218.34 739.89 2219.55 739.051C2221.56 737.67 2232.14 744.883 2234.32 744.88C2250.4 744.857 2255.82 756.831 2256.74 756.566C2257.59 756.32 2253.67 745.672 2253.71 745.616C2254.31 744.911 2262.8 747.227 2263.71 747.772C2267.61 750.09 2270.1 753.277 2273.56 755.884C2275.12 757.063 2282.7 760.046 2284.12 761.39C2285.4 762.602 2285.73 787.684 2281.95 793.983C2276.77 802.611 2267.53 800.371 2259.41 805.965C2254.79 809.147 2243.84 824.234 2243.43 823.72C2242.76 822.902 2243.9 817.719 2244.16 816.297C2245.06 811.413 2246.56 806.701 2247.47 801.787C2247.58 801.163 2248.89 796.287 2248.53 795.999C2245.91 793.873 2237.01 798.466 2234.06 799.319C2232.64 799.73 2231.11 801.03 2229.76 800.418C2228.91 800.03 2232.02 795.467 2232.77 794.357C2234.54 791.755 2239.86 784.958 2239.36 784.232C2238.89 783.546 2223.06 793.135 2218.14 795.127C2216.94 795.613 2210.6 797.557 2211.76 795.756C2221.14 781.196 2221.64 780.478 2212.25 779.535C2208.83 779.192 2195.38 777.393 2194.05 777.148C2193.14 776.98 2191.84 777.409 2191.31 776.643C2190.12 774.923 2192.02 767.666 2192.41 765.509C2193.04 762.126 2189.86 749.31 2192.22 746.882" fill="#fcfcfc" fill-rule="nonzero" opacity="1" stroke="#000000" stroke-linecap="round" stroke-linejoin="round" stroke-width="6.07544"/>
<path d="M2287.59 755.386C2296.12 748.749 2306.29 746.683 2316.89 746.683C2317.76 746.683 2315.08 746.633 2314.28 746.973C2311.98 747.942 2310.17 749.812 2308.19 751.325C2307.2 752.075 2304.89 752.471 2305.28 753.646C2305.68 754.842 2307.82 754.174 2309.06 753.936C2310.42 753.674 2311.57 752.775 2312.83 752.195C2318.7 749.485 2323.66 748.898 2330.23 748.134C2333.28 747.779 2333.35 747.843 2336.04 747.843C2336.71 747.843 2338.54 747.365 2338.07 747.843C2336.94 748.971 2334.88 748.356 2333.42 749.004C2330.1 750.482 2327.06 752.657 2324.14 754.806C2323.53 755.254 2321.68 756.04 2322.4 756.257C2323.89 756.705 2325.52 756.031 2327.04 755.676C2329.99 754.988 2332.8 753.759 2335.75 753.065C2343.98 751.128 2353.62 750.032 2362.15 751.035C2362.75 751.106 2361 751.457 2360.4 751.615C2359.54 751.845 2358.64 751.913 2357.79 752.195C2355.47 752.97 2353.22 754.144 2351.12 755.386C2350.04 756.028 2347.93 756.156 2347.93 757.417C2347.93 758.52 2350.03 758.145 2351.12 758.287C2354.66 758.749 2354.84 758.035 2358.37 757.417C2366.77 755.948 2374.48 755.295 2383.03 755.096C2385.21 755.045 2404.02 753.219 2405.93 754.689C2407.26 755.714 2399.16 764.979 2399.16 766.403C2399.16 773.458 2391.03 778.608 2389.71 785.557C2389.6 786.111 2388.22 790.432 2387.96 791.069C2387.63 791.918 2378.66 807.468 2378.46 807.41C2377.06 807.011 2377.14 795.798 2376.98 794.66C2376.18 789.056 2374.93 782.728 2371.72 785.267C2357.84 796.226 2357.12 803.585 2356.34 803.254C2355.27 802.794 2358.57 787.635 2358.08 787.298C2357.21 786.686 2350.07 789.827 2347.32 793.76C2342.77 800.289 2341.11 806.259 2340.39 806.155C2339.16 805.979 2338.09 779.968 2336.62 780.045C2332.71 780.251 2313.43 803.271 2310.22 822.981C2308.52 822.793 2304.32 816.874 2303.92 815.839C2302.54 812.305 2304.45 797.258 2304.41 789.619C2304.41 789.537 2294.97 808.408 2290.2 801.803C2285.3 795.019 2285.13 771.964 2285.13 771.964C2285.13 771.964 2284.98 756.503 2288.29 755.082" fill="#fcfcfc" fill-rule="nonzero" opacity="1" stroke="#000000" stroke-linecap="round" stroke-linejoin="round" stroke-width="6.07544"/>
<path d="M2227.56 943.213C2226.11 950.857 2224.66 967.207 2223.77 971.88C2222.53 978.412 2228.56 1055.44 2212.36 1086.73C2211.74 1087.93 2210.3 1091.91 2210.15 1091.52C2209.53 1089.85 2203.98 977.142 2204.26 976.482C2204.42 976.115 2213.29 967.54 2214.67 965.569C2220.08 957.841 2224.76 947.831 2227.56 943.213Z" fill="#acefea" fill-rule="nonzero" opacity="1" stroke="#000000" stroke-linecap="round" stroke-linejoin="round" stroke-width="6.07544"/>
<path d="M2187.34 988.546C2191.82 1011.66 2183.8 1064.99 2183.8 1064.99C2183.8 1064.99 2177.41 1049.28 2176.1 1023.08C2174.92 999.573 2175.19 993.055 2175.19 993.055C2175.19 993.055 2182.89 990.486 2187.34 988.546Z" fill="#acefea" fill-rule="nonzero" opacity="1" stroke="#000000" stroke-linecap="butt" stroke-linejoin="round" stroke-width="6.07544"/>
<path d="M2644.47 961.752C2638.28 966.991 2618.83 984.224 2626.03 987.105C2633.23 989.986 2676.07 974.026 2677.85 976.113C2678.74 977.15 2645.75 1020.3 2645.08 1031.2C2668.81 1033.64 2705.5 1002.96 2709.74 999.93C2715.34 995.926 2715.12 1001.37 2715.12 1004.92C2715.12 1013.14 2705.44 1029.21 2717.42 1037.19C2740.68 1031.97 2776.18 952.544 2773.89 935.394C2773.38 931.562 2771.13 927.62 2768.9 924.638C2751.1 900.926 2652.96 954.563 2644.47 961.752Z" fill="#e2f3f2" fill-rule="nonzero" opacity="1" stroke="#000000" stroke-linecap="round" stroke-linejoin="round" stroke-width="6.07544"/>
<path d="M2814.3 769.595C2810.26 773.976 2797.62 788.301 2803.14 789.753C2808.65 791.205 2838.46 775.698 2839.95 777.059C2840.69 777.736 2820.52 812.19 2821.01 820.201C2838.54 819.841 2862.54 794.146 2865.36 791.557C2869.09 788.131 2869.41 792.126 2869.73 794.715C2870.48 800.711 2864.86 813.308 2874.33 818.046C2890.82 812.137 2909.55 750.996 2906.34 738.692C2905.62 735.943 2903.62 733.269 2901.72 731.296C2886.6 715.603 2819.85 763.584 2814.3 769.595Z" fill="#e2f3f2" fill-rule="nonzero" opacity="1" stroke="#000000" stroke-linecap="round" stroke-linejoin="round" stroke-width="6.08"/>
<path d="M2882.16 958.821C2891.74 967.305 2926.1 931.566 2926.41 931.628C2930.51 932.447 2920.03 976.359 2932.7 983.752C2937.95 986.816 2963.07 935.759 2964.27 934.827C2965.12 934.163 2977.77 964.653 2978.9 965.215C2980.02 965.777 2990.08 958.712 2993.06 934.294C2995.42 915.013 2994.93 879.17 2980.27 861.245C2977.89 858.336 2964.21 857.96 2960.54 859.646C2935.53 871.125 2876.9 945.352 2882.16 958.821Z" fill="#e2f3f2" fill-rule="nonzero" opacity="1" stroke="#000000" stroke-linecap="round" stroke-linejoin="round" stroke-width="6.07544"/>
<path d="M3024.85 695.015C3031.41 702.801 3062.58 678.662 3062.82 678.746C3065.95 679.866 3052.61 713.2 3061.73 720.485C3065.5 723.505 3091.18 686.243 3092.23 685.648C3092.98 685.225 3099.4 710.679 3100.22 711.252C3101.04 711.824 3109.78 707.431 3114.95 688.564C3119.03 673.667 3122.8 645.41 3113.34 629.608C3111.81 627.044 3101.09 625.163 3098 626.064C3077 632.2 3022.27 683.809 3024.85 695.015Z" fill="#e2f3f2" fill-rule="nonzero" opacity="1" stroke="#000000" stroke-linecap="round" stroke-linejoin="round" stroke-width="6.08"/>
</g>
</g>
<path d="M1868.32 416.4L3173.93 416.4L3173.93 1202.1L1868.32 1202.1L1868.32 416.4Z" fill="none" opacity="1" stroke="#000000" stroke-linecap="round" stroke-linejoin="round" stroke-width="6"/>
</g>
</svg>
